G04 #@! TF.GenerationSoftware,KiCad,Pcbnew,(5.1.4)-1*
G04 #@! TF.CreationDate,2021-08-28T14:03:40-05:00*
G04 #@! TF.ProjectId,Mocos_2021,4d6f636f-735f-4323-9032-312e6b696361,1*
G04 #@! TF.SameCoordinates,Original*
G04 #@! TF.FileFunction,Soldermask,Top*
G04 #@! TF.FilePolarity,Negative*
%FSLAX46Y46*%
G04 Gerber Fmt 4.6, Leading zero omitted, Abs format (unit mm)*
G04 Created by KiCad (PCBNEW (5.1.4)-1) date 2021-08-28 14:03:40*
%MOMM*%
%LPD*%
G04 APERTURE LIST*
%ADD10C,0.100000*%
G04 APERTURE END LIST*
D10*
G36*
X182274508Y-122189380D02*
G01*
X182441367Y-122222570D01*
X182912899Y-122417885D01*
X183155629Y-122580073D01*
X183337266Y-122701438D01*
X183698162Y-123062334D01*
X183748102Y-123137075D01*
X183981715Y-123486701D01*
X184177030Y-123958233D01*
X184210220Y-124125092D01*
X184276600Y-124458807D01*
X184276600Y-124969193D01*
X184268390Y-125010466D01*
X184177030Y-125469767D01*
X183981715Y-125941299D01*
X183819527Y-126184029D01*
X183698162Y-126365666D01*
X183337266Y-126726562D01*
X183155629Y-126847927D01*
X182912899Y-127010115D01*
X182441367Y-127205430D01*
X182274508Y-127238620D01*
X181940793Y-127305000D01*
X181430407Y-127305000D01*
X181096692Y-127238620D01*
X180929833Y-127205430D01*
X180458301Y-127010115D01*
X180215571Y-126847927D01*
X180033934Y-126726562D01*
X179673038Y-126365666D01*
X179551673Y-126184029D01*
X179389485Y-125941299D01*
X179194170Y-125469767D01*
X179102810Y-125010466D01*
X179094600Y-124969193D01*
X179094600Y-124458807D01*
X179160980Y-124125092D01*
X179194170Y-123958233D01*
X179389485Y-123486701D01*
X179623098Y-123137075D01*
X179673038Y-123062334D01*
X180033934Y-122701438D01*
X180215571Y-122580073D01*
X180458301Y-122417885D01*
X180929833Y-122222570D01*
X181096692Y-122189380D01*
X181430407Y-122123000D01*
X181940793Y-122123000D01*
X182274508Y-122189380D01*
X182274508Y-122189380D01*
G37*
G36*
X103114000Y-126997999D02*
G01*
X92212000Y-126997999D01*
X92212000Y-117496001D01*
X103114000Y-117496001D01*
X103114000Y-126997999D01*
X103114000Y-126997999D01*
G37*
G36*
X90668000Y-126997999D02*
G01*
X79766000Y-126997999D01*
X79766000Y-117496001D01*
X90668000Y-117496001D01*
X90668000Y-126997999D01*
X90668000Y-126997999D01*
G37*
G36*
X134058519Y-123104377D02*
G01*
X134222903Y-123137075D01*
X134450571Y-123231378D01*
X134655466Y-123368285D01*
X134829715Y-123542534D01*
X134877087Y-123613431D01*
X134966623Y-123747431D01*
X135008320Y-123848097D01*
X135060925Y-123975097D01*
X135109000Y-124216787D01*
X135109000Y-124463213D01*
X135060925Y-124704903D01*
X134966622Y-124932571D01*
X134829715Y-125137466D01*
X134655466Y-125311715D01*
X134450571Y-125448622D01*
X134450570Y-125448623D01*
X134450569Y-125448623D01*
X134222903Y-125542925D01*
X133981214Y-125591000D01*
X133734786Y-125591000D01*
X133493097Y-125542925D01*
X133265431Y-125448623D01*
X133265430Y-125448623D01*
X133265429Y-125448622D01*
X133060534Y-125311715D01*
X132886285Y-125137466D01*
X132749378Y-124932571D01*
X132655075Y-124704903D01*
X132607000Y-124463213D01*
X132607000Y-124216787D01*
X132655075Y-123975097D01*
X132707680Y-123848097D01*
X132749377Y-123747431D01*
X132838913Y-123613431D01*
X132886285Y-123542534D01*
X133060534Y-123368285D01*
X133265429Y-123231378D01*
X133493097Y-123137075D01*
X133657481Y-123104377D01*
X133734786Y-123089000D01*
X133981214Y-123089000D01*
X134058519Y-123104377D01*
X134058519Y-123104377D01*
G37*
G36*
X151875903Y-123010075D02*
G01*
X152086672Y-123097378D01*
X152103571Y-123104378D01*
X152308466Y-123241285D01*
X152482715Y-123415534D01*
X152614946Y-123613431D01*
X152619623Y-123620431D01*
X152713925Y-123848097D01*
X152762000Y-124089786D01*
X152762000Y-124336214D01*
X152713925Y-124577903D01*
X152622522Y-124798571D01*
X152619622Y-124805571D01*
X152482715Y-125010466D01*
X152308466Y-125184715D01*
X152103571Y-125321622D01*
X152103570Y-125321623D01*
X152103569Y-125321623D01*
X151875903Y-125415925D01*
X151634214Y-125464000D01*
X151387786Y-125464000D01*
X151146097Y-125415925D01*
X150918431Y-125321623D01*
X150918430Y-125321623D01*
X150918429Y-125321622D01*
X150713534Y-125184715D01*
X150539285Y-125010466D01*
X150402378Y-124805571D01*
X150399479Y-124798571D01*
X150308075Y-124577903D01*
X150260000Y-124336214D01*
X150260000Y-124089786D01*
X150308075Y-123848097D01*
X150402377Y-123620431D01*
X150407054Y-123613431D01*
X150539285Y-123415534D01*
X150713534Y-123241285D01*
X150918429Y-123104378D01*
X150935329Y-123097378D01*
X151146097Y-123010075D01*
X151387786Y-122962000D01*
X151634214Y-122962000D01*
X151875903Y-123010075D01*
X151875903Y-123010075D01*
G37*
G36*
X169020903Y-123003075D02*
G01*
X169248571Y-123097378D01*
X169453466Y-123234285D01*
X169627715Y-123408534D01*
X169764622Y-123613429D01*
X169764623Y-123613431D01*
X169858925Y-123841097D01*
X169907000Y-124082786D01*
X169907000Y-124329214D01*
X169858925Y-124570903D01*
X169803421Y-124704903D01*
X169764622Y-124798571D01*
X169627715Y-125003466D01*
X169453466Y-125177715D01*
X169248571Y-125314622D01*
X169248570Y-125314623D01*
X169248569Y-125314623D01*
X169020903Y-125408925D01*
X168779214Y-125457000D01*
X168532786Y-125457000D01*
X168291097Y-125408925D01*
X168063431Y-125314623D01*
X168063430Y-125314623D01*
X168063429Y-125314622D01*
X167858534Y-125177715D01*
X167684285Y-125003466D01*
X167547378Y-124798571D01*
X167508580Y-124704903D01*
X167453075Y-124570903D01*
X167405000Y-124329214D01*
X167405000Y-124082786D01*
X167453075Y-123841097D01*
X167547377Y-123613431D01*
X167547378Y-123613429D01*
X167684285Y-123408534D01*
X167858534Y-123234285D01*
X168063429Y-123097378D01*
X168291097Y-123003075D01*
X168532786Y-122955000D01*
X168779214Y-122955000D01*
X169020903Y-123003075D01*
X169020903Y-123003075D01*
G37*
G36*
X182274508Y-114315380D02*
G01*
X182441367Y-114348570D01*
X182912899Y-114543885D01*
X183124093Y-114685001D01*
X183337266Y-114827438D01*
X183698162Y-115188334D01*
X183797831Y-115337500D01*
X183981715Y-115612701D01*
X184177030Y-116084233D01*
X184276600Y-116584809D01*
X184276600Y-117095191D01*
X184177030Y-117595767D01*
X183981715Y-118067299D01*
X183819527Y-118310029D01*
X183698162Y-118491666D01*
X183337266Y-118852562D01*
X183155629Y-118973927D01*
X182912899Y-119136115D01*
X182441367Y-119331430D01*
X182274508Y-119364620D01*
X181940793Y-119431000D01*
X181430407Y-119431000D01*
X181096692Y-119364620D01*
X180929833Y-119331430D01*
X180458301Y-119136115D01*
X180215571Y-118973927D01*
X180033934Y-118852562D01*
X179673038Y-118491666D01*
X179551673Y-118310029D01*
X179389485Y-118067299D01*
X179194170Y-117595767D01*
X179094600Y-117095191D01*
X179094600Y-116584809D01*
X179194170Y-116084233D01*
X179389485Y-115612701D01*
X179573369Y-115337500D01*
X179673038Y-115188334D01*
X180033934Y-114827438D01*
X180247107Y-114685001D01*
X180458301Y-114543885D01*
X180929833Y-114348570D01*
X181096692Y-114315380D01*
X181430407Y-114249000D01*
X181940793Y-114249000D01*
X182274508Y-114315380D01*
X182274508Y-114315380D01*
G37*
G36*
X135109000Y-118091000D02*
G01*
X132607000Y-118091000D01*
X132607000Y-115589000D01*
X135109000Y-115589000D01*
X135109000Y-118091000D01*
X135109000Y-118091000D01*
G37*
G36*
X152762000Y-117964000D02*
G01*
X150260000Y-117964000D01*
X150260000Y-115462000D01*
X152762000Y-115462000D01*
X152762000Y-117964000D01*
X152762000Y-117964000D01*
G37*
G36*
X169907000Y-117957000D02*
G01*
X167405000Y-117957000D01*
X167405000Y-115455000D01*
X169907000Y-115455000D01*
X169907000Y-117957000D01*
X169907000Y-117957000D01*
G37*
G36*
X106155499Y-114527945D02*
G01*
X106192995Y-114539320D01*
X106227554Y-114557792D01*
X106257847Y-114582653D01*
X106282708Y-114612946D01*
X106301180Y-114647505D01*
X106312555Y-114685001D01*
X106317000Y-114730138D01*
X106317000Y-115393862D01*
X106312555Y-115438999D01*
X106301180Y-115476495D01*
X106282708Y-115511054D01*
X106257847Y-115541347D01*
X106227554Y-115566208D01*
X106192995Y-115584680D01*
X106155499Y-115596055D01*
X106110362Y-115600500D01*
X105471638Y-115600500D01*
X105426501Y-115596055D01*
X105389005Y-115584680D01*
X105354446Y-115566208D01*
X105324153Y-115541347D01*
X105299292Y-115511054D01*
X105280820Y-115476495D01*
X105269445Y-115438999D01*
X105265000Y-115393862D01*
X105265000Y-114730138D01*
X105269445Y-114685001D01*
X105280820Y-114647505D01*
X105299292Y-114612946D01*
X105324153Y-114582653D01*
X105354446Y-114557792D01*
X105389005Y-114539320D01*
X105426501Y-114527945D01*
X105471638Y-114523500D01*
X106110362Y-114523500D01*
X106155499Y-114527945D01*
X106155499Y-114527945D01*
G37*
G36*
X95724000Y-115448000D02*
G01*
X94522000Y-115448000D01*
X94522000Y-110746000D01*
X95724000Y-110746000D01*
X95724000Y-115448000D01*
X95724000Y-115448000D01*
G37*
G36*
X100804000Y-115448000D02*
G01*
X99602000Y-115448000D01*
X99602000Y-110746000D01*
X100804000Y-110746000D01*
X100804000Y-115448000D01*
X100804000Y-115448000D01*
G37*
G36*
X98264000Y-115448000D02*
G01*
X97062000Y-115448000D01*
X97062000Y-110746000D01*
X98264000Y-110746000D01*
X98264000Y-115448000D01*
X98264000Y-115448000D01*
G37*
G36*
X83278000Y-115448000D02*
G01*
X82076000Y-115448000D01*
X82076000Y-110746000D01*
X83278000Y-110746000D01*
X83278000Y-115448000D01*
X83278000Y-115448000D01*
G37*
G36*
X85818000Y-115448000D02*
G01*
X84616000Y-115448000D01*
X84616000Y-110746000D01*
X85818000Y-110746000D01*
X85818000Y-115448000D01*
X85818000Y-115448000D01*
G37*
G36*
X88358000Y-115448000D02*
G01*
X87156000Y-115448000D01*
X87156000Y-110746000D01*
X88358000Y-110746000D01*
X88358000Y-115448000D01*
X88358000Y-115448000D01*
G37*
G36*
X106155499Y-112702945D02*
G01*
X106192995Y-112714320D01*
X106227554Y-112732792D01*
X106257847Y-112757653D01*
X106282708Y-112787946D01*
X106301180Y-112822505D01*
X106312555Y-112860001D01*
X106317000Y-112905138D01*
X106317000Y-113568862D01*
X106312555Y-113613999D01*
X106301180Y-113651495D01*
X106282708Y-113686054D01*
X106257847Y-113716347D01*
X106227554Y-113741208D01*
X106192995Y-113759680D01*
X106155499Y-113771055D01*
X106110362Y-113775500D01*
X105471638Y-113775500D01*
X105426501Y-113771055D01*
X105389005Y-113759680D01*
X105354446Y-113741208D01*
X105324153Y-113716347D01*
X105299292Y-113686054D01*
X105280820Y-113651495D01*
X105269445Y-113613999D01*
X105265000Y-113568862D01*
X105265000Y-112905138D01*
X105269445Y-112860001D01*
X105280820Y-112822505D01*
X105299292Y-112787946D01*
X105324153Y-112757653D01*
X105354446Y-112732792D01*
X105389005Y-112714320D01*
X105426501Y-112702945D01*
X105471638Y-112698500D01*
X106110362Y-112698500D01*
X106155499Y-112702945D01*
X106155499Y-112702945D01*
G37*
G36*
X163396402Y-109836351D02*
G01*
X163428101Y-109845967D01*
X163457310Y-109861580D01*
X163482911Y-109882589D01*
X163503920Y-109908190D01*
X163519533Y-109937399D01*
X163529149Y-109969098D01*
X163533000Y-110008197D01*
X163533000Y-111733803D01*
X163529149Y-111772902D01*
X163519533Y-111804601D01*
X163503920Y-111833810D01*
X163482911Y-111859411D01*
X163457310Y-111880420D01*
X163428101Y-111896033D01*
X163396402Y-111905649D01*
X163357303Y-111909500D01*
X158206697Y-111909500D01*
X158167598Y-111905649D01*
X158135899Y-111896033D01*
X158106690Y-111880420D01*
X158081089Y-111859411D01*
X158060080Y-111833810D01*
X158044467Y-111804601D01*
X158034851Y-111772902D01*
X158031000Y-111733803D01*
X158031000Y-110008197D01*
X158034851Y-109969098D01*
X158044467Y-109937399D01*
X158060080Y-109908190D01*
X158081089Y-109882589D01*
X158106690Y-109861580D01*
X158135899Y-109845967D01*
X158167598Y-109836351D01*
X158206697Y-109832500D01*
X163357303Y-109832500D01*
X163396402Y-109836351D01*
X163396402Y-109836351D01*
G37*
G36*
X185240402Y-109806851D02*
G01*
X185272101Y-109816467D01*
X185301310Y-109832080D01*
X185326911Y-109853089D01*
X185347920Y-109878690D01*
X185363533Y-109907899D01*
X185373149Y-109939598D01*
X185377000Y-109978697D01*
X185377000Y-111704303D01*
X185373149Y-111743402D01*
X185363533Y-111775101D01*
X185347920Y-111804310D01*
X185326911Y-111829911D01*
X185301310Y-111850920D01*
X185272101Y-111866533D01*
X185240402Y-111876149D01*
X185201303Y-111880000D01*
X180050697Y-111880000D01*
X180011598Y-111876149D01*
X179979899Y-111866533D01*
X179950690Y-111850920D01*
X179925089Y-111829911D01*
X179904080Y-111804310D01*
X179888467Y-111775101D01*
X179878851Y-111743402D01*
X179875000Y-111704303D01*
X179875000Y-109978697D01*
X179878851Y-109939598D01*
X179888467Y-109907899D01*
X179904080Y-109878690D01*
X179925089Y-109853089D01*
X179950690Y-109832080D01*
X179979899Y-109816467D01*
X180011598Y-109806851D01*
X180050697Y-109803000D01*
X185201303Y-109803000D01*
X185240402Y-109806851D01*
X185240402Y-109806851D01*
G37*
G36*
X106155499Y-110717945D02*
G01*
X106192995Y-110729320D01*
X106227554Y-110747792D01*
X106257847Y-110772653D01*
X106282708Y-110802946D01*
X106301180Y-110837505D01*
X106312555Y-110875001D01*
X106317000Y-110920138D01*
X106317000Y-111583862D01*
X106312555Y-111628999D01*
X106301180Y-111666495D01*
X106282708Y-111701054D01*
X106257847Y-111731347D01*
X106227554Y-111756208D01*
X106192995Y-111774680D01*
X106155499Y-111786055D01*
X106110362Y-111790500D01*
X105471638Y-111790500D01*
X105426501Y-111786055D01*
X105389005Y-111774680D01*
X105354446Y-111756208D01*
X105324153Y-111731347D01*
X105299292Y-111701054D01*
X105280820Y-111666495D01*
X105269445Y-111628999D01*
X105265000Y-111583862D01*
X105265000Y-110920138D01*
X105269445Y-110875001D01*
X105280820Y-110837505D01*
X105299292Y-110802946D01*
X105324153Y-110772653D01*
X105354446Y-110747792D01*
X105389005Y-110729320D01*
X105426501Y-110717945D01*
X105471638Y-110713500D01*
X106110362Y-110713500D01*
X106155499Y-110717945D01*
X106155499Y-110717945D01*
G37*
G36*
X132056811Y-110034771D02*
G01*
X132092603Y-110045629D01*
X132125595Y-110063263D01*
X132154508Y-110086992D01*
X132178237Y-110115905D01*
X132195871Y-110148897D01*
X132206729Y-110184689D01*
X132211000Y-110228055D01*
X132211000Y-111259945D01*
X132206729Y-111303311D01*
X132195871Y-111339103D01*
X132178237Y-111372095D01*
X132154508Y-111401008D01*
X132125595Y-111424737D01*
X132092603Y-111442371D01*
X132056811Y-111453229D01*
X132013445Y-111457500D01*
X129606555Y-111457500D01*
X129563189Y-111453229D01*
X129527397Y-111442371D01*
X129494405Y-111424737D01*
X129465492Y-111401008D01*
X129441763Y-111372095D01*
X129424129Y-111339103D01*
X129413271Y-111303311D01*
X129409000Y-111259945D01*
X129409000Y-110228055D01*
X129413271Y-110184689D01*
X129424129Y-110148897D01*
X129441763Y-110115905D01*
X129465492Y-110086992D01*
X129494405Y-110063263D01*
X129527397Y-110045629D01*
X129563189Y-110034771D01*
X129606555Y-110030500D01*
X132013445Y-110030500D01*
X132056811Y-110034771D01*
X132056811Y-110034771D01*
G37*
G36*
X136628811Y-110034771D02*
G01*
X136664603Y-110045629D01*
X136697595Y-110063263D01*
X136726508Y-110086992D01*
X136750237Y-110115905D01*
X136767871Y-110148897D01*
X136778729Y-110184689D01*
X136783000Y-110228055D01*
X136783000Y-111259945D01*
X136778729Y-111303311D01*
X136767871Y-111339103D01*
X136750237Y-111372095D01*
X136726508Y-111401008D01*
X136697595Y-111424737D01*
X136664603Y-111442371D01*
X136628811Y-111453229D01*
X136585445Y-111457500D01*
X134178555Y-111457500D01*
X134135189Y-111453229D01*
X134099397Y-111442371D01*
X134066405Y-111424737D01*
X134037492Y-111401008D01*
X134013763Y-111372095D01*
X133996129Y-111339103D01*
X133985271Y-111303311D01*
X133981000Y-111259945D01*
X133981000Y-110228055D01*
X133985271Y-110184689D01*
X133996129Y-110148897D01*
X134013763Y-110115905D01*
X134037492Y-110086992D01*
X134066405Y-110063263D01*
X134099397Y-110045629D01*
X134135189Y-110034771D01*
X134178555Y-110030500D01*
X136585445Y-110030500D01*
X136628811Y-110034771D01*
X136628811Y-110034771D01*
G37*
G36*
X141454811Y-110034771D02*
G01*
X141490603Y-110045629D01*
X141523595Y-110063263D01*
X141552508Y-110086992D01*
X141576237Y-110115905D01*
X141593871Y-110148897D01*
X141604729Y-110184689D01*
X141609000Y-110228055D01*
X141609000Y-111259945D01*
X141604729Y-111303311D01*
X141593871Y-111339103D01*
X141576237Y-111372095D01*
X141552508Y-111401008D01*
X141523595Y-111424737D01*
X141490603Y-111442371D01*
X141454811Y-111453229D01*
X141411445Y-111457500D01*
X139004555Y-111457500D01*
X138961189Y-111453229D01*
X138925397Y-111442371D01*
X138892405Y-111424737D01*
X138863492Y-111401008D01*
X138839763Y-111372095D01*
X138822129Y-111339103D01*
X138811271Y-111303311D01*
X138807000Y-111259945D01*
X138807000Y-110228055D01*
X138811271Y-110184689D01*
X138822129Y-110148897D01*
X138839763Y-110115905D01*
X138863492Y-110086992D01*
X138892405Y-110063263D01*
X138925397Y-110045629D01*
X138961189Y-110034771D01*
X139004555Y-110030500D01*
X141411445Y-110030500D01*
X141454811Y-110034771D01*
X141454811Y-110034771D01*
G37*
G36*
X146153811Y-109946271D02*
G01*
X146189603Y-109957129D01*
X146222595Y-109974763D01*
X146251508Y-109998492D01*
X146275237Y-110027405D01*
X146292871Y-110060397D01*
X146303729Y-110096189D01*
X146308000Y-110139555D01*
X146308000Y-111171445D01*
X146303729Y-111214811D01*
X146292871Y-111250603D01*
X146275237Y-111283595D01*
X146251508Y-111312508D01*
X146222595Y-111336237D01*
X146189603Y-111353871D01*
X146153811Y-111364729D01*
X146110445Y-111369000D01*
X143703555Y-111369000D01*
X143660189Y-111364729D01*
X143624397Y-111353871D01*
X143591405Y-111336237D01*
X143562492Y-111312508D01*
X143538763Y-111283595D01*
X143521129Y-111250603D01*
X143510271Y-111214811D01*
X143506000Y-111171445D01*
X143506000Y-110139555D01*
X143510271Y-110096189D01*
X143521129Y-110060397D01*
X143538763Y-110027405D01*
X143562492Y-109998492D01*
X143591405Y-109974763D01*
X143624397Y-109957129D01*
X143660189Y-109946271D01*
X143703555Y-109942000D01*
X146110445Y-109942000D01*
X146153811Y-109946271D01*
X146153811Y-109946271D01*
G37*
G36*
X150852811Y-109907771D02*
G01*
X150888603Y-109918629D01*
X150921595Y-109936263D01*
X150950508Y-109959992D01*
X150974237Y-109988905D01*
X150991871Y-110021897D01*
X151002729Y-110057689D01*
X151007000Y-110101055D01*
X151007000Y-111132945D01*
X151002729Y-111176311D01*
X150991871Y-111212103D01*
X150974237Y-111245095D01*
X150950508Y-111274008D01*
X150921595Y-111297737D01*
X150888603Y-111315371D01*
X150852811Y-111326229D01*
X150809445Y-111330500D01*
X148402555Y-111330500D01*
X148359189Y-111326229D01*
X148323397Y-111315371D01*
X148290405Y-111297737D01*
X148261492Y-111274008D01*
X148237763Y-111245095D01*
X148220129Y-111212103D01*
X148209271Y-111176311D01*
X148205000Y-111132945D01*
X148205000Y-110101055D01*
X148209271Y-110057689D01*
X148220129Y-110021897D01*
X148237763Y-109988905D01*
X148261492Y-109959992D01*
X148290405Y-109936263D01*
X148323397Y-109918629D01*
X148359189Y-109907771D01*
X148402555Y-109903500D01*
X150809445Y-109903500D01*
X150852811Y-109907771D01*
X150852811Y-109907771D01*
G37*
G36*
X177776811Y-109819271D02*
G01*
X177812603Y-109830129D01*
X177845595Y-109847763D01*
X177874508Y-109871492D01*
X177898237Y-109900405D01*
X177915871Y-109933397D01*
X177926729Y-109969189D01*
X177931000Y-110012555D01*
X177931000Y-111044445D01*
X177926729Y-111087811D01*
X177915871Y-111123603D01*
X177898237Y-111156595D01*
X177874508Y-111185508D01*
X177845595Y-111209237D01*
X177812603Y-111226871D01*
X177776811Y-111237729D01*
X177733445Y-111242000D01*
X175326555Y-111242000D01*
X175283189Y-111237729D01*
X175247397Y-111226871D01*
X175214405Y-111209237D01*
X175185492Y-111185508D01*
X175161763Y-111156595D01*
X175144129Y-111123603D01*
X175133271Y-111087811D01*
X175129000Y-111044445D01*
X175129000Y-110012555D01*
X175133271Y-109969189D01*
X175144129Y-109933397D01*
X175161763Y-109900405D01*
X175185492Y-109871492D01*
X175214405Y-109847763D01*
X175247397Y-109830129D01*
X175283189Y-109819271D01*
X175326555Y-109815000D01*
X177733445Y-109815000D01*
X177776811Y-109819271D01*
X177776811Y-109819271D01*
G37*
G36*
X168886811Y-109780771D02*
G01*
X168922603Y-109791629D01*
X168955595Y-109809263D01*
X168984508Y-109832992D01*
X169008237Y-109861905D01*
X169025871Y-109894897D01*
X169036729Y-109930689D01*
X169041000Y-109974055D01*
X169041000Y-111005945D01*
X169036729Y-111049311D01*
X169025871Y-111085103D01*
X169008237Y-111118095D01*
X168984508Y-111147008D01*
X168955595Y-111170737D01*
X168922603Y-111188371D01*
X168886811Y-111199229D01*
X168843445Y-111203500D01*
X166436555Y-111203500D01*
X166393189Y-111199229D01*
X166357397Y-111188371D01*
X166324405Y-111170737D01*
X166295492Y-111147008D01*
X166271763Y-111118095D01*
X166254129Y-111085103D01*
X166243271Y-111049311D01*
X166239000Y-111005945D01*
X166239000Y-109974055D01*
X166243271Y-109930689D01*
X166254129Y-109894897D01*
X166271763Y-109861905D01*
X166295492Y-109832992D01*
X166324405Y-109809263D01*
X166357397Y-109791629D01*
X166393189Y-109780771D01*
X166436555Y-109776500D01*
X168843445Y-109776500D01*
X168886811Y-109780771D01*
X168886811Y-109780771D01*
G37*
G36*
X155304499Y-109748945D02*
G01*
X155341995Y-109760320D01*
X155376554Y-109778792D01*
X155406847Y-109803653D01*
X155431708Y-109833946D01*
X155450180Y-109868505D01*
X155461555Y-109906001D01*
X155466000Y-109951138D01*
X155466000Y-110614862D01*
X155461555Y-110659999D01*
X155450180Y-110697495D01*
X155431708Y-110732054D01*
X155406847Y-110762347D01*
X155376554Y-110787208D01*
X155341995Y-110805680D01*
X155304499Y-110817055D01*
X155259362Y-110821500D01*
X154620638Y-110821500D01*
X154575501Y-110817055D01*
X154538005Y-110805680D01*
X154503446Y-110787208D01*
X154473153Y-110762347D01*
X154448292Y-110732054D01*
X154429820Y-110697495D01*
X154418445Y-110659999D01*
X154414000Y-110614862D01*
X154414000Y-109951138D01*
X154418445Y-109906001D01*
X154429820Y-109868505D01*
X154448292Y-109833946D01*
X154473153Y-109803653D01*
X154503446Y-109778792D01*
X154538005Y-109760320D01*
X154575501Y-109748945D01*
X154620638Y-109744500D01*
X155259362Y-109744500D01*
X155304499Y-109748945D01*
X155304499Y-109748945D01*
G37*
G36*
X106155499Y-108892945D02*
G01*
X106192995Y-108904320D01*
X106227554Y-108922792D01*
X106257847Y-108947653D01*
X106282708Y-108977946D01*
X106301180Y-109012505D01*
X106312555Y-109050001D01*
X106317000Y-109095138D01*
X106317000Y-109758862D01*
X106312555Y-109803999D01*
X106301180Y-109841495D01*
X106282708Y-109876054D01*
X106257847Y-109906347D01*
X106227554Y-109931208D01*
X106192995Y-109949680D01*
X106155499Y-109961055D01*
X106110362Y-109965500D01*
X105471638Y-109965500D01*
X105426501Y-109961055D01*
X105389005Y-109949680D01*
X105354446Y-109931208D01*
X105324153Y-109906347D01*
X105299292Y-109876054D01*
X105280820Y-109841495D01*
X105269445Y-109803999D01*
X105265000Y-109758862D01*
X105265000Y-109095138D01*
X105269445Y-109050001D01*
X105280820Y-109012505D01*
X105299292Y-108977946D01*
X105324153Y-108947653D01*
X105354446Y-108922792D01*
X105389005Y-108904320D01*
X105426501Y-108892945D01*
X105471638Y-108888500D01*
X106110362Y-108888500D01*
X106155499Y-108892945D01*
X106155499Y-108892945D01*
G37*
G36*
X88121499Y-108709445D02*
G01*
X88158995Y-108720820D01*
X88193554Y-108739292D01*
X88223847Y-108764153D01*
X88248708Y-108794446D01*
X88267180Y-108829005D01*
X88278555Y-108866501D01*
X88283000Y-108911638D01*
X88283000Y-109575362D01*
X88278555Y-109620499D01*
X88267180Y-109657995D01*
X88248708Y-109692554D01*
X88223847Y-109722847D01*
X88193554Y-109747708D01*
X88158995Y-109766180D01*
X88121499Y-109777555D01*
X88076362Y-109782000D01*
X87437638Y-109782000D01*
X87392501Y-109777555D01*
X87355005Y-109766180D01*
X87320446Y-109747708D01*
X87290153Y-109722847D01*
X87265292Y-109692554D01*
X87246820Y-109657995D01*
X87235445Y-109620499D01*
X87231000Y-109575362D01*
X87231000Y-108911638D01*
X87235445Y-108866501D01*
X87246820Y-108829005D01*
X87265292Y-108794446D01*
X87290153Y-108764153D01*
X87320446Y-108739292D01*
X87355005Y-108720820D01*
X87392501Y-108709445D01*
X87437638Y-108705000D01*
X88076362Y-108705000D01*
X88121499Y-108709445D01*
X88121499Y-108709445D01*
G37*
G36*
X102404999Y-108698445D02*
G01*
X102442495Y-108709820D01*
X102477054Y-108728292D01*
X102507347Y-108753153D01*
X102532208Y-108783446D01*
X102550680Y-108818005D01*
X102562055Y-108855501D01*
X102566500Y-108900638D01*
X102566500Y-109539362D01*
X102562055Y-109584499D01*
X102550680Y-109621995D01*
X102532208Y-109656554D01*
X102507347Y-109686847D01*
X102477054Y-109711708D01*
X102442495Y-109730180D01*
X102404999Y-109741555D01*
X102359862Y-109746000D01*
X101696138Y-109746000D01*
X101651001Y-109741555D01*
X101613505Y-109730180D01*
X101578946Y-109711708D01*
X101548653Y-109686847D01*
X101523792Y-109656554D01*
X101505320Y-109621995D01*
X101493945Y-109584499D01*
X101489500Y-109539362D01*
X101489500Y-108900638D01*
X101493945Y-108855501D01*
X101505320Y-108818005D01*
X101523792Y-108783446D01*
X101548653Y-108753153D01*
X101578946Y-108728292D01*
X101613505Y-108709820D01*
X101651001Y-108698445D01*
X101696138Y-108694000D01*
X102359862Y-108694000D01*
X102404999Y-108698445D01*
X102404999Y-108698445D01*
G37*
G36*
X100579999Y-108698445D02*
G01*
X100617495Y-108709820D01*
X100652054Y-108728292D01*
X100682347Y-108753153D01*
X100707208Y-108783446D01*
X100725680Y-108818005D01*
X100737055Y-108855501D01*
X100741500Y-108900638D01*
X100741500Y-109539362D01*
X100737055Y-109584499D01*
X100725680Y-109621995D01*
X100707208Y-109656554D01*
X100682347Y-109686847D01*
X100652054Y-109711708D01*
X100617495Y-109730180D01*
X100579999Y-109741555D01*
X100534862Y-109746000D01*
X99871138Y-109746000D01*
X99826001Y-109741555D01*
X99788505Y-109730180D01*
X99753946Y-109711708D01*
X99723653Y-109686847D01*
X99698792Y-109656554D01*
X99680320Y-109621995D01*
X99668945Y-109584499D01*
X99664500Y-109539362D01*
X99664500Y-108900638D01*
X99668945Y-108855501D01*
X99680320Y-108818005D01*
X99698792Y-108783446D01*
X99723653Y-108753153D01*
X99753946Y-108728292D01*
X99788505Y-108709820D01*
X99826001Y-108698445D01*
X99871138Y-108694000D01*
X100534862Y-108694000D01*
X100579999Y-108698445D01*
X100579999Y-108698445D01*
G37*
G36*
X83239791Y-104277185D02*
G01*
X83432767Y-104315570D01*
X83904299Y-104510885D01*
X84131055Y-104662399D01*
X84328666Y-104794438D01*
X84689562Y-105155334D01*
X84810927Y-105336971D01*
X84973115Y-105579701D01*
X85168430Y-106051233D01*
X85187609Y-106147654D01*
X85268000Y-106551807D01*
X85268000Y-107062193D01*
X85245612Y-107174744D01*
X85168430Y-107562767D01*
X84973115Y-108034299D01*
X84832997Y-108244000D01*
X84689562Y-108458666D01*
X84328666Y-108819562D01*
X84159158Y-108932823D01*
X83904299Y-109103115D01*
X83432767Y-109298430D01*
X83265908Y-109331620D01*
X82932193Y-109398000D01*
X82421807Y-109398000D01*
X82088092Y-109331620D01*
X81921233Y-109298430D01*
X81449701Y-109103115D01*
X81194842Y-108932823D01*
X81025334Y-108819562D01*
X80664438Y-108458666D01*
X80521003Y-108244000D01*
X80380885Y-108034299D01*
X80185570Y-107562767D01*
X80108388Y-107174744D01*
X80086000Y-107062193D01*
X80086000Y-106551807D01*
X80166391Y-106147654D01*
X80185570Y-106051233D01*
X80380885Y-105579701D01*
X80543073Y-105336971D01*
X80664438Y-105155334D01*
X81025334Y-104794438D01*
X81222945Y-104662399D01*
X81449701Y-104510885D01*
X81921233Y-104315570D01*
X82114209Y-104277185D01*
X82421807Y-104216000D01*
X82932193Y-104216000D01*
X83239791Y-104277185D01*
X83239791Y-104277185D01*
G37*
G36*
X155304499Y-107923945D02*
G01*
X155341995Y-107935320D01*
X155376554Y-107953792D01*
X155406847Y-107978653D01*
X155431708Y-108008946D01*
X155450180Y-108043505D01*
X155461555Y-108081001D01*
X155466000Y-108126138D01*
X155466000Y-108789862D01*
X155461555Y-108834999D01*
X155450180Y-108872495D01*
X155431708Y-108907054D01*
X155406847Y-108937347D01*
X155376554Y-108962208D01*
X155341995Y-108980680D01*
X155304499Y-108992055D01*
X155259362Y-108996500D01*
X154620638Y-108996500D01*
X154575501Y-108992055D01*
X154538005Y-108980680D01*
X154503446Y-108962208D01*
X154473153Y-108937347D01*
X154448292Y-108907054D01*
X154429820Y-108872495D01*
X154418445Y-108834999D01*
X154414000Y-108789862D01*
X154414000Y-108126138D01*
X154418445Y-108081001D01*
X154429820Y-108043505D01*
X154448292Y-108008946D01*
X154473153Y-107978653D01*
X154503446Y-107953792D01*
X154538005Y-107935320D01*
X154575501Y-107923945D01*
X154620638Y-107919500D01*
X155259362Y-107919500D01*
X155304499Y-107923945D01*
X155304499Y-107923945D01*
G37*
G36*
X141454811Y-106909771D02*
G01*
X141490603Y-106920629D01*
X141523595Y-106938263D01*
X141552508Y-106961992D01*
X141576237Y-106990905D01*
X141593871Y-107023897D01*
X141604729Y-107059689D01*
X141609000Y-107103055D01*
X141609000Y-108134945D01*
X141604729Y-108178311D01*
X141593871Y-108214103D01*
X141576237Y-108247095D01*
X141552508Y-108276008D01*
X141523595Y-108299737D01*
X141490603Y-108317371D01*
X141454811Y-108328229D01*
X141411445Y-108332500D01*
X139004555Y-108332500D01*
X138961189Y-108328229D01*
X138925397Y-108317371D01*
X138892405Y-108299737D01*
X138863492Y-108276008D01*
X138839763Y-108247095D01*
X138822129Y-108214103D01*
X138811271Y-108178311D01*
X138807000Y-108134945D01*
X138807000Y-107103055D01*
X138811271Y-107059689D01*
X138822129Y-107023897D01*
X138839763Y-106990905D01*
X138863492Y-106961992D01*
X138892405Y-106938263D01*
X138925397Y-106920629D01*
X138961189Y-106909771D01*
X139004555Y-106905500D01*
X141411445Y-106905500D01*
X141454811Y-106909771D01*
X141454811Y-106909771D01*
G37*
G36*
X136628811Y-106909771D02*
G01*
X136664603Y-106920629D01*
X136697595Y-106938263D01*
X136726508Y-106961992D01*
X136750237Y-106990905D01*
X136767871Y-107023897D01*
X136778729Y-107059689D01*
X136783000Y-107103055D01*
X136783000Y-108134945D01*
X136778729Y-108178311D01*
X136767871Y-108214103D01*
X136750237Y-108247095D01*
X136726508Y-108276008D01*
X136697595Y-108299737D01*
X136664603Y-108317371D01*
X136628811Y-108328229D01*
X136585445Y-108332500D01*
X134178555Y-108332500D01*
X134135189Y-108328229D01*
X134099397Y-108317371D01*
X134066405Y-108299737D01*
X134037492Y-108276008D01*
X134013763Y-108247095D01*
X133996129Y-108214103D01*
X133985271Y-108178311D01*
X133981000Y-108134945D01*
X133981000Y-107103055D01*
X133985271Y-107059689D01*
X133996129Y-107023897D01*
X134013763Y-106990905D01*
X134037492Y-106961992D01*
X134066405Y-106938263D01*
X134099397Y-106920629D01*
X134135189Y-106909771D01*
X134178555Y-106905500D01*
X136585445Y-106905500D01*
X136628811Y-106909771D01*
X136628811Y-106909771D01*
G37*
G36*
X132056811Y-106909771D02*
G01*
X132092603Y-106920629D01*
X132125595Y-106938263D01*
X132154508Y-106961992D01*
X132178237Y-106990905D01*
X132195871Y-107023897D01*
X132206729Y-107059689D01*
X132211000Y-107103055D01*
X132211000Y-108134945D01*
X132206729Y-108178311D01*
X132195871Y-108214103D01*
X132178237Y-108247095D01*
X132154508Y-108276008D01*
X132125595Y-108299737D01*
X132092603Y-108317371D01*
X132056811Y-108328229D01*
X132013445Y-108332500D01*
X129606555Y-108332500D01*
X129563189Y-108328229D01*
X129527397Y-108317371D01*
X129494405Y-108299737D01*
X129465492Y-108276008D01*
X129441763Y-108247095D01*
X129424129Y-108214103D01*
X129413271Y-108178311D01*
X129409000Y-108134945D01*
X129409000Y-107103055D01*
X129413271Y-107059689D01*
X129424129Y-107023897D01*
X129441763Y-106990905D01*
X129465492Y-106961992D01*
X129494405Y-106938263D01*
X129527397Y-106920629D01*
X129563189Y-106909771D01*
X129606555Y-106905500D01*
X132013445Y-106905500D01*
X132056811Y-106909771D01*
X132056811Y-106909771D01*
G37*
G36*
X146153811Y-106821271D02*
G01*
X146189603Y-106832129D01*
X146222595Y-106849763D01*
X146251508Y-106873492D01*
X146275237Y-106902405D01*
X146292871Y-106935397D01*
X146303729Y-106971189D01*
X146308000Y-107014555D01*
X146308000Y-108046445D01*
X146303729Y-108089811D01*
X146292871Y-108125603D01*
X146275237Y-108158595D01*
X146251508Y-108187508D01*
X146222595Y-108211237D01*
X146189603Y-108228871D01*
X146153811Y-108239729D01*
X146110445Y-108244000D01*
X143703555Y-108244000D01*
X143660189Y-108239729D01*
X143624397Y-108228871D01*
X143591405Y-108211237D01*
X143562492Y-108187508D01*
X143538763Y-108158595D01*
X143521129Y-108125603D01*
X143510271Y-108089811D01*
X143506000Y-108046445D01*
X143506000Y-107014555D01*
X143510271Y-106971189D01*
X143521129Y-106935397D01*
X143538763Y-106902405D01*
X143562492Y-106873492D01*
X143591405Y-106849763D01*
X143624397Y-106832129D01*
X143660189Y-106821271D01*
X143703555Y-106817000D01*
X146110445Y-106817000D01*
X146153811Y-106821271D01*
X146153811Y-106821271D01*
G37*
G36*
X150852811Y-106782771D02*
G01*
X150888603Y-106793629D01*
X150921595Y-106811263D01*
X150950508Y-106834992D01*
X150974237Y-106863905D01*
X150991871Y-106896897D01*
X151002729Y-106932689D01*
X151007000Y-106976055D01*
X151007000Y-108007945D01*
X151002729Y-108051311D01*
X150991871Y-108087103D01*
X150974237Y-108120095D01*
X150950508Y-108149008D01*
X150921595Y-108172737D01*
X150888603Y-108190371D01*
X150852811Y-108201229D01*
X150809445Y-108205500D01*
X148402555Y-108205500D01*
X148359189Y-108201229D01*
X148323397Y-108190371D01*
X148290405Y-108172737D01*
X148261492Y-108149008D01*
X148237763Y-108120095D01*
X148220129Y-108087103D01*
X148209271Y-108051311D01*
X148205000Y-108007945D01*
X148205000Y-106976055D01*
X148209271Y-106932689D01*
X148220129Y-106896897D01*
X148237763Y-106863905D01*
X148261492Y-106834992D01*
X148290405Y-106811263D01*
X148323397Y-106793629D01*
X148359189Y-106782771D01*
X148402555Y-106778500D01*
X150809445Y-106778500D01*
X150852811Y-106782771D01*
X150852811Y-106782771D01*
G37*
G36*
X177776811Y-106694271D02*
G01*
X177812603Y-106705129D01*
X177845595Y-106722763D01*
X177874508Y-106746492D01*
X177898237Y-106775405D01*
X177915871Y-106808397D01*
X177926729Y-106844189D01*
X177931000Y-106887555D01*
X177931000Y-107919445D01*
X177926729Y-107962811D01*
X177915871Y-107998603D01*
X177898237Y-108031595D01*
X177874508Y-108060508D01*
X177845595Y-108084237D01*
X177812603Y-108101871D01*
X177776811Y-108112729D01*
X177733445Y-108117000D01*
X175326555Y-108117000D01*
X175283189Y-108112729D01*
X175247397Y-108101871D01*
X175214405Y-108084237D01*
X175185492Y-108060508D01*
X175161763Y-108031595D01*
X175144129Y-107998603D01*
X175133271Y-107962811D01*
X175129000Y-107919445D01*
X175129000Y-106887555D01*
X175133271Y-106844189D01*
X175144129Y-106808397D01*
X175161763Y-106775405D01*
X175185492Y-106746492D01*
X175214405Y-106722763D01*
X175247397Y-106705129D01*
X175283189Y-106694271D01*
X175326555Y-106690000D01*
X177733445Y-106690000D01*
X177776811Y-106694271D01*
X177776811Y-106694271D01*
G37*
G36*
X168886811Y-106655771D02*
G01*
X168922603Y-106666629D01*
X168955595Y-106684263D01*
X168984508Y-106707992D01*
X169008237Y-106736905D01*
X169025871Y-106769897D01*
X169036729Y-106805689D01*
X169041000Y-106849055D01*
X169041000Y-107880945D01*
X169036729Y-107924311D01*
X169025871Y-107960103D01*
X169008237Y-107993095D01*
X168984508Y-108022008D01*
X168955595Y-108045737D01*
X168922603Y-108063371D01*
X168886811Y-108074229D01*
X168843445Y-108078500D01*
X166436555Y-108078500D01*
X166393189Y-108074229D01*
X166357397Y-108063371D01*
X166324405Y-108045737D01*
X166295492Y-108022008D01*
X166271763Y-107993095D01*
X166254129Y-107960103D01*
X166243271Y-107924311D01*
X166239000Y-107880945D01*
X166239000Y-106849055D01*
X166243271Y-106805689D01*
X166254129Y-106769897D01*
X166271763Y-106736905D01*
X166295492Y-106707992D01*
X166324405Y-106684263D01*
X166357397Y-106666629D01*
X166393189Y-106655771D01*
X166436555Y-106651500D01*
X168843445Y-106651500D01*
X168886811Y-106655771D01*
X168886811Y-106655771D01*
G37*
G36*
X88121499Y-106884445D02*
G01*
X88158995Y-106895820D01*
X88193554Y-106914292D01*
X88223847Y-106939153D01*
X88248708Y-106969446D01*
X88267180Y-107004005D01*
X88278555Y-107041501D01*
X88283000Y-107086638D01*
X88283000Y-107750362D01*
X88278555Y-107795499D01*
X88267180Y-107832995D01*
X88248708Y-107867554D01*
X88223847Y-107897847D01*
X88193554Y-107922708D01*
X88158995Y-107941180D01*
X88121499Y-107952555D01*
X88076362Y-107957000D01*
X87437638Y-107957000D01*
X87392501Y-107952555D01*
X87355005Y-107941180D01*
X87320446Y-107922708D01*
X87290153Y-107897847D01*
X87265292Y-107867554D01*
X87246820Y-107832995D01*
X87235445Y-107795499D01*
X87231000Y-107750362D01*
X87231000Y-107086638D01*
X87235445Y-107041501D01*
X87246820Y-107004005D01*
X87265292Y-106969446D01*
X87290153Y-106939153D01*
X87320446Y-106914292D01*
X87355005Y-106895820D01*
X87392501Y-106884445D01*
X87437638Y-106880000D01*
X88076362Y-106880000D01*
X88121499Y-106884445D01*
X88121499Y-106884445D01*
G37*
G36*
X120150899Y-105989745D02*
G01*
X120188395Y-106001120D01*
X120222954Y-106019592D01*
X120253247Y-106044453D01*
X120278108Y-106074746D01*
X120296580Y-106109305D01*
X120307955Y-106146801D01*
X120312400Y-106191938D01*
X120312400Y-106855662D01*
X120307955Y-106900799D01*
X120296580Y-106938295D01*
X120278108Y-106972854D01*
X120253247Y-107003147D01*
X120222954Y-107028008D01*
X120188395Y-107046480D01*
X120150899Y-107057855D01*
X120105762Y-107062300D01*
X119467038Y-107062300D01*
X119421901Y-107057855D01*
X119384405Y-107046480D01*
X119349846Y-107028008D01*
X119319553Y-107003147D01*
X119294692Y-106972854D01*
X119276220Y-106938295D01*
X119264845Y-106900799D01*
X119260400Y-106855662D01*
X119260400Y-106191938D01*
X119264845Y-106146801D01*
X119276220Y-106109305D01*
X119294692Y-106074746D01*
X119319553Y-106044453D01*
X119349846Y-106019592D01*
X119384405Y-106001120D01*
X119421901Y-105989745D01*
X119467038Y-105985300D01*
X120105762Y-105985300D01*
X120150899Y-105989745D01*
X120150899Y-105989745D01*
G37*
G36*
X163396402Y-104561351D02*
G01*
X163428101Y-104570967D01*
X163457310Y-104586580D01*
X163482911Y-104607589D01*
X163503920Y-104633190D01*
X163519533Y-104662399D01*
X163529149Y-104694098D01*
X163533000Y-104733197D01*
X163533000Y-106458803D01*
X163529149Y-106497902D01*
X163519533Y-106529601D01*
X163503920Y-106558810D01*
X163482911Y-106584411D01*
X163457310Y-106605420D01*
X163428101Y-106621033D01*
X163396402Y-106630649D01*
X163357303Y-106634500D01*
X158206697Y-106634500D01*
X158167598Y-106630649D01*
X158135899Y-106621033D01*
X158106690Y-106605420D01*
X158081089Y-106584411D01*
X158060080Y-106558810D01*
X158044467Y-106529601D01*
X158034851Y-106497902D01*
X158031000Y-106458803D01*
X158031000Y-104733197D01*
X158034851Y-104694098D01*
X158044467Y-104662399D01*
X158060080Y-104633190D01*
X158081089Y-104607589D01*
X158106690Y-104586580D01*
X158135899Y-104570967D01*
X158167598Y-104561351D01*
X158206697Y-104557500D01*
X163357303Y-104557500D01*
X163396402Y-104561351D01*
X163396402Y-104561351D01*
G37*
G36*
X185240402Y-104531851D02*
G01*
X185272101Y-104541467D01*
X185301310Y-104557080D01*
X185326911Y-104578089D01*
X185347920Y-104603690D01*
X185363533Y-104632899D01*
X185373149Y-104664598D01*
X185377000Y-104703697D01*
X185377000Y-106429303D01*
X185373149Y-106468402D01*
X185363533Y-106500101D01*
X185347920Y-106529310D01*
X185326911Y-106554911D01*
X185301310Y-106575920D01*
X185272101Y-106591533D01*
X185240402Y-106601149D01*
X185201303Y-106605000D01*
X180050697Y-106605000D01*
X180011598Y-106601149D01*
X179979899Y-106591533D01*
X179950690Y-106575920D01*
X179925089Y-106554911D01*
X179904080Y-106529310D01*
X179888467Y-106500101D01*
X179878851Y-106468402D01*
X179875000Y-106429303D01*
X179875000Y-104703697D01*
X179878851Y-104664598D01*
X179888467Y-104632899D01*
X179904080Y-104603690D01*
X179925089Y-104578089D01*
X179950690Y-104557080D01*
X179979899Y-104541467D01*
X180011598Y-104531851D01*
X180050697Y-104528000D01*
X185201303Y-104528000D01*
X185240402Y-104531851D01*
X185240402Y-104531851D01*
G37*
G36*
X120150899Y-104164745D02*
G01*
X120188395Y-104176120D01*
X120222954Y-104194592D01*
X120253247Y-104219453D01*
X120278108Y-104249746D01*
X120296580Y-104284305D01*
X120307955Y-104321801D01*
X120312400Y-104366938D01*
X120312400Y-105030662D01*
X120307955Y-105075799D01*
X120296580Y-105113295D01*
X120278108Y-105147854D01*
X120253247Y-105178147D01*
X120222954Y-105203008D01*
X120188395Y-105221480D01*
X120150899Y-105232855D01*
X120105762Y-105237300D01*
X119467038Y-105237300D01*
X119421901Y-105232855D01*
X119384405Y-105221480D01*
X119349846Y-105203008D01*
X119319553Y-105178147D01*
X119294692Y-105147854D01*
X119276220Y-105113295D01*
X119264845Y-105075799D01*
X119260400Y-105030662D01*
X119260400Y-104366938D01*
X119264845Y-104321801D01*
X119276220Y-104284305D01*
X119294692Y-104249746D01*
X119319553Y-104219453D01*
X119349846Y-104194592D01*
X119384405Y-104176120D01*
X119421901Y-104164745D01*
X119467038Y-104160300D01*
X120105762Y-104160300D01*
X120150899Y-104164745D01*
X120150899Y-104164745D01*
G37*
G36*
X129455999Y-103110445D02*
G01*
X129493495Y-103121820D01*
X129528054Y-103140292D01*
X129558347Y-103165153D01*
X129583208Y-103195446D01*
X129601680Y-103230005D01*
X129613055Y-103267501D01*
X129617500Y-103312638D01*
X129617500Y-103951362D01*
X129613055Y-103996499D01*
X129601680Y-104033995D01*
X129583208Y-104068554D01*
X129558347Y-104098847D01*
X129528054Y-104123708D01*
X129493495Y-104142180D01*
X129455999Y-104153555D01*
X129410862Y-104158000D01*
X128747138Y-104158000D01*
X128702001Y-104153555D01*
X128664505Y-104142180D01*
X128629946Y-104123708D01*
X128599653Y-104098847D01*
X128574792Y-104068554D01*
X128556320Y-104033995D01*
X128544945Y-103996499D01*
X128540500Y-103951362D01*
X128540500Y-103312638D01*
X128544945Y-103267501D01*
X128556320Y-103230005D01*
X128574792Y-103195446D01*
X128599653Y-103165153D01*
X128629946Y-103140292D01*
X128664505Y-103121820D01*
X128702001Y-103110445D01*
X128747138Y-103106000D01*
X129410862Y-103106000D01*
X129455999Y-103110445D01*
X129455999Y-103110445D01*
G37*
G36*
X127630999Y-103110445D02*
G01*
X127668495Y-103121820D01*
X127703054Y-103140292D01*
X127733347Y-103165153D01*
X127758208Y-103195446D01*
X127776680Y-103230005D01*
X127788055Y-103267501D01*
X127792500Y-103312638D01*
X127792500Y-103951362D01*
X127788055Y-103996499D01*
X127776680Y-104033995D01*
X127758208Y-104068554D01*
X127733347Y-104098847D01*
X127703054Y-104123708D01*
X127668495Y-104142180D01*
X127630999Y-104153555D01*
X127585862Y-104158000D01*
X126922138Y-104158000D01*
X126877001Y-104153555D01*
X126839505Y-104142180D01*
X126804946Y-104123708D01*
X126774653Y-104098847D01*
X126749792Y-104068554D01*
X126731320Y-104033995D01*
X126719945Y-103996499D01*
X126715500Y-103951362D01*
X126715500Y-103312638D01*
X126719945Y-103267501D01*
X126731320Y-103230005D01*
X126749792Y-103195446D01*
X126774653Y-103165153D01*
X126804946Y-103140292D01*
X126839505Y-103121820D01*
X126877001Y-103110445D01*
X126922138Y-103106000D01*
X127585862Y-103106000D01*
X127630999Y-103110445D01*
X127630999Y-103110445D01*
G37*
G36*
X124582999Y-102805645D02*
G01*
X124620495Y-102817020D01*
X124655054Y-102835492D01*
X124685347Y-102860353D01*
X124710208Y-102890646D01*
X124728680Y-102925205D01*
X124740055Y-102962701D01*
X124744500Y-103007838D01*
X124744500Y-103646562D01*
X124740055Y-103691699D01*
X124728680Y-103729195D01*
X124710208Y-103763754D01*
X124685347Y-103794047D01*
X124655054Y-103818908D01*
X124620495Y-103837380D01*
X124582999Y-103848755D01*
X124537862Y-103853200D01*
X123874138Y-103853200D01*
X123829001Y-103848755D01*
X123791505Y-103837380D01*
X123756946Y-103818908D01*
X123726653Y-103794047D01*
X123701792Y-103763754D01*
X123683320Y-103729195D01*
X123671945Y-103691699D01*
X123667500Y-103646562D01*
X123667500Y-103007838D01*
X123671945Y-102962701D01*
X123683320Y-102925205D01*
X123701792Y-102890646D01*
X123726653Y-102860353D01*
X123756946Y-102835492D01*
X123791505Y-102817020D01*
X123829001Y-102805645D01*
X123874138Y-102801200D01*
X124537862Y-102801200D01*
X124582999Y-102805645D01*
X124582999Y-102805645D01*
G37*
G36*
X122757999Y-102805645D02*
G01*
X122795495Y-102817020D01*
X122830054Y-102835492D01*
X122860347Y-102860353D01*
X122885208Y-102890646D01*
X122903680Y-102925205D01*
X122915055Y-102962701D01*
X122919500Y-103007838D01*
X122919500Y-103646562D01*
X122915055Y-103691699D01*
X122903680Y-103729195D01*
X122885208Y-103763754D01*
X122860347Y-103794047D01*
X122830054Y-103818908D01*
X122795495Y-103837380D01*
X122757999Y-103848755D01*
X122712862Y-103853200D01*
X122049138Y-103853200D01*
X122004001Y-103848755D01*
X121966505Y-103837380D01*
X121931946Y-103818908D01*
X121901653Y-103794047D01*
X121876792Y-103763754D01*
X121858320Y-103729195D01*
X121846945Y-103691699D01*
X121842500Y-103646562D01*
X121842500Y-103007838D01*
X121846945Y-102962701D01*
X121858320Y-102925205D01*
X121876792Y-102890646D01*
X121901653Y-102860353D01*
X121931946Y-102835492D01*
X121966505Y-102817020D01*
X122004001Y-102805645D01*
X122049138Y-102801200D01*
X122712862Y-102801200D01*
X122757999Y-102805645D01*
X122757999Y-102805645D01*
G37*
G36*
X136901999Y-101459445D02*
G01*
X136939495Y-101470820D01*
X136974054Y-101489292D01*
X137004347Y-101514153D01*
X137029208Y-101544446D01*
X137047680Y-101579005D01*
X137059055Y-101616501D01*
X137063500Y-101661638D01*
X137063500Y-102300362D01*
X137059055Y-102345499D01*
X137047680Y-102382995D01*
X137029208Y-102417554D01*
X137004347Y-102447847D01*
X136974054Y-102472708D01*
X136939495Y-102491180D01*
X136901999Y-102502555D01*
X136856862Y-102507000D01*
X136193138Y-102507000D01*
X136148001Y-102502555D01*
X136110505Y-102491180D01*
X136075946Y-102472708D01*
X136045653Y-102447847D01*
X136020792Y-102417554D01*
X136002320Y-102382995D01*
X135990945Y-102345499D01*
X135986500Y-102300362D01*
X135986500Y-101661638D01*
X135990945Y-101616501D01*
X136002320Y-101579005D01*
X136020792Y-101544446D01*
X136045653Y-101514153D01*
X136075946Y-101489292D01*
X136110505Y-101470820D01*
X136148001Y-101459445D01*
X136193138Y-101455000D01*
X136856862Y-101455000D01*
X136901999Y-101459445D01*
X136901999Y-101459445D01*
G37*
G36*
X135076999Y-101459445D02*
G01*
X135114495Y-101470820D01*
X135149054Y-101489292D01*
X135179347Y-101514153D01*
X135204208Y-101544446D01*
X135222680Y-101579005D01*
X135234055Y-101616501D01*
X135238500Y-101661638D01*
X135238500Y-102300362D01*
X135234055Y-102345499D01*
X135222680Y-102382995D01*
X135204208Y-102417554D01*
X135179347Y-102447847D01*
X135149054Y-102472708D01*
X135114495Y-102491180D01*
X135076999Y-102502555D01*
X135031862Y-102507000D01*
X134368138Y-102507000D01*
X134323001Y-102502555D01*
X134285505Y-102491180D01*
X134250946Y-102472708D01*
X134220653Y-102447847D01*
X134195792Y-102417554D01*
X134177320Y-102382995D01*
X134165945Y-102345499D01*
X134161500Y-102300362D01*
X134161500Y-101661638D01*
X134165945Y-101616501D01*
X134177320Y-101579005D01*
X134195792Y-101544446D01*
X134220653Y-101514153D01*
X134250946Y-101489292D01*
X134285505Y-101470820D01*
X134323001Y-101459445D01*
X134368138Y-101455000D01*
X135031862Y-101455000D01*
X135076999Y-101459445D01*
X135076999Y-101459445D01*
G37*
G36*
X160189999Y-101205445D02*
G01*
X160227495Y-101216820D01*
X160262054Y-101235292D01*
X160292347Y-101260153D01*
X160317208Y-101290446D01*
X160335680Y-101325005D01*
X160347055Y-101362501D01*
X160351500Y-101407638D01*
X160351500Y-102046362D01*
X160347055Y-102091499D01*
X160335680Y-102128995D01*
X160317208Y-102163554D01*
X160292347Y-102193847D01*
X160262054Y-102218708D01*
X160227495Y-102237180D01*
X160189999Y-102248555D01*
X160144862Y-102253000D01*
X159481138Y-102253000D01*
X159436001Y-102248555D01*
X159398505Y-102237180D01*
X159363946Y-102218708D01*
X159333653Y-102193847D01*
X159308792Y-102163554D01*
X159290320Y-102128995D01*
X159278945Y-102091499D01*
X159274500Y-102046362D01*
X159274500Y-101407638D01*
X159278945Y-101362501D01*
X159290320Y-101325005D01*
X159308792Y-101290446D01*
X159333653Y-101260153D01*
X159363946Y-101235292D01*
X159398505Y-101216820D01*
X159436001Y-101205445D01*
X159481138Y-101201000D01*
X160144862Y-101201000D01*
X160189999Y-101205445D01*
X160189999Y-101205445D01*
G37*
G36*
X158364999Y-101205445D02*
G01*
X158402495Y-101216820D01*
X158437054Y-101235292D01*
X158467347Y-101260153D01*
X158492208Y-101290446D01*
X158510680Y-101325005D01*
X158522055Y-101362501D01*
X158526500Y-101407638D01*
X158526500Y-102046362D01*
X158522055Y-102091499D01*
X158510680Y-102128995D01*
X158492208Y-102163554D01*
X158467347Y-102193847D01*
X158437054Y-102218708D01*
X158402495Y-102237180D01*
X158364999Y-102248555D01*
X158319862Y-102253000D01*
X157656138Y-102253000D01*
X157611001Y-102248555D01*
X157573505Y-102237180D01*
X157538946Y-102218708D01*
X157508653Y-102193847D01*
X157483792Y-102163554D01*
X157465320Y-102128995D01*
X157453945Y-102091499D01*
X157449500Y-102046362D01*
X157449500Y-101407638D01*
X157453945Y-101362501D01*
X157465320Y-101325005D01*
X157483792Y-101290446D01*
X157508653Y-101260153D01*
X157538946Y-101235292D01*
X157573505Y-101216820D01*
X157611001Y-101205445D01*
X157656138Y-101201000D01*
X158319862Y-101201000D01*
X158364999Y-101205445D01*
X158364999Y-101205445D01*
G37*
G36*
X83177628Y-96390820D02*
G01*
X83432767Y-96441570D01*
X83904299Y-96636885D01*
X84147029Y-96799073D01*
X84328666Y-96920438D01*
X84689562Y-97281334D01*
X84776322Y-97411180D01*
X84973115Y-97705701D01*
X85164398Y-98167500D01*
X85168430Y-98177234D01*
X85268000Y-98677807D01*
X85268000Y-99188193D01*
X85223818Y-99410309D01*
X85168430Y-99688767D01*
X84973115Y-100160299D01*
X84835584Y-100366128D01*
X84689562Y-100584666D01*
X84328666Y-100945562D01*
X84147029Y-101066927D01*
X83904299Y-101229115D01*
X83432767Y-101424430D01*
X83279080Y-101455000D01*
X82932193Y-101524000D01*
X82421807Y-101524000D01*
X82074920Y-101455000D01*
X81921233Y-101424430D01*
X81449701Y-101229115D01*
X81206971Y-101066927D01*
X81025334Y-100945562D01*
X80664438Y-100584666D01*
X80518416Y-100366128D01*
X80380885Y-100160299D01*
X80185570Y-99688767D01*
X80130182Y-99410309D01*
X80086000Y-99188193D01*
X80086000Y-98677807D01*
X80185570Y-98177234D01*
X80189602Y-98167500D01*
X80380885Y-97705701D01*
X80577678Y-97411180D01*
X80664438Y-97281334D01*
X81025334Y-96920438D01*
X81206971Y-96799073D01*
X81449701Y-96636885D01*
X81921233Y-96441570D01*
X82176372Y-96390820D01*
X82421807Y-96342000D01*
X82932193Y-96342000D01*
X83177628Y-96390820D01*
X83177628Y-96390820D01*
G37*
G36*
X121391983Y-100246934D02*
G01*
X121429372Y-100258276D01*
X121463826Y-100276691D01*
X121494025Y-100301475D01*
X121518809Y-100331674D01*
X121537224Y-100366128D01*
X121548566Y-100403517D01*
X121553000Y-100448535D01*
X121553000Y-101313465D01*
X121548566Y-101358483D01*
X121537224Y-101395872D01*
X121518809Y-101430326D01*
X121494025Y-101460525D01*
X121463826Y-101485309D01*
X121429372Y-101503724D01*
X121391983Y-101515066D01*
X121346965Y-101519500D01*
X120207035Y-101519500D01*
X120162017Y-101515066D01*
X120124628Y-101503724D01*
X120090174Y-101485309D01*
X120059975Y-101460525D01*
X120035191Y-101430326D01*
X120016776Y-101395872D01*
X120005434Y-101358483D01*
X120001000Y-101313465D01*
X120001000Y-100448535D01*
X120005434Y-100403517D01*
X120016776Y-100366128D01*
X120035191Y-100331674D01*
X120059975Y-100301475D01*
X120090174Y-100276691D01*
X120124628Y-100258276D01*
X120162017Y-100246934D01*
X120207035Y-100242500D01*
X121346965Y-100242500D01*
X121391983Y-100246934D01*
X121391983Y-100246934D01*
G37*
G36*
X132818070Y-101511300D02*
G01*
X131214930Y-101511300D01*
X131214930Y-87612020D01*
X132818070Y-87612020D01*
X132818070Y-101511300D01*
X132818070Y-101511300D01*
G37*
G36*
X124817070Y-101511300D02*
G01*
X123213930Y-101511300D01*
X123213930Y-87612020D01*
X124817070Y-87612020D01*
X124817070Y-101511300D01*
X124817070Y-101511300D01*
G37*
G36*
X138286499Y-99715945D02*
G01*
X138323995Y-99727320D01*
X138358554Y-99745792D01*
X138388847Y-99770653D01*
X138413708Y-99800946D01*
X138432180Y-99835505D01*
X138443555Y-99873001D01*
X138448000Y-99918138D01*
X138448000Y-100581862D01*
X138443555Y-100626999D01*
X138432180Y-100664495D01*
X138413708Y-100699054D01*
X138388847Y-100729347D01*
X138358554Y-100754208D01*
X138323995Y-100772680D01*
X138286499Y-100784055D01*
X138241362Y-100788500D01*
X137602638Y-100788500D01*
X137557501Y-100784055D01*
X137520005Y-100772680D01*
X137485446Y-100754208D01*
X137455153Y-100729347D01*
X137430292Y-100699054D01*
X137411820Y-100664495D01*
X137400445Y-100626999D01*
X137396000Y-100581862D01*
X137396000Y-99918138D01*
X137400445Y-99873001D01*
X137411820Y-99835505D01*
X137430292Y-99800946D01*
X137455153Y-99770653D01*
X137485446Y-99745792D01*
X137520005Y-99727320D01*
X137557501Y-99715945D01*
X137602638Y-99711500D01*
X138241362Y-99711500D01*
X138286499Y-99715945D01*
X138286499Y-99715945D01*
G37*
G36*
X121391983Y-98171934D02*
G01*
X121429372Y-98183276D01*
X121463826Y-98201691D01*
X121494025Y-98226475D01*
X121518809Y-98256674D01*
X121537224Y-98291128D01*
X121548566Y-98328517D01*
X121553000Y-98373535D01*
X121553000Y-99238465D01*
X121548566Y-99283483D01*
X121537224Y-99320872D01*
X121518809Y-99355326D01*
X121494025Y-99385525D01*
X121463826Y-99410309D01*
X121429372Y-99428724D01*
X121391983Y-99440066D01*
X121346965Y-99444500D01*
X120207035Y-99444500D01*
X120162017Y-99440066D01*
X120124628Y-99428724D01*
X120090174Y-99410309D01*
X120059975Y-99385525D01*
X120035191Y-99355326D01*
X120016776Y-99320872D01*
X120005434Y-99283483D01*
X120001000Y-99238465D01*
X120001000Y-98373535D01*
X120005434Y-98328517D01*
X120016776Y-98291128D01*
X120035191Y-98256674D01*
X120059975Y-98226475D01*
X120090174Y-98201691D01*
X120124628Y-98183276D01*
X120162017Y-98171934D01*
X120207035Y-98167500D01*
X121346965Y-98167500D01*
X121391983Y-98171934D01*
X121391983Y-98171934D01*
G37*
G36*
X138286499Y-97890945D02*
G01*
X138323995Y-97902320D01*
X138358554Y-97920792D01*
X138388847Y-97945653D01*
X138413708Y-97975946D01*
X138432180Y-98010505D01*
X138443555Y-98048001D01*
X138448000Y-98093138D01*
X138448000Y-98756862D01*
X138443555Y-98801999D01*
X138432180Y-98839495D01*
X138413708Y-98874054D01*
X138388847Y-98904347D01*
X138358554Y-98929208D01*
X138323995Y-98947680D01*
X138286499Y-98959055D01*
X138241362Y-98963500D01*
X137602638Y-98963500D01*
X137557501Y-98959055D01*
X137520005Y-98947680D01*
X137485446Y-98929208D01*
X137455153Y-98904347D01*
X137430292Y-98874054D01*
X137411820Y-98839495D01*
X137400445Y-98801999D01*
X137396000Y-98756862D01*
X137396000Y-98093138D01*
X137400445Y-98048001D01*
X137411820Y-98010505D01*
X137430292Y-97975946D01*
X137455153Y-97945653D01*
X137485446Y-97920792D01*
X137520005Y-97902320D01*
X137557501Y-97890945D01*
X137602638Y-97886500D01*
X138241362Y-97886500D01*
X138286499Y-97890945D01*
X138286499Y-97890945D01*
G37*
G36*
X143775901Y-98001360D02*
G01*
X143797925Y-98008041D01*
X143818222Y-98018890D01*
X143836011Y-98033489D01*
X143850610Y-98051278D01*
X143861459Y-98071575D01*
X143868140Y-98093599D01*
X143871000Y-98122640D01*
X143871000Y-98711360D01*
X143868140Y-98740401D01*
X143861459Y-98762425D01*
X143850610Y-98782722D01*
X143836011Y-98800511D01*
X143818222Y-98815110D01*
X143797925Y-98825959D01*
X143775901Y-98832640D01*
X143746860Y-98835500D01*
X143273140Y-98835500D01*
X143244099Y-98832640D01*
X143222075Y-98825959D01*
X143201778Y-98815110D01*
X143183989Y-98800511D01*
X143169390Y-98782722D01*
X143158541Y-98762425D01*
X143151860Y-98740401D01*
X143149000Y-98711360D01*
X143149000Y-98122640D01*
X143151860Y-98093599D01*
X143158541Y-98071575D01*
X143169390Y-98051278D01*
X143183989Y-98033489D01*
X143201778Y-98018890D01*
X143222075Y-98008041D01*
X143244099Y-98001360D01*
X143273140Y-97998500D01*
X143746860Y-97998500D01*
X143775901Y-98001360D01*
X143775901Y-98001360D01*
G37*
G36*
X141235901Y-98001360D02*
G01*
X141257925Y-98008041D01*
X141278222Y-98018890D01*
X141296011Y-98033489D01*
X141310610Y-98051278D01*
X141321459Y-98071575D01*
X141328140Y-98093599D01*
X141331000Y-98122640D01*
X141331000Y-98711360D01*
X141328140Y-98740401D01*
X141321459Y-98762425D01*
X141310610Y-98782722D01*
X141296011Y-98800511D01*
X141278222Y-98815110D01*
X141257925Y-98825959D01*
X141235901Y-98832640D01*
X141206860Y-98835500D01*
X140733140Y-98835500D01*
X140704099Y-98832640D01*
X140682075Y-98825959D01*
X140661778Y-98815110D01*
X140643989Y-98800511D01*
X140629390Y-98782722D01*
X140618541Y-98762425D01*
X140611860Y-98740401D01*
X140609000Y-98711360D01*
X140609000Y-98122640D01*
X140611860Y-98093599D01*
X140618541Y-98071575D01*
X140629390Y-98051278D01*
X140643989Y-98033489D01*
X140661778Y-98018890D01*
X140682075Y-98008041D01*
X140704099Y-98001360D01*
X140733140Y-97998500D01*
X141206860Y-97998500D01*
X141235901Y-98001360D01*
X141235901Y-98001360D01*
G37*
G36*
X142505901Y-98001360D02*
G01*
X142527925Y-98008041D01*
X142548222Y-98018890D01*
X142566011Y-98033489D01*
X142580610Y-98051278D01*
X142591459Y-98071575D01*
X142598140Y-98093599D01*
X142601000Y-98122640D01*
X142601000Y-98711360D01*
X142598140Y-98740401D01*
X142591459Y-98762425D01*
X142580610Y-98782722D01*
X142566011Y-98800511D01*
X142548222Y-98815110D01*
X142527925Y-98825959D01*
X142505901Y-98832640D01*
X142476860Y-98835500D01*
X142003140Y-98835500D01*
X141974099Y-98832640D01*
X141952075Y-98825959D01*
X141931778Y-98815110D01*
X141913989Y-98800511D01*
X141899390Y-98782722D01*
X141888541Y-98762425D01*
X141881860Y-98740401D01*
X141879000Y-98711360D01*
X141879000Y-98122640D01*
X141881860Y-98093599D01*
X141888541Y-98071575D01*
X141899390Y-98051278D01*
X141913989Y-98033489D01*
X141931778Y-98018890D01*
X141952075Y-98008041D01*
X141974099Y-98001360D01*
X142003140Y-97998500D01*
X142476860Y-97998500D01*
X142505901Y-98001360D01*
X142505901Y-98001360D01*
G37*
G36*
X139965901Y-98001360D02*
G01*
X139987925Y-98008041D01*
X140008222Y-98018890D01*
X140026011Y-98033489D01*
X140040610Y-98051278D01*
X140051459Y-98071575D01*
X140058140Y-98093599D01*
X140061000Y-98122640D01*
X140061000Y-98711360D01*
X140058140Y-98740401D01*
X140051459Y-98762425D01*
X140040610Y-98782722D01*
X140026011Y-98800511D01*
X140008222Y-98815110D01*
X139987925Y-98825959D01*
X139965901Y-98832640D01*
X139936860Y-98835500D01*
X139463140Y-98835500D01*
X139434099Y-98832640D01*
X139412075Y-98825959D01*
X139391778Y-98815110D01*
X139373989Y-98800511D01*
X139359390Y-98782722D01*
X139348541Y-98762425D01*
X139341860Y-98740401D01*
X139339000Y-98711360D01*
X139339000Y-98122640D01*
X139341860Y-98093599D01*
X139348541Y-98071575D01*
X139359390Y-98051278D01*
X139373989Y-98033489D01*
X139391778Y-98018890D01*
X139412075Y-98008041D01*
X139434099Y-98001360D01*
X139463140Y-97998500D01*
X139936860Y-97998500D01*
X139965901Y-98001360D01*
X139965901Y-98001360D01*
G37*
G36*
X145045901Y-98001360D02*
G01*
X145067925Y-98008041D01*
X145088222Y-98018890D01*
X145106011Y-98033489D01*
X145120610Y-98051278D01*
X145131459Y-98071575D01*
X145138140Y-98093599D01*
X145141000Y-98122640D01*
X145141000Y-98711360D01*
X145138140Y-98740401D01*
X145131459Y-98762425D01*
X145120610Y-98782722D01*
X145106011Y-98800511D01*
X145088222Y-98815110D01*
X145067925Y-98825959D01*
X145045901Y-98832640D01*
X145016860Y-98835500D01*
X144543140Y-98835500D01*
X144514099Y-98832640D01*
X144492075Y-98825959D01*
X144471778Y-98815110D01*
X144453989Y-98800511D01*
X144439390Y-98782722D01*
X144428541Y-98762425D01*
X144421860Y-98740401D01*
X144419000Y-98711360D01*
X144419000Y-98122640D01*
X144421860Y-98093599D01*
X144428541Y-98071575D01*
X144439390Y-98051278D01*
X144453989Y-98033489D01*
X144471778Y-98018890D01*
X144492075Y-98008041D01*
X144514099Y-98001360D01*
X144543140Y-97998500D01*
X145016860Y-97998500D01*
X145045901Y-98001360D01*
X145045901Y-98001360D01*
G37*
G36*
X129866590Y-98166120D02*
G01*
X126165410Y-98166120D01*
X126165410Y-91063880D01*
X129866590Y-91063880D01*
X129866590Y-98166120D01*
X129866590Y-98166120D01*
G37*
G36*
X142505901Y-96866360D02*
G01*
X142527925Y-96873041D01*
X142548222Y-96883890D01*
X142566011Y-96898489D01*
X142580610Y-96916278D01*
X142591459Y-96936575D01*
X142598140Y-96958599D01*
X142601000Y-96987640D01*
X142601000Y-97576360D01*
X142598140Y-97605401D01*
X142591459Y-97627425D01*
X142580610Y-97647722D01*
X142566011Y-97665511D01*
X142548222Y-97680110D01*
X142527925Y-97690959D01*
X142505901Y-97697640D01*
X142476860Y-97700500D01*
X142003140Y-97700500D01*
X141974099Y-97697640D01*
X141952075Y-97690959D01*
X141931778Y-97680110D01*
X141913989Y-97665511D01*
X141899390Y-97647722D01*
X141888541Y-97627425D01*
X141881860Y-97605401D01*
X141879000Y-97576360D01*
X141879000Y-96987640D01*
X141881860Y-96958599D01*
X141888541Y-96936575D01*
X141899390Y-96916278D01*
X141913989Y-96898489D01*
X141931778Y-96883890D01*
X141952075Y-96873041D01*
X141974099Y-96866360D01*
X142003140Y-96863500D01*
X142476860Y-96863500D01*
X142505901Y-96866360D01*
X142505901Y-96866360D01*
G37*
G36*
X143775901Y-96866360D02*
G01*
X143797925Y-96873041D01*
X143818222Y-96883890D01*
X143836011Y-96898489D01*
X143850610Y-96916278D01*
X143861459Y-96936575D01*
X143868140Y-96958599D01*
X143871000Y-96987640D01*
X143871000Y-97576360D01*
X143868140Y-97605401D01*
X143861459Y-97627425D01*
X143850610Y-97647722D01*
X143836011Y-97665511D01*
X143818222Y-97680110D01*
X143797925Y-97690959D01*
X143775901Y-97697640D01*
X143746860Y-97700500D01*
X143273140Y-97700500D01*
X143244099Y-97697640D01*
X143222075Y-97690959D01*
X143201778Y-97680110D01*
X143183989Y-97665511D01*
X143169390Y-97647722D01*
X143158541Y-97627425D01*
X143151860Y-97605401D01*
X143149000Y-97576360D01*
X143149000Y-96987640D01*
X143151860Y-96958599D01*
X143158541Y-96936575D01*
X143169390Y-96916278D01*
X143183989Y-96898489D01*
X143201778Y-96883890D01*
X143222075Y-96873041D01*
X143244099Y-96866360D01*
X143273140Y-96863500D01*
X143746860Y-96863500D01*
X143775901Y-96866360D01*
X143775901Y-96866360D01*
G37*
G36*
X139965901Y-96866360D02*
G01*
X139987925Y-96873041D01*
X140008222Y-96883890D01*
X140026011Y-96898489D01*
X140040610Y-96916278D01*
X140051459Y-96936575D01*
X140058140Y-96958599D01*
X140061000Y-96987640D01*
X140061000Y-97576360D01*
X140058140Y-97605401D01*
X140051459Y-97627425D01*
X140040610Y-97647722D01*
X140026011Y-97665511D01*
X140008222Y-97680110D01*
X139987925Y-97690959D01*
X139965901Y-97697640D01*
X139936860Y-97700500D01*
X139463140Y-97700500D01*
X139434099Y-97697640D01*
X139412075Y-97690959D01*
X139391778Y-97680110D01*
X139373989Y-97665511D01*
X139359390Y-97647722D01*
X139348541Y-97627425D01*
X139341860Y-97605401D01*
X139339000Y-97576360D01*
X139339000Y-96987640D01*
X139341860Y-96958599D01*
X139348541Y-96936575D01*
X139359390Y-96916278D01*
X139373989Y-96898489D01*
X139391778Y-96883890D01*
X139412075Y-96873041D01*
X139434099Y-96866360D01*
X139463140Y-96863500D01*
X139936860Y-96863500D01*
X139965901Y-96866360D01*
X139965901Y-96866360D01*
G37*
G36*
X141235901Y-96866360D02*
G01*
X141257925Y-96873041D01*
X141278222Y-96883890D01*
X141296011Y-96898489D01*
X141310610Y-96916278D01*
X141321459Y-96936575D01*
X141328140Y-96958599D01*
X141331000Y-96987640D01*
X141331000Y-97576360D01*
X141328140Y-97605401D01*
X141321459Y-97627425D01*
X141310610Y-97647722D01*
X141296011Y-97665511D01*
X141278222Y-97680110D01*
X141257925Y-97690959D01*
X141235901Y-97697640D01*
X141206860Y-97700500D01*
X140733140Y-97700500D01*
X140704099Y-97697640D01*
X140682075Y-97690959D01*
X140661778Y-97680110D01*
X140643989Y-97665511D01*
X140629390Y-97647722D01*
X140618541Y-97627425D01*
X140611860Y-97605401D01*
X140609000Y-97576360D01*
X140609000Y-96987640D01*
X140611860Y-96958599D01*
X140618541Y-96936575D01*
X140629390Y-96916278D01*
X140643989Y-96898489D01*
X140661778Y-96883890D01*
X140682075Y-96873041D01*
X140704099Y-96866360D01*
X140733140Y-96863500D01*
X141206860Y-96863500D01*
X141235901Y-96866360D01*
X141235901Y-96866360D01*
G37*
G36*
X145045901Y-96866360D02*
G01*
X145067925Y-96873041D01*
X145088222Y-96883890D01*
X145106011Y-96898489D01*
X145120610Y-96916278D01*
X145131459Y-96936575D01*
X145138140Y-96958599D01*
X145141000Y-96987640D01*
X145141000Y-97576360D01*
X145138140Y-97605401D01*
X145131459Y-97627425D01*
X145120610Y-97647722D01*
X145106011Y-97665511D01*
X145088222Y-97680110D01*
X145067925Y-97690959D01*
X145045901Y-97697640D01*
X145016860Y-97700500D01*
X144543140Y-97700500D01*
X144514099Y-97697640D01*
X144492075Y-97690959D01*
X144471778Y-97680110D01*
X144453989Y-97665511D01*
X144439390Y-97647722D01*
X144428541Y-97627425D01*
X144421860Y-97605401D01*
X144419000Y-97576360D01*
X144419000Y-96987640D01*
X144421860Y-96958599D01*
X144428541Y-96936575D01*
X144439390Y-96916278D01*
X144453989Y-96898489D01*
X144471778Y-96883890D01*
X144492075Y-96873041D01*
X144514099Y-96866360D01*
X144543140Y-96863500D01*
X145016860Y-96863500D01*
X145045901Y-96866360D01*
X145045901Y-96866360D01*
G37*
G36*
X158414999Y-96379445D02*
G01*
X158452495Y-96390820D01*
X158487054Y-96409292D01*
X158517347Y-96434153D01*
X158542208Y-96464446D01*
X158560680Y-96499005D01*
X158572055Y-96536501D01*
X158576500Y-96581638D01*
X158576500Y-97220362D01*
X158572055Y-97265499D01*
X158560680Y-97302995D01*
X158542208Y-97337554D01*
X158517347Y-97367847D01*
X158487054Y-97392708D01*
X158452495Y-97411180D01*
X158414999Y-97422555D01*
X158369862Y-97427000D01*
X157606138Y-97427000D01*
X157561001Y-97422555D01*
X157523505Y-97411180D01*
X157488946Y-97392708D01*
X157458653Y-97367847D01*
X157433792Y-97337554D01*
X157415320Y-97302995D01*
X157403945Y-97265499D01*
X157399500Y-97220362D01*
X157399500Y-96581638D01*
X157403945Y-96536501D01*
X157415320Y-96499005D01*
X157433792Y-96464446D01*
X157458653Y-96434153D01*
X157488946Y-96409292D01*
X157523505Y-96390820D01*
X157561001Y-96379445D01*
X157606138Y-96375000D01*
X158369862Y-96375000D01*
X158414999Y-96379445D01*
X158414999Y-96379445D01*
G37*
G36*
X160139999Y-96379445D02*
G01*
X160177495Y-96390820D01*
X160212054Y-96409292D01*
X160242347Y-96434153D01*
X160267208Y-96464446D01*
X160285680Y-96499005D01*
X160297055Y-96536501D01*
X160301500Y-96581638D01*
X160301500Y-97220362D01*
X160297055Y-97265499D01*
X160285680Y-97302995D01*
X160267208Y-97337554D01*
X160242347Y-97367847D01*
X160212054Y-97392708D01*
X160177495Y-97411180D01*
X160139999Y-97422555D01*
X160094862Y-97427000D01*
X159331138Y-97427000D01*
X159286001Y-97422555D01*
X159248505Y-97411180D01*
X159213946Y-97392708D01*
X159183653Y-97367847D01*
X159158792Y-97337554D01*
X159140320Y-97302995D01*
X159128945Y-97265499D01*
X159124500Y-97220362D01*
X159124500Y-96581638D01*
X159128945Y-96536501D01*
X159140320Y-96499005D01*
X159158792Y-96464446D01*
X159183653Y-96434153D01*
X159213946Y-96409292D01*
X159248505Y-96390820D01*
X159286001Y-96379445D01*
X159331138Y-96375000D01*
X160094862Y-96375000D01*
X160139999Y-96379445D01*
X160139999Y-96379445D01*
G37*
G36*
X170408800Y-96709430D02*
G01*
X169107920Y-96709430D01*
X169107920Y-94806570D01*
X170408800Y-94806570D01*
X170408800Y-96709430D01*
X170408800Y-96709430D01*
G37*
G36*
X167909440Y-96709430D02*
G01*
X166608560Y-96709430D01*
X166608560Y-94806570D01*
X167909440Y-94806570D01*
X167909440Y-96709430D01*
X167909440Y-96709430D01*
G37*
G36*
X175125999Y-95236445D02*
G01*
X175163495Y-95247820D01*
X175198054Y-95266292D01*
X175228347Y-95291153D01*
X175253208Y-95321446D01*
X175271680Y-95356005D01*
X175283055Y-95393501D01*
X175287500Y-95438638D01*
X175287500Y-96077362D01*
X175283055Y-96122499D01*
X175271680Y-96159995D01*
X175253208Y-96194554D01*
X175228347Y-96224847D01*
X175198054Y-96249708D01*
X175163495Y-96268180D01*
X175125999Y-96279555D01*
X175080862Y-96284000D01*
X174317138Y-96284000D01*
X174272001Y-96279555D01*
X174234505Y-96268180D01*
X174199946Y-96249708D01*
X174169653Y-96224847D01*
X174144792Y-96194554D01*
X174126320Y-96159995D01*
X174114945Y-96122499D01*
X174110500Y-96077362D01*
X174110500Y-95438638D01*
X174114945Y-95393501D01*
X174126320Y-95356005D01*
X174144792Y-95321446D01*
X174169653Y-95291153D01*
X174199946Y-95266292D01*
X174234505Y-95247820D01*
X174272001Y-95236445D01*
X174317138Y-95232000D01*
X175080862Y-95232000D01*
X175125999Y-95236445D01*
X175125999Y-95236445D01*
G37*
G36*
X173400999Y-95236445D02*
G01*
X173438495Y-95247820D01*
X173473054Y-95266292D01*
X173503347Y-95291153D01*
X173528208Y-95321446D01*
X173546680Y-95356005D01*
X173558055Y-95393501D01*
X173562500Y-95438638D01*
X173562500Y-96077362D01*
X173558055Y-96122499D01*
X173546680Y-96159995D01*
X173528208Y-96194554D01*
X173503347Y-96224847D01*
X173473054Y-96249708D01*
X173438495Y-96268180D01*
X173400999Y-96279555D01*
X173355862Y-96284000D01*
X172592138Y-96284000D01*
X172547001Y-96279555D01*
X172509505Y-96268180D01*
X172474946Y-96249708D01*
X172444653Y-96224847D01*
X172419792Y-96194554D01*
X172401320Y-96159995D01*
X172389945Y-96122499D01*
X172385500Y-96077362D01*
X172385500Y-95438638D01*
X172389945Y-95393501D01*
X172401320Y-95356005D01*
X172419792Y-95321446D01*
X172444653Y-95291153D01*
X172474946Y-95266292D01*
X172509505Y-95247820D01*
X172547001Y-95236445D01*
X172592138Y-95232000D01*
X173355862Y-95232000D01*
X173400999Y-95236445D01*
X173400999Y-95236445D01*
G37*
G36*
X154445040Y-96240800D02*
G01*
X146544960Y-96240800D01*
X146544960Y-94838320D01*
X154445040Y-94838320D01*
X154445040Y-96240800D01*
X154445040Y-96240800D01*
G37*
G36*
X114406983Y-94912934D02*
G01*
X114444372Y-94924276D01*
X114478826Y-94942691D01*
X114509025Y-94967475D01*
X114533809Y-94997674D01*
X114552224Y-95032128D01*
X114563566Y-95069517D01*
X114568000Y-95114535D01*
X114568000Y-95979465D01*
X114563566Y-96024483D01*
X114552224Y-96061872D01*
X114533809Y-96096326D01*
X114509025Y-96126525D01*
X114478826Y-96151309D01*
X114444372Y-96169724D01*
X114406983Y-96181066D01*
X114361965Y-96185500D01*
X113222035Y-96185500D01*
X113177017Y-96181066D01*
X113139628Y-96169724D01*
X113105174Y-96151309D01*
X113074975Y-96126525D01*
X113050191Y-96096326D01*
X113031776Y-96061872D01*
X113020434Y-96024483D01*
X113016000Y-95979465D01*
X113016000Y-95114535D01*
X113020434Y-95069517D01*
X113031776Y-95032128D01*
X113050191Y-94997674D01*
X113074975Y-94967475D01*
X113105174Y-94942691D01*
X113139628Y-94924276D01*
X113177017Y-94912934D01*
X113222035Y-94908500D01*
X114361965Y-94908500D01*
X114406983Y-94912934D01*
X114406983Y-94912934D01*
G37*
G36*
X137425901Y-95342360D02*
G01*
X137447925Y-95349041D01*
X137468222Y-95359890D01*
X137486011Y-95374489D01*
X137500610Y-95392278D01*
X137511459Y-95412575D01*
X137518140Y-95434599D01*
X137521000Y-95463640D01*
X137521000Y-96052360D01*
X137518140Y-96081401D01*
X137511459Y-96103425D01*
X137500610Y-96123722D01*
X137486011Y-96141511D01*
X137468222Y-96156110D01*
X137447925Y-96166959D01*
X137425901Y-96173640D01*
X137396860Y-96176500D01*
X136923140Y-96176500D01*
X136894099Y-96173640D01*
X136872075Y-96166959D01*
X136851778Y-96156110D01*
X136833989Y-96141511D01*
X136819390Y-96123722D01*
X136808541Y-96103425D01*
X136801860Y-96081401D01*
X136799000Y-96052360D01*
X136799000Y-95463640D01*
X136801860Y-95434599D01*
X136808541Y-95412575D01*
X136819390Y-95392278D01*
X136833989Y-95374489D01*
X136851778Y-95359890D01*
X136872075Y-95349041D01*
X136894099Y-95342360D01*
X136923140Y-95339500D01*
X137396860Y-95339500D01*
X137425901Y-95342360D01*
X137425901Y-95342360D01*
G37*
G36*
X164095901Y-94318360D02*
G01*
X164117925Y-94325041D01*
X164138222Y-94335890D01*
X164156011Y-94350489D01*
X164170610Y-94368278D01*
X164181459Y-94388575D01*
X164188140Y-94410599D01*
X164191000Y-94439640D01*
X164191000Y-95028360D01*
X164188140Y-95057401D01*
X164181459Y-95079425D01*
X164170610Y-95099722D01*
X164156011Y-95117511D01*
X164138222Y-95132110D01*
X164117925Y-95142959D01*
X164095901Y-95149640D01*
X164066860Y-95152500D01*
X163593140Y-95152500D01*
X163564099Y-95149640D01*
X163542075Y-95142959D01*
X163521778Y-95132110D01*
X163503989Y-95117511D01*
X163489390Y-95099722D01*
X163478541Y-95079425D01*
X163471860Y-95057401D01*
X163469000Y-95028360D01*
X163469000Y-94439640D01*
X163471860Y-94410599D01*
X163478541Y-94388575D01*
X163489390Y-94368278D01*
X163503989Y-94350489D01*
X163521778Y-94335890D01*
X163542075Y-94325041D01*
X163564099Y-94318360D01*
X163593140Y-94315500D01*
X164066860Y-94315500D01*
X164095901Y-94318360D01*
X164095901Y-94318360D01*
G37*
G36*
X161809901Y-94318360D02*
G01*
X161831925Y-94325041D01*
X161852222Y-94335890D01*
X161870011Y-94350489D01*
X161884610Y-94368278D01*
X161895459Y-94388575D01*
X161902140Y-94410599D01*
X161905000Y-94439640D01*
X161905000Y-95028360D01*
X161902140Y-95057401D01*
X161895459Y-95079425D01*
X161884610Y-95099722D01*
X161870011Y-95117511D01*
X161852222Y-95132110D01*
X161831925Y-95142959D01*
X161809901Y-95149640D01*
X161780860Y-95152500D01*
X161307140Y-95152500D01*
X161278099Y-95149640D01*
X161256075Y-95142959D01*
X161235778Y-95132110D01*
X161217989Y-95117511D01*
X161203390Y-95099722D01*
X161192541Y-95079425D01*
X161185860Y-95057401D01*
X161183000Y-95028360D01*
X161183000Y-94439640D01*
X161185860Y-94410599D01*
X161192541Y-94388575D01*
X161203390Y-94368278D01*
X161217989Y-94350489D01*
X161235778Y-94335890D01*
X161256075Y-94325041D01*
X161278099Y-94318360D01*
X161307140Y-94315500D01*
X161780860Y-94315500D01*
X161809901Y-94318360D01*
X161809901Y-94318360D01*
G37*
G36*
X137425901Y-94207360D02*
G01*
X137447925Y-94214041D01*
X137468222Y-94224890D01*
X137486011Y-94239489D01*
X137500610Y-94257278D01*
X137511459Y-94277575D01*
X137518140Y-94299599D01*
X137521000Y-94328640D01*
X137521000Y-94917360D01*
X137518140Y-94946401D01*
X137511459Y-94968425D01*
X137500610Y-94988722D01*
X137486011Y-95006511D01*
X137468222Y-95021110D01*
X137447925Y-95031959D01*
X137425901Y-95038640D01*
X137396860Y-95041500D01*
X136923140Y-95041500D01*
X136894099Y-95038640D01*
X136872075Y-95031959D01*
X136851778Y-95021110D01*
X136833989Y-95006511D01*
X136819390Y-94988722D01*
X136808541Y-94968425D01*
X136801860Y-94946401D01*
X136799000Y-94917360D01*
X136799000Y-94328640D01*
X136801860Y-94299599D01*
X136808541Y-94277575D01*
X136819390Y-94257278D01*
X136833989Y-94239489D01*
X136851778Y-94224890D01*
X136872075Y-94214041D01*
X136894099Y-94207360D01*
X136923140Y-94204500D01*
X137396860Y-94204500D01*
X137425901Y-94207360D01*
X137425901Y-94207360D01*
G37*
G36*
X142251901Y-93810360D02*
G01*
X142273925Y-93817041D01*
X142294222Y-93827890D01*
X142312011Y-93842489D01*
X142326610Y-93860278D01*
X142337459Y-93880575D01*
X142344140Y-93902599D01*
X142347000Y-93931640D01*
X142347000Y-94520360D01*
X142344140Y-94549401D01*
X142337459Y-94571425D01*
X142326610Y-94591722D01*
X142312011Y-94609511D01*
X142294222Y-94624110D01*
X142273925Y-94634959D01*
X142251901Y-94641640D01*
X142222860Y-94644500D01*
X141749140Y-94644500D01*
X141720099Y-94641640D01*
X141698075Y-94634959D01*
X141677778Y-94624110D01*
X141659989Y-94609511D01*
X141645390Y-94591722D01*
X141634541Y-94571425D01*
X141627860Y-94549401D01*
X141625000Y-94520360D01*
X141625000Y-93931640D01*
X141627860Y-93902599D01*
X141634541Y-93880575D01*
X141645390Y-93860278D01*
X141659989Y-93842489D01*
X141677778Y-93827890D01*
X141698075Y-93817041D01*
X141720099Y-93810360D01*
X141749140Y-93807500D01*
X142222860Y-93807500D01*
X142251901Y-93810360D01*
X142251901Y-93810360D01*
G37*
G36*
X114406983Y-92837934D02*
G01*
X114444372Y-92849276D01*
X114478826Y-92867691D01*
X114509025Y-92892475D01*
X114533809Y-92922674D01*
X114552224Y-92957128D01*
X114563566Y-92994517D01*
X114568000Y-93039535D01*
X114568000Y-93904465D01*
X114563566Y-93949483D01*
X114552224Y-93986872D01*
X114533809Y-94021326D01*
X114509025Y-94051525D01*
X114478826Y-94076309D01*
X114444372Y-94094724D01*
X114406983Y-94106066D01*
X114361965Y-94110500D01*
X113222035Y-94110500D01*
X113177017Y-94106066D01*
X113139628Y-94094724D01*
X113105174Y-94076309D01*
X113074975Y-94051525D01*
X113050191Y-94021326D01*
X113031776Y-93986872D01*
X113020434Y-93949483D01*
X113016000Y-93904465D01*
X113016000Y-93039535D01*
X113020434Y-92994517D01*
X113031776Y-92957128D01*
X113050191Y-92922674D01*
X113074975Y-92892475D01*
X113105174Y-92867691D01*
X113139628Y-92849276D01*
X113177017Y-92837934D01*
X113222035Y-92833500D01*
X114361965Y-92833500D01*
X114406983Y-92837934D01*
X114406983Y-92837934D01*
G37*
G36*
X164095901Y-93183360D02*
G01*
X164117925Y-93190041D01*
X164138222Y-93200890D01*
X164156011Y-93215489D01*
X164170610Y-93233278D01*
X164181459Y-93253575D01*
X164188140Y-93275599D01*
X164191000Y-93304640D01*
X164191000Y-93893360D01*
X164188140Y-93922401D01*
X164181459Y-93944425D01*
X164170610Y-93964722D01*
X164156011Y-93982511D01*
X164138222Y-93997110D01*
X164117925Y-94007959D01*
X164095901Y-94014640D01*
X164066860Y-94017500D01*
X163593140Y-94017500D01*
X163564099Y-94014640D01*
X163542075Y-94007959D01*
X163521778Y-93997110D01*
X163503989Y-93982511D01*
X163489390Y-93964722D01*
X163478541Y-93944425D01*
X163471860Y-93922401D01*
X163469000Y-93893360D01*
X163469000Y-93304640D01*
X163471860Y-93275599D01*
X163478541Y-93253575D01*
X163489390Y-93233278D01*
X163503989Y-93215489D01*
X163521778Y-93200890D01*
X163542075Y-93190041D01*
X163564099Y-93183360D01*
X163593140Y-93180500D01*
X164066860Y-93180500D01*
X164095901Y-93183360D01*
X164095901Y-93183360D01*
G37*
G36*
X161809901Y-93183360D02*
G01*
X161831925Y-93190041D01*
X161852222Y-93200890D01*
X161870011Y-93215489D01*
X161884610Y-93233278D01*
X161895459Y-93253575D01*
X161902140Y-93275599D01*
X161905000Y-93304640D01*
X161905000Y-93893360D01*
X161902140Y-93922401D01*
X161895459Y-93944425D01*
X161884610Y-93964722D01*
X161870011Y-93982511D01*
X161852222Y-93997110D01*
X161831925Y-94007959D01*
X161809901Y-94014640D01*
X161780860Y-94017500D01*
X161307140Y-94017500D01*
X161278099Y-94014640D01*
X161256075Y-94007959D01*
X161235778Y-93997110D01*
X161217989Y-93982511D01*
X161203390Y-93964722D01*
X161192541Y-93944425D01*
X161185860Y-93922401D01*
X161183000Y-93893360D01*
X161183000Y-93304640D01*
X161185860Y-93275599D01*
X161192541Y-93253575D01*
X161203390Y-93233278D01*
X161217989Y-93215489D01*
X161235778Y-93200890D01*
X161256075Y-93190041D01*
X161278099Y-93183360D01*
X161307140Y-93180500D01*
X161780860Y-93180500D01*
X161809901Y-93183360D01*
X161809901Y-93183360D01*
G37*
G36*
X156946800Y-93739040D02*
G01*
X155544320Y-93739040D01*
X155544320Y-85838960D01*
X156946800Y-85838960D01*
X156946800Y-93739040D01*
X156946800Y-93739040D01*
G37*
G36*
X145445680Y-93739040D02*
G01*
X144043200Y-93739040D01*
X144043200Y-85838960D01*
X145445680Y-85838960D01*
X145445680Y-93739040D01*
X145445680Y-93739040D01*
G37*
G36*
X83265908Y-88534380D02*
G01*
X83432767Y-88567570D01*
X83904299Y-88762885D01*
X84147029Y-88925073D01*
X84328666Y-89046438D01*
X84689562Y-89407334D01*
X84793651Y-89563115D01*
X84973115Y-89831701D01*
X85168430Y-90303233D01*
X85168430Y-90303234D01*
X85268000Y-90803807D01*
X85268000Y-91314193D01*
X85228789Y-91511320D01*
X85168430Y-91814767D01*
X84973115Y-92286299D01*
X84840938Y-92484115D01*
X84689562Y-92710666D01*
X84328666Y-93071562D01*
X84165628Y-93180500D01*
X83904299Y-93355115D01*
X83432767Y-93550430D01*
X83265908Y-93583620D01*
X82932193Y-93650000D01*
X82421807Y-93650000D01*
X82088092Y-93583620D01*
X81921233Y-93550430D01*
X81449701Y-93355115D01*
X81188372Y-93180500D01*
X81025334Y-93071562D01*
X80664438Y-92710666D01*
X80513062Y-92484115D01*
X80380885Y-92286299D01*
X80185570Y-91814767D01*
X80125211Y-91511320D01*
X80086000Y-91314193D01*
X80086000Y-90803807D01*
X80185570Y-90303234D01*
X80185570Y-90303233D01*
X80380885Y-89831701D01*
X80560349Y-89563115D01*
X80664438Y-89407334D01*
X81025334Y-89046438D01*
X81206971Y-88925073D01*
X81449701Y-88762885D01*
X81921233Y-88567570D01*
X82088092Y-88534380D01*
X82421807Y-88468000D01*
X82932193Y-88468000D01*
X83265908Y-88534380D01*
X83265908Y-88534380D01*
G37*
G36*
X142251901Y-92675360D02*
G01*
X142273925Y-92682041D01*
X142294222Y-92692890D01*
X142312011Y-92707489D01*
X142326610Y-92725278D01*
X142337459Y-92745575D01*
X142344140Y-92767599D01*
X142347000Y-92796640D01*
X142347000Y-93385360D01*
X142344140Y-93414401D01*
X142337459Y-93436425D01*
X142326610Y-93456722D01*
X142312011Y-93474511D01*
X142294222Y-93489110D01*
X142273925Y-93499959D01*
X142251901Y-93506640D01*
X142222860Y-93509500D01*
X141749140Y-93509500D01*
X141720099Y-93506640D01*
X141698075Y-93499959D01*
X141677778Y-93489110D01*
X141659989Y-93474511D01*
X141645390Y-93456722D01*
X141634541Y-93436425D01*
X141627860Y-93414401D01*
X141625000Y-93385360D01*
X141625000Y-92796640D01*
X141627860Y-92767599D01*
X141634541Y-92745575D01*
X141645390Y-92725278D01*
X141659989Y-92707489D01*
X141677778Y-92692890D01*
X141698075Y-92682041D01*
X141720099Y-92675360D01*
X141749140Y-92672500D01*
X142222860Y-92672500D01*
X142251901Y-92675360D01*
X142251901Y-92675360D01*
G37*
G36*
X111739983Y-91821934D02*
G01*
X111777372Y-91833276D01*
X111811826Y-91851691D01*
X111842025Y-91876475D01*
X111866809Y-91906674D01*
X111885224Y-91941128D01*
X111896566Y-91978517D01*
X111901000Y-92023535D01*
X111901000Y-92888465D01*
X111896566Y-92933483D01*
X111885224Y-92970872D01*
X111866809Y-93005326D01*
X111842025Y-93035525D01*
X111811826Y-93060309D01*
X111777372Y-93078724D01*
X111739983Y-93090066D01*
X111694965Y-93094500D01*
X110555035Y-93094500D01*
X110510017Y-93090066D01*
X110472628Y-93078724D01*
X110438174Y-93060309D01*
X110407975Y-93035525D01*
X110383191Y-93005326D01*
X110364776Y-92970872D01*
X110353434Y-92933483D01*
X110349000Y-92888465D01*
X110349000Y-92023535D01*
X110353434Y-91978517D01*
X110364776Y-91941128D01*
X110383191Y-91906674D01*
X110407975Y-91876475D01*
X110438174Y-91851691D01*
X110472628Y-91833276D01*
X110510017Y-91821934D01*
X110555035Y-91817500D01*
X111694965Y-91817500D01*
X111739983Y-91821934D01*
X111739983Y-91821934D01*
G37*
G36*
X170408800Y-92909590D02*
G01*
X169107920Y-92909590D01*
X169107920Y-91006730D01*
X170408800Y-91006730D01*
X170408800Y-92909590D01*
X170408800Y-92909590D01*
G37*
G36*
X167909440Y-92909590D02*
G01*
X166608560Y-92909590D01*
X166608560Y-91006730D01*
X167909440Y-91006730D01*
X167909440Y-92909590D01*
X167909440Y-92909590D01*
G37*
G36*
X164002999Y-91553445D02*
G01*
X164040495Y-91564820D01*
X164075054Y-91583292D01*
X164105347Y-91608153D01*
X164130208Y-91638446D01*
X164148680Y-91673005D01*
X164160055Y-91710501D01*
X164164500Y-91755638D01*
X164164500Y-92394362D01*
X164160055Y-92439499D01*
X164148680Y-92476995D01*
X164130208Y-92511554D01*
X164105347Y-92541847D01*
X164075054Y-92566708D01*
X164040495Y-92585180D01*
X164002999Y-92596555D01*
X163957862Y-92601000D01*
X163194138Y-92601000D01*
X163149001Y-92596555D01*
X163111505Y-92585180D01*
X163076946Y-92566708D01*
X163046653Y-92541847D01*
X163021792Y-92511554D01*
X163003320Y-92476995D01*
X162991945Y-92439499D01*
X162987500Y-92394362D01*
X162987500Y-91755638D01*
X162991945Y-91710501D01*
X163003320Y-91673005D01*
X163021792Y-91638446D01*
X163046653Y-91608153D01*
X163076946Y-91583292D01*
X163111505Y-91564820D01*
X163149001Y-91553445D01*
X163194138Y-91549000D01*
X163957862Y-91549000D01*
X164002999Y-91553445D01*
X164002999Y-91553445D01*
G37*
G36*
X162277999Y-91553445D02*
G01*
X162315495Y-91564820D01*
X162350054Y-91583292D01*
X162380347Y-91608153D01*
X162405208Y-91638446D01*
X162423680Y-91673005D01*
X162435055Y-91710501D01*
X162439500Y-91755638D01*
X162439500Y-92394362D01*
X162435055Y-92439499D01*
X162423680Y-92476995D01*
X162405208Y-92511554D01*
X162380347Y-92541847D01*
X162350054Y-92566708D01*
X162315495Y-92585180D01*
X162277999Y-92596555D01*
X162232862Y-92601000D01*
X161469138Y-92601000D01*
X161424001Y-92596555D01*
X161386505Y-92585180D01*
X161351946Y-92566708D01*
X161321653Y-92541847D01*
X161296792Y-92511554D01*
X161278320Y-92476995D01*
X161266945Y-92439499D01*
X161262500Y-92394362D01*
X161262500Y-91755638D01*
X161266945Y-91710501D01*
X161278320Y-91673005D01*
X161296792Y-91638446D01*
X161321653Y-91608153D01*
X161351946Y-91583292D01*
X161386505Y-91564820D01*
X161424001Y-91553445D01*
X161469138Y-91549000D01*
X162232862Y-91549000D01*
X162277999Y-91553445D01*
X162277999Y-91553445D01*
G37*
G36*
X111739983Y-89746934D02*
G01*
X111777372Y-89758276D01*
X111811826Y-89776691D01*
X111842025Y-89801475D01*
X111866809Y-89831674D01*
X111885224Y-89866128D01*
X111896566Y-89903517D01*
X111901000Y-89948535D01*
X111901000Y-90813465D01*
X111896566Y-90858483D01*
X111885224Y-90895872D01*
X111866809Y-90930326D01*
X111842025Y-90960525D01*
X111811826Y-90985309D01*
X111777372Y-91003724D01*
X111739983Y-91015066D01*
X111694965Y-91019500D01*
X110555035Y-91019500D01*
X110510017Y-91015066D01*
X110472628Y-91003724D01*
X110438174Y-90985309D01*
X110407975Y-90960525D01*
X110383191Y-90930326D01*
X110364776Y-90895872D01*
X110353434Y-90858483D01*
X110349000Y-90813465D01*
X110349000Y-89948535D01*
X110353434Y-89903517D01*
X110364776Y-89866128D01*
X110383191Y-89831674D01*
X110407975Y-89801475D01*
X110438174Y-89776691D01*
X110472628Y-89758276D01*
X110510017Y-89746934D01*
X110555035Y-89742500D01*
X111694965Y-89742500D01*
X111739983Y-89746934D01*
X111739983Y-89746934D01*
G37*
G36*
X179307142Y-89261242D02*
G01*
X179455101Y-89322529D01*
X179588255Y-89411499D01*
X179701501Y-89524745D01*
X179790471Y-89657899D01*
X179851758Y-89805858D01*
X179883000Y-89962925D01*
X179883000Y-90123075D01*
X179851758Y-90280142D01*
X179790471Y-90428101D01*
X179701501Y-90561255D01*
X179588255Y-90674501D01*
X179455101Y-90763471D01*
X179307142Y-90824758D01*
X179150075Y-90856000D01*
X178989925Y-90856000D01*
X178832858Y-90824758D01*
X178684899Y-90763471D01*
X178551745Y-90674501D01*
X178438499Y-90561255D01*
X178349529Y-90428101D01*
X178288242Y-90280142D01*
X178257000Y-90123075D01*
X178257000Y-89962925D01*
X178288242Y-89805858D01*
X178349529Y-89657899D01*
X178438499Y-89524745D01*
X178551745Y-89411499D01*
X178684899Y-89322529D01*
X178832858Y-89261242D01*
X178989925Y-89230000D01*
X179150075Y-89230000D01*
X179307142Y-89261242D01*
X179307142Y-89261242D01*
G37*
G36*
X162162499Y-88950945D02*
G01*
X162199995Y-88962320D01*
X162234554Y-88980792D01*
X162264847Y-89005653D01*
X162289708Y-89035946D01*
X162308180Y-89070505D01*
X162319555Y-89108001D01*
X162324000Y-89153138D01*
X162324000Y-89916862D01*
X162319555Y-89961999D01*
X162308180Y-89999495D01*
X162289708Y-90034054D01*
X162264847Y-90064347D01*
X162234554Y-90089208D01*
X162199995Y-90107680D01*
X162162499Y-90119055D01*
X162117362Y-90123500D01*
X161478638Y-90123500D01*
X161433501Y-90119055D01*
X161396005Y-90107680D01*
X161361446Y-90089208D01*
X161331153Y-90064347D01*
X161306292Y-90034054D01*
X161287820Y-89999495D01*
X161276445Y-89961999D01*
X161272000Y-89916862D01*
X161272000Y-89153138D01*
X161276445Y-89108001D01*
X161287820Y-89070505D01*
X161306292Y-89035946D01*
X161331153Y-89005653D01*
X161361446Y-88980792D01*
X161396005Y-88962320D01*
X161433501Y-88950945D01*
X161478638Y-88946500D01*
X162117362Y-88946500D01*
X162162499Y-88950945D01*
X162162499Y-88950945D01*
G37*
G36*
X120153901Y-89119360D02*
G01*
X120175925Y-89126041D01*
X120196222Y-89136890D01*
X120214011Y-89151489D01*
X120228610Y-89169278D01*
X120239459Y-89189575D01*
X120246140Y-89211599D01*
X120249000Y-89240640D01*
X120249000Y-89829360D01*
X120246140Y-89858401D01*
X120239459Y-89880425D01*
X120228610Y-89900722D01*
X120214011Y-89918511D01*
X120196222Y-89933110D01*
X120175925Y-89943959D01*
X120153901Y-89950640D01*
X120124860Y-89953500D01*
X119651140Y-89953500D01*
X119622099Y-89950640D01*
X119600075Y-89943959D01*
X119579778Y-89933110D01*
X119561989Y-89918511D01*
X119547390Y-89900722D01*
X119536541Y-89880425D01*
X119529860Y-89858401D01*
X119527000Y-89829360D01*
X119527000Y-89240640D01*
X119529860Y-89211599D01*
X119536541Y-89189575D01*
X119547390Y-89169278D01*
X119561989Y-89151489D01*
X119579778Y-89136890D01*
X119600075Y-89126041D01*
X119622099Y-89119360D01*
X119651140Y-89116500D01*
X120124860Y-89116500D01*
X120153901Y-89119360D01*
X120153901Y-89119360D01*
G37*
G36*
X118474499Y-88666945D02*
G01*
X118511995Y-88678320D01*
X118546554Y-88696792D01*
X118576847Y-88721653D01*
X118601708Y-88751946D01*
X118620180Y-88786505D01*
X118631555Y-88824001D01*
X118636000Y-88869138D01*
X118636000Y-89532862D01*
X118631555Y-89577999D01*
X118620180Y-89615495D01*
X118601708Y-89650054D01*
X118576847Y-89680347D01*
X118546554Y-89705208D01*
X118511995Y-89723680D01*
X118474499Y-89735055D01*
X118429362Y-89739500D01*
X117790638Y-89739500D01*
X117745501Y-89735055D01*
X117708005Y-89723680D01*
X117673446Y-89705208D01*
X117643153Y-89680347D01*
X117618292Y-89650054D01*
X117599820Y-89615495D01*
X117588445Y-89577999D01*
X117584000Y-89532862D01*
X117584000Y-88869138D01*
X117588445Y-88824001D01*
X117599820Y-88786505D01*
X117618292Y-88751946D01*
X117643153Y-88721653D01*
X117673446Y-88696792D01*
X117708005Y-88678320D01*
X117745501Y-88666945D01*
X117790638Y-88662500D01*
X118429362Y-88662500D01*
X118474499Y-88666945D01*
X118474499Y-88666945D01*
G37*
G36*
X91863999Y-88632445D02*
G01*
X91901495Y-88643820D01*
X91936054Y-88662292D01*
X91966347Y-88687153D01*
X91991208Y-88717446D01*
X92009680Y-88752005D01*
X92021055Y-88789501D01*
X92025500Y-88834638D01*
X92025500Y-89473362D01*
X92021055Y-89518499D01*
X92009680Y-89555995D01*
X91991208Y-89590554D01*
X91966347Y-89620847D01*
X91936054Y-89645708D01*
X91901495Y-89664180D01*
X91863999Y-89675555D01*
X91818862Y-89680000D01*
X91155138Y-89680000D01*
X91110001Y-89675555D01*
X91072505Y-89664180D01*
X91037946Y-89645708D01*
X91007653Y-89620847D01*
X90982792Y-89590554D01*
X90964320Y-89555995D01*
X90952945Y-89518499D01*
X90948500Y-89473362D01*
X90948500Y-88834638D01*
X90952945Y-88789501D01*
X90964320Y-88752005D01*
X90982792Y-88717446D01*
X91007653Y-88687153D01*
X91037946Y-88662292D01*
X91072505Y-88643820D01*
X91110001Y-88632445D01*
X91155138Y-88628000D01*
X91818862Y-88628000D01*
X91863999Y-88632445D01*
X91863999Y-88632445D01*
G37*
G36*
X90038999Y-88632445D02*
G01*
X90076495Y-88643820D01*
X90111054Y-88662292D01*
X90141347Y-88687153D01*
X90166208Y-88717446D01*
X90184680Y-88752005D01*
X90196055Y-88789501D01*
X90200500Y-88834638D01*
X90200500Y-89473362D01*
X90196055Y-89518499D01*
X90184680Y-89555995D01*
X90166208Y-89590554D01*
X90141347Y-89620847D01*
X90111054Y-89645708D01*
X90076495Y-89664180D01*
X90038999Y-89675555D01*
X89993862Y-89680000D01*
X89330138Y-89680000D01*
X89285001Y-89675555D01*
X89247505Y-89664180D01*
X89212946Y-89645708D01*
X89182653Y-89620847D01*
X89157792Y-89590554D01*
X89139320Y-89555995D01*
X89127945Y-89518499D01*
X89123500Y-89473362D01*
X89123500Y-88834638D01*
X89127945Y-88789501D01*
X89139320Y-88752005D01*
X89157792Y-88717446D01*
X89182653Y-88687153D01*
X89212946Y-88662292D01*
X89247505Y-88643820D01*
X89285001Y-88632445D01*
X89330138Y-88628000D01*
X89993862Y-88628000D01*
X90038999Y-88632445D01*
X90038999Y-88632445D01*
G37*
G36*
X183851114Y-86357314D02*
G01*
X184079959Y-86452105D01*
X184140058Y-86476999D01*
X184400100Y-86650753D01*
X184621247Y-86871900D01*
X184790947Y-87125875D01*
X184795002Y-87131944D01*
X184914686Y-87420886D01*
X184975700Y-87727624D01*
X184975700Y-88040376D01*
X184914686Y-88347114D01*
X184805695Y-88610240D01*
X184795001Y-88636058D01*
X184621247Y-88896100D01*
X184400100Y-89117247D01*
X184140058Y-89291001D01*
X184140057Y-89291002D01*
X184140056Y-89291002D01*
X183851114Y-89410686D01*
X183544376Y-89471700D01*
X183231624Y-89471700D01*
X182924886Y-89410686D01*
X182635944Y-89291002D01*
X182635943Y-89291002D01*
X182635942Y-89291001D01*
X182375900Y-89117247D01*
X182154753Y-88896100D01*
X181980999Y-88636058D01*
X181970305Y-88610240D01*
X181861314Y-88347114D01*
X181800300Y-88040376D01*
X181800300Y-87727624D01*
X181861314Y-87420886D01*
X181980998Y-87131944D01*
X181985053Y-87125875D01*
X182154753Y-86871900D01*
X182375900Y-86650753D01*
X182635942Y-86476999D01*
X182696041Y-86452105D01*
X182924886Y-86357314D01*
X183231624Y-86296300D01*
X183544376Y-86296300D01*
X183851114Y-86357314D01*
X183851114Y-86357314D01*
G37*
G36*
X120153901Y-87984360D02*
G01*
X120175925Y-87991041D01*
X120196222Y-88001890D01*
X120214011Y-88016489D01*
X120228610Y-88034278D01*
X120239459Y-88054575D01*
X120246140Y-88076599D01*
X120249000Y-88105640D01*
X120249000Y-88694360D01*
X120246140Y-88723401D01*
X120239459Y-88745425D01*
X120228610Y-88765722D01*
X120214011Y-88783511D01*
X120196222Y-88798110D01*
X120175925Y-88808959D01*
X120153901Y-88815640D01*
X120124860Y-88818500D01*
X119651140Y-88818500D01*
X119622099Y-88815640D01*
X119600075Y-88808959D01*
X119579778Y-88798110D01*
X119561989Y-88783511D01*
X119547390Y-88765722D01*
X119536541Y-88745425D01*
X119529860Y-88723401D01*
X119527000Y-88694360D01*
X119527000Y-88105640D01*
X119529860Y-88076599D01*
X119536541Y-88054575D01*
X119547390Y-88034278D01*
X119561989Y-88016489D01*
X119579778Y-88001890D01*
X119600075Y-87991041D01*
X119622099Y-87984360D01*
X119651140Y-87981500D01*
X120124860Y-87981500D01*
X120153901Y-87984360D01*
X120153901Y-87984360D01*
G37*
G36*
X116569499Y-87523945D02*
G01*
X116606995Y-87535320D01*
X116641554Y-87553792D01*
X116671847Y-87578653D01*
X116696708Y-87608946D01*
X116715180Y-87643505D01*
X116726555Y-87681001D01*
X116731000Y-87726138D01*
X116731000Y-88389862D01*
X116726555Y-88434999D01*
X116715180Y-88472495D01*
X116696708Y-88507054D01*
X116671847Y-88537347D01*
X116641554Y-88562208D01*
X116606995Y-88580680D01*
X116569499Y-88592055D01*
X116524362Y-88596500D01*
X115885638Y-88596500D01*
X115840501Y-88592055D01*
X115803005Y-88580680D01*
X115768446Y-88562208D01*
X115738153Y-88537347D01*
X115713292Y-88507054D01*
X115694820Y-88472495D01*
X115683445Y-88434999D01*
X115679000Y-88389862D01*
X115679000Y-87726138D01*
X115683445Y-87681001D01*
X115694820Y-87643505D01*
X115713292Y-87608946D01*
X115738153Y-87578653D01*
X115768446Y-87553792D01*
X115803005Y-87535320D01*
X115840501Y-87523945D01*
X115885638Y-87519500D01*
X116524362Y-87519500D01*
X116569499Y-87523945D01*
X116569499Y-87523945D01*
G37*
G36*
X162162499Y-87225945D02*
G01*
X162199995Y-87237320D01*
X162234554Y-87255792D01*
X162264847Y-87280653D01*
X162289708Y-87310946D01*
X162308180Y-87345505D01*
X162319555Y-87383001D01*
X162324000Y-87428138D01*
X162324000Y-88191862D01*
X162319555Y-88236999D01*
X162308180Y-88274495D01*
X162289708Y-88309054D01*
X162264847Y-88339347D01*
X162234554Y-88364208D01*
X162199995Y-88382680D01*
X162162499Y-88394055D01*
X162117362Y-88398500D01*
X161478638Y-88398500D01*
X161433501Y-88394055D01*
X161396005Y-88382680D01*
X161361446Y-88364208D01*
X161331153Y-88339347D01*
X161306292Y-88309054D01*
X161287820Y-88274495D01*
X161276445Y-88236999D01*
X161272000Y-88191862D01*
X161272000Y-87428138D01*
X161276445Y-87383001D01*
X161287820Y-87345505D01*
X161306292Y-87310946D01*
X161331153Y-87280653D01*
X161361446Y-87255792D01*
X161396005Y-87237320D01*
X161433501Y-87225945D01*
X161478638Y-87221500D01*
X162117362Y-87221500D01*
X162162499Y-87225945D01*
X162162499Y-87225945D01*
G37*
G36*
X118474499Y-86841945D02*
G01*
X118511995Y-86853320D01*
X118546554Y-86871792D01*
X118576847Y-86896653D01*
X118601708Y-86926946D01*
X118620180Y-86961505D01*
X118631555Y-86999001D01*
X118636000Y-87044138D01*
X118636000Y-87707862D01*
X118631555Y-87752999D01*
X118620180Y-87790495D01*
X118601708Y-87825054D01*
X118576847Y-87855347D01*
X118546554Y-87880208D01*
X118511995Y-87898680D01*
X118474499Y-87910055D01*
X118429362Y-87914500D01*
X117790638Y-87914500D01*
X117745501Y-87910055D01*
X117708005Y-87898680D01*
X117673446Y-87880208D01*
X117643153Y-87855347D01*
X117618292Y-87825054D01*
X117599820Y-87790495D01*
X117588445Y-87752999D01*
X117584000Y-87707862D01*
X117584000Y-87044138D01*
X117588445Y-86999001D01*
X117599820Y-86961505D01*
X117618292Y-86926946D01*
X117643153Y-86896653D01*
X117673446Y-86871792D01*
X117708005Y-86853320D01*
X117745501Y-86841945D01*
X117790638Y-86837500D01*
X118429362Y-86837500D01*
X118474499Y-86841945D01*
X118474499Y-86841945D01*
G37*
G36*
X179307142Y-86264042D02*
G01*
X179455101Y-86325329D01*
X179588255Y-86414299D01*
X179701501Y-86527545D01*
X179790471Y-86660699D01*
X179851758Y-86808658D01*
X179883000Y-86965725D01*
X179883000Y-87125875D01*
X179851758Y-87282942D01*
X179790471Y-87430901D01*
X179701501Y-87564055D01*
X179588255Y-87677301D01*
X179455101Y-87766271D01*
X179307142Y-87827558D01*
X179150075Y-87858800D01*
X178989925Y-87858800D01*
X178832858Y-87827558D01*
X178684899Y-87766271D01*
X178551745Y-87677301D01*
X178438499Y-87564055D01*
X178349529Y-87430901D01*
X178288242Y-87282942D01*
X178257000Y-87125875D01*
X178257000Y-86965725D01*
X178288242Y-86808658D01*
X178349529Y-86660699D01*
X178438499Y-86527545D01*
X178551745Y-86414299D01*
X178684899Y-86325329D01*
X178832858Y-86264042D01*
X178989925Y-86232800D01*
X179150075Y-86232800D01*
X179307142Y-86264042D01*
X179307142Y-86264042D01*
G37*
G36*
X91816999Y-86600445D02*
G01*
X91854495Y-86611820D01*
X91889054Y-86630292D01*
X91919347Y-86655153D01*
X91944208Y-86685446D01*
X91962680Y-86720005D01*
X91974055Y-86757501D01*
X91978500Y-86802638D01*
X91978500Y-87441362D01*
X91974055Y-87486499D01*
X91962680Y-87523995D01*
X91944208Y-87558554D01*
X91919347Y-87588847D01*
X91889054Y-87613708D01*
X91854495Y-87632180D01*
X91816999Y-87643555D01*
X91771862Y-87648000D01*
X91108138Y-87648000D01*
X91063001Y-87643555D01*
X91025505Y-87632180D01*
X90990946Y-87613708D01*
X90960653Y-87588847D01*
X90935792Y-87558554D01*
X90917320Y-87523995D01*
X90905945Y-87486499D01*
X90901500Y-87441362D01*
X90901500Y-86802638D01*
X90905945Y-86757501D01*
X90917320Y-86720005D01*
X90935792Y-86685446D01*
X90960653Y-86655153D01*
X90990946Y-86630292D01*
X91025505Y-86611820D01*
X91063001Y-86600445D01*
X91108138Y-86596000D01*
X91771862Y-86596000D01*
X91816999Y-86600445D01*
X91816999Y-86600445D01*
G37*
G36*
X93641999Y-86600445D02*
G01*
X93679495Y-86611820D01*
X93714054Y-86630292D01*
X93744347Y-86655153D01*
X93769208Y-86685446D01*
X93787680Y-86720005D01*
X93799055Y-86757501D01*
X93803500Y-86802638D01*
X93803500Y-87441362D01*
X93799055Y-87486499D01*
X93787680Y-87523995D01*
X93769208Y-87558554D01*
X93744347Y-87588847D01*
X93714054Y-87613708D01*
X93679495Y-87632180D01*
X93641999Y-87643555D01*
X93596862Y-87648000D01*
X92933138Y-87648000D01*
X92888001Y-87643555D01*
X92850505Y-87632180D01*
X92815946Y-87613708D01*
X92785653Y-87588847D01*
X92760792Y-87558554D01*
X92742320Y-87523995D01*
X92730945Y-87486499D01*
X92726500Y-87441362D01*
X92726500Y-86802638D01*
X92730945Y-86757501D01*
X92742320Y-86720005D01*
X92760792Y-86685446D01*
X92785653Y-86655153D01*
X92815946Y-86630292D01*
X92850505Y-86611820D01*
X92888001Y-86600445D01*
X92933138Y-86596000D01*
X93596862Y-86596000D01*
X93641999Y-86600445D01*
X93641999Y-86600445D01*
G37*
G36*
X141126219Y-86339665D02*
G01*
X141163715Y-86351040D01*
X141198274Y-86369512D01*
X141228567Y-86394373D01*
X141253428Y-86424666D01*
X141271900Y-86459225D01*
X141283275Y-86496721D01*
X141287720Y-86541858D01*
X141287720Y-87205582D01*
X141283275Y-87250719D01*
X141271900Y-87288215D01*
X141253428Y-87322774D01*
X141228567Y-87353067D01*
X141198274Y-87377928D01*
X141163715Y-87396400D01*
X141126219Y-87407775D01*
X141081082Y-87412220D01*
X140442358Y-87412220D01*
X140397221Y-87407775D01*
X140359725Y-87396400D01*
X140325166Y-87377928D01*
X140294873Y-87353067D01*
X140270012Y-87322774D01*
X140251540Y-87288215D01*
X140240165Y-87250719D01*
X140235720Y-87205582D01*
X140235720Y-86541858D01*
X140240165Y-86496721D01*
X140251540Y-86459225D01*
X140270012Y-86424666D01*
X140294873Y-86394373D01*
X140325166Y-86369512D01*
X140359725Y-86351040D01*
X140397221Y-86339665D01*
X140442358Y-86335220D01*
X141081082Y-86335220D01*
X141126219Y-86339665D01*
X141126219Y-86339665D01*
G37*
G36*
X139589519Y-86339025D02*
G01*
X139627015Y-86350400D01*
X139661574Y-86368872D01*
X139691867Y-86393733D01*
X139716728Y-86424026D01*
X139735200Y-86458585D01*
X139746575Y-86496081D01*
X139751020Y-86541218D01*
X139751020Y-87204942D01*
X139746575Y-87250079D01*
X139735200Y-87287575D01*
X139716728Y-87322134D01*
X139691867Y-87352427D01*
X139661574Y-87377288D01*
X139627015Y-87395760D01*
X139589519Y-87407135D01*
X139544382Y-87411580D01*
X138905658Y-87411580D01*
X138860521Y-87407135D01*
X138823025Y-87395760D01*
X138788466Y-87377288D01*
X138758173Y-87352427D01*
X138733312Y-87322134D01*
X138714840Y-87287575D01*
X138703465Y-87250079D01*
X138699020Y-87204942D01*
X138699020Y-86541218D01*
X138703465Y-86496081D01*
X138714840Y-86458585D01*
X138733312Y-86424026D01*
X138758173Y-86393733D01*
X138788466Y-86368872D01*
X138823025Y-86350400D01*
X138860521Y-86339025D01*
X138905658Y-86334580D01*
X139544382Y-86334580D01*
X139589519Y-86339025D01*
X139589519Y-86339025D01*
G37*
G36*
X120405901Y-86509860D02*
G01*
X120427925Y-86516541D01*
X120448222Y-86527390D01*
X120466011Y-86541989D01*
X120480610Y-86559778D01*
X120491459Y-86580075D01*
X120498140Y-86602099D01*
X120501000Y-86631140D01*
X120501000Y-87104860D01*
X120498140Y-87133901D01*
X120491459Y-87155925D01*
X120480610Y-87176222D01*
X120466011Y-87194011D01*
X120448222Y-87208610D01*
X120427925Y-87219459D01*
X120405901Y-87226140D01*
X120376860Y-87229000D01*
X119788140Y-87229000D01*
X119759099Y-87226140D01*
X119737075Y-87219459D01*
X119716778Y-87208610D01*
X119698989Y-87194011D01*
X119684390Y-87176222D01*
X119673541Y-87155925D01*
X119666860Y-87133901D01*
X119664000Y-87104860D01*
X119664000Y-86631140D01*
X119666860Y-86602099D01*
X119673541Y-86580075D01*
X119684390Y-86559778D01*
X119698989Y-86541989D01*
X119716778Y-86527390D01*
X119737075Y-86516541D01*
X119759099Y-86509860D01*
X119788140Y-86507000D01*
X120376860Y-86507000D01*
X120405901Y-86509860D01*
X120405901Y-86509860D01*
G37*
G36*
X121540901Y-86509860D02*
G01*
X121562925Y-86516541D01*
X121583222Y-86527390D01*
X121601011Y-86541989D01*
X121615610Y-86559778D01*
X121626459Y-86580075D01*
X121633140Y-86602099D01*
X121636000Y-86631140D01*
X121636000Y-87104860D01*
X121633140Y-87133901D01*
X121626459Y-87155925D01*
X121615610Y-87176222D01*
X121601011Y-87194011D01*
X121583222Y-87208610D01*
X121562925Y-87219459D01*
X121540901Y-87226140D01*
X121511860Y-87229000D01*
X120923140Y-87229000D01*
X120894099Y-87226140D01*
X120872075Y-87219459D01*
X120851778Y-87208610D01*
X120833989Y-87194011D01*
X120819390Y-87176222D01*
X120808541Y-87155925D01*
X120801860Y-87133901D01*
X120799000Y-87104860D01*
X120799000Y-86631140D01*
X120801860Y-86602099D01*
X120808541Y-86580075D01*
X120819390Y-86559778D01*
X120833989Y-86541989D01*
X120851778Y-86527390D01*
X120872075Y-86516541D01*
X120894099Y-86509860D01*
X120923140Y-86507000D01*
X121511860Y-86507000D01*
X121540901Y-86509860D01*
X121540901Y-86509860D01*
G37*
G36*
X116569499Y-85698945D02*
G01*
X116606995Y-85710320D01*
X116641554Y-85728792D01*
X116671847Y-85753653D01*
X116696708Y-85783946D01*
X116715180Y-85818505D01*
X116726555Y-85856001D01*
X116731000Y-85901138D01*
X116731000Y-86564862D01*
X116726555Y-86609999D01*
X116715180Y-86647495D01*
X116696708Y-86682054D01*
X116671847Y-86712347D01*
X116641554Y-86737208D01*
X116606995Y-86755680D01*
X116569499Y-86767055D01*
X116524362Y-86771500D01*
X115885638Y-86771500D01*
X115840501Y-86767055D01*
X115803005Y-86755680D01*
X115768446Y-86737208D01*
X115738153Y-86712347D01*
X115713292Y-86682054D01*
X115694820Y-86647495D01*
X115683445Y-86609999D01*
X115679000Y-86564862D01*
X115679000Y-85901138D01*
X115683445Y-85856001D01*
X115694820Y-85818505D01*
X115713292Y-85783946D01*
X115738153Y-85753653D01*
X115768446Y-85728792D01*
X115803005Y-85710320D01*
X115840501Y-85698945D01*
X115885638Y-85694500D01*
X116524362Y-85694500D01*
X116569499Y-85698945D01*
X116569499Y-85698945D01*
G37*
G36*
X111548999Y-85330445D02*
G01*
X111586495Y-85341820D01*
X111621054Y-85360292D01*
X111651347Y-85385153D01*
X111676208Y-85415446D01*
X111694680Y-85450005D01*
X111706055Y-85487501D01*
X111710500Y-85532638D01*
X111710500Y-86171362D01*
X111706055Y-86216499D01*
X111694680Y-86253995D01*
X111676208Y-86288554D01*
X111651347Y-86318847D01*
X111621054Y-86343708D01*
X111586495Y-86362180D01*
X111548999Y-86373555D01*
X111503862Y-86378000D01*
X110840138Y-86378000D01*
X110795001Y-86373555D01*
X110757505Y-86362180D01*
X110722946Y-86343708D01*
X110692653Y-86318847D01*
X110667792Y-86288554D01*
X110649320Y-86253995D01*
X110637945Y-86216499D01*
X110633500Y-86171362D01*
X110633500Y-85532638D01*
X110637945Y-85487501D01*
X110649320Y-85450005D01*
X110667792Y-85415446D01*
X110692653Y-85385153D01*
X110722946Y-85360292D01*
X110757505Y-85341820D01*
X110795001Y-85330445D01*
X110840138Y-85326000D01*
X111503862Y-85326000D01*
X111548999Y-85330445D01*
X111548999Y-85330445D01*
G37*
G36*
X109723999Y-85330445D02*
G01*
X109761495Y-85341820D01*
X109796054Y-85360292D01*
X109826347Y-85385153D01*
X109851208Y-85415446D01*
X109869680Y-85450005D01*
X109881055Y-85487501D01*
X109885500Y-85532638D01*
X109885500Y-86171362D01*
X109881055Y-86216499D01*
X109869680Y-86253995D01*
X109851208Y-86288554D01*
X109826347Y-86318847D01*
X109796054Y-86343708D01*
X109761495Y-86362180D01*
X109723999Y-86373555D01*
X109678862Y-86378000D01*
X109015138Y-86378000D01*
X108970001Y-86373555D01*
X108932505Y-86362180D01*
X108897946Y-86343708D01*
X108867653Y-86318847D01*
X108842792Y-86288554D01*
X108824320Y-86253995D01*
X108812945Y-86216499D01*
X108808500Y-86171362D01*
X108808500Y-85532638D01*
X108812945Y-85487501D01*
X108824320Y-85450005D01*
X108842792Y-85415446D01*
X108867653Y-85385153D01*
X108897946Y-85360292D01*
X108932505Y-85341820D01*
X108970001Y-85330445D01*
X109015138Y-85326000D01*
X109678862Y-85326000D01*
X109723999Y-85330445D01*
X109723999Y-85330445D01*
G37*
G36*
X87173999Y-85842000D02*
G01*
X77672001Y-85842000D01*
X77672001Y-74940000D01*
X87173999Y-74940000D01*
X87173999Y-85842000D01*
X87173999Y-85842000D01*
G37*
G36*
X118566999Y-84568445D02*
G01*
X118604495Y-84579820D01*
X118639054Y-84598292D01*
X118669347Y-84623153D01*
X118694208Y-84653446D01*
X118712680Y-84688005D01*
X118724055Y-84725501D01*
X118728500Y-84770638D01*
X118728500Y-85409362D01*
X118724055Y-85454499D01*
X118712680Y-85491995D01*
X118694208Y-85526554D01*
X118669347Y-85556847D01*
X118639054Y-85581708D01*
X118604495Y-85600180D01*
X118566999Y-85611555D01*
X118521862Y-85616000D01*
X117858138Y-85616000D01*
X117813001Y-85611555D01*
X117775505Y-85600180D01*
X117740946Y-85581708D01*
X117710653Y-85556847D01*
X117685792Y-85526554D01*
X117667320Y-85491995D01*
X117655945Y-85454499D01*
X117651500Y-85409362D01*
X117651500Y-84770638D01*
X117655945Y-84725501D01*
X117667320Y-84688005D01*
X117685792Y-84653446D01*
X117710653Y-84623153D01*
X117740946Y-84598292D01*
X117775505Y-84579820D01*
X117813001Y-84568445D01*
X117858138Y-84564000D01*
X118521862Y-84564000D01*
X118566999Y-84568445D01*
X118566999Y-84568445D01*
G37*
G36*
X120391999Y-84568445D02*
G01*
X120429495Y-84579820D01*
X120464054Y-84598292D01*
X120494347Y-84623153D01*
X120519208Y-84653446D01*
X120537680Y-84688005D01*
X120549055Y-84725501D01*
X120553500Y-84770638D01*
X120553500Y-85409362D01*
X120549055Y-85454499D01*
X120537680Y-85491995D01*
X120519208Y-85526554D01*
X120494347Y-85556847D01*
X120464054Y-85581708D01*
X120429495Y-85600180D01*
X120391999Y-85611555D01*
X120346862Y-85616000D01*
X119683138Y-85616000D01*
X119638001Y-85611555D01*
X119600505Y-85600180D01*
X119565946Y-85581708D01*
X119535653Y-85556847D01*
X119510792Y-85526554D01*
X119492320Y-85491995D01*
X119480945Y-85454499D01*
X119476500Y-85409362D01*
X119476500Y-84770638D01*
X119480945Y-84725501D01*
X119492320Y-84688005D01*
X119510792Y-84653446D01*
X119535653Y-84623153D01*
X119565946Y-84598292D01*
X119600505Y-84579820D01*
X119638001Y-84568445D01*
X119683138Y-84564000D01*
X120346862Y-84564000D01*
X120391999Y-84568445D01*
X120391999Y-84568445D01*
G37*
G36*
X101016000Y-85598200D02*
G01*
X95326000Y-85598200D01*
X95326000Y-83057800D01*
X101016000Y-83057800D01*
X101016000Y-85598200D01*
X101016000Y-85598200D01*
G37*
G36*
X102794000Y-85598200D02*
G01*
X101803000Y-85598200D01*
X101803000Y-83057800D01*
X102794000Y-83057800D01*
X102794000Y-85598200D01*
X102794000Y-85598200D01*
G37*
G36*
X141126219Y-84514665D02*
G01*
X141163715Y-84526040D01*
X141198274Y-84544512D01*
X141228567Y-84569373D01*
X141253428Y-84599666D01*
X141271900Y-84634225D01*
X141283275Y-84671721D01*
X141287720Y-84716858D01*
X141287720Y-85380582D01*
X141283275Y-85425719D01*
X141271900Y-85463215D01*
X141253428Y-85497774D01*
X141228567Y-85528067D01*
X141198274Y-85552928D01*
X141163715Y-85571400D01*
X141126219Y-85582775D01*
X141081082Y-85587220D01*
X140442358Y-85587220D01*
X140397221Y-85582775D01*
X140359725Y-85571400D01*
X140325166Y-85552928D01*
X140294873Y-85528067D01*
X140270012Y-85497774D01*
X140251540Y-85463215D01*
X140240165Y-85425719D01*
X140235720Y-85380582D01*
X140235720Y-84716858D01*
X140240165Y-84671721D01*
X140251540Y-84634225D01*
X140270012Y-84599666D01*
X140294873Y-84569373D01*
X140325166Y-84544512D01*
X140359725Y-84526040D01*
X140397221Y-84514665D01*
X140442358Y-84510220D01*
X141081082Y-84510220D01*
X141126219Y-84514665D01*
X141126219Y-84514665D01*
G37*
G36*
X139589519Y-84514025D02*
G01*
X139627015Y-84525400D01*
X139661574Y-84543872D01*
X139691867Y-84568733D01*
X139716728Y-84599026D01*
X139735200Y-84633585D01*
X139746575Y-84671081D01*
X139751020Y-84716218D01*
X139751020Y-85379942D01*
X139746575Y-85425079D01*
X139735200Y-85462575D01*
X139716728Y-85497134D01*
X139691867Y-85527427D01*
X139661574Y-85552288D01*
X139627015Y-85570760D01*
X139589519Y-85582135D01*
X139544382Y-85586580D01*
X138905658Y-85586580D01*
X138860521Y-85582135D01*
X138823025Y-85570760D01*
X138788466Y-85552288D01*
X138758173Y-85527427D01*
X138733312Y-85497134D01*
X138714840Y-85462575D01*
X138703465Y-85425079D01*
X138699020Y-85379942D01*
X138699020Y-84716218D01*
X138703465Y-84671081D01*
X138714840Y-84633585D01*
X138733312Y-84599026D01*
X138758173Y-84568733D01*
X138788466Y-84543872D01*
X138823025Y-84525400D01*
X138860521Y-84514025D01*
X138905658Y-84509580D01*
X139544382Y-84509580D01*
X139589519Y-84514025D01*
X139589519Y-84514025D01*
G37*
G36*
X128408901Y-84674360D02*
G01*
X128430925Y-84681041D01*
X128451222Y-84691890D01*
X128469011Y-84706489D01*
X128483610Y-84724278D01*
X128494459Y-84744575D01*
X128501140Y-84766599D01*
X128504000Y-84795640D01*
X128504000Y-85384360D01*
X128501140Y-85413401D01*
X128494459Y-85435425D01*
X128483610Y-85455722D01*
X128469011Y-85473511D01*
X128451222Y-85488110D01*
X128430925Y-85498959D01*
X128408901Y-85505640D01*
X128379860Y-85508500D01*
X127906140Y-85508500D01*
X127877099Y-85505640D01*
X127855075Y-85498959D01*
X127834778Y-85488110D01*
X127816989Y-85473511D01*
X127802390Y-85455722D01*
X127791541Y-85435425D01*
X127784860Y-85413401D01*
X127782000Y-85384360D01*
X127782000Y-84795640D01*
X127784860Y-84766599D01*
X127791541Y-84744575D01*
X127802390Y-84724278D01*
X127816989Y-84706489D01*
X127834778Y-84691890D01*
X127855075Y-84681041D01*
X127877099Y-84674360D01*
X127906140Y-84671500D01*
X128379860Y-84671500D01*
X128408901Y-84674360D01*
X128408901Y-84674360D01*
G37*
G36*
X129678901Y-84674360D02*
G01*
X129700925Y-84681041D01*
X129721222Y-84691890D01*
X129739011Y-84706489D01*
X129753610Y-84724278D01*
X129764459Y-84744575D01*
X129771140Y-84766599D01*
X129774000Y-84795640D01*
X129774000Y-85384360D01*
X129771140Y-85413401D01*
X129764459Y-85435425D01*
X129753610Y-85455722D01*
X129739011Y-85473511D01*
X129721222Y-85488110D01*
X129700925Y-85498959D01*
X129678901Y-85505640D01*
X129649860Y-85508500D01*
X129176140Y-85508500D01*
X129147099Y-85505640D01*
X129125075Y-85498959D01*
X129104778Y-85488110D01*
X129086989Y-85473511D01*
X129072390Y-85455722D01*
X129061541Y-85435425D01*
X129054860Y-85413401D01*
X129052000Y-85384360D01*
X129052000Y-84795640D01*
X129054860Y-84766599D01*
X129061541Y-84744575D01*
X129072390Y-84724278D01*
X129086989Y-84706489D01*
X129104778Y-84691890D01*
X129125075Y-84681041D01*
X129147099Y-84674360D01*
X129176140Y-84671500D01*
X129649860Y-84671500D01*
X129678901Y-84674360D01*
X129678901Y-84674360D01*
G37*
G36*
X132395401Y-84731860D02*
G01*
X132417425Y-84738541D01*
X132437722Y-84749390D01*
X132455511Y-84763989D01*
X132470110Y-84781778D01*
X132480959Y-84802075D01*
X132487640Y-84824099D01*
X132490500Y-84853140D01*
X132490500Y-85326860D01*
X132487640Y-85355901D01*
X132480959Y-85377925D01*
X132470110Y-85398222D01*
X132455511Y-85416011D01*
X132437722Y-85430610D01*
X132417425Y-85441459D01*
X132395401Y-85448140D01*
X132366360Y-85451000D01*
X131777640Y-85451000D01*
X131748599Y-85448140D01*
X131726575Y-85441459D01*
X131706278Y-85430610D01*
X131688489Y-85416011D01*
X131673890Y-85398222D01*
X131663041Y-85377925D01*
X131656360Y-85355901D01*
X131653500Y-85326860D01*
X131653500Y-84853140D01*
X131656360Y-84824099D01*
X131663041Y-84802075D01*
X131673890Y-84781778D01*
X131688489Y-84763989D01*
X131706278Y-84749390D01*
X131726575Y-84738541D01*
X131748599Y-84731860D01*
X131777640Y-84729000D01*
X132366360Y-84729000D01*
X132395401Y-84731860D01*
X132395401Y-84731860D01*
G37*
G36*
X131260401Y-84731860D02*
G01*
X131282425Y-84738541D01*
X131302722Y-84749390D01*
X131320511Y-84763989D01*
X131335110Y-84781778D01*
X131345959Y-84802075D01*
X131352640Y-84824099D01*
X131355500Y-84853140D01*
X131355500Y-85326860D01*
X131352640Y-85355901D01*
X131345959Y-85377925D01*
X131335110Y-85398222D01*
X131320511Y-85416011D01*
X131302722Y-85430610D01*
X131282425Y-85441459D01*
X131260401Y-85448140D01*
X131231360Y-85451000D01*
X130642640Y-85451000D01*
X130613599Y-85448140D01*
X130591575Y-85441459D01*
X130571278Y-85430610D01*
X130553489Y-85416011D01*
X130538890Y-85398222D01*
X130528041Y-85377925D01*
X130521360Y-85355901D01*
X130518500Y-85326860D01*
X130518500Y-84853140D01*
X130521360Y-84824099D01*
X130528041Y-84802075D01*
X130538890Y-84781778D01*
X130553489Y-84763989D01*
X130571278Y-84749390D01*
X130591575Y-84738541D01*
X130613599Y-84731860D01*
X130642640Y-84729000D01*
X131231360Y-84729000D01*
X131260401Y-84731860D01*
X131260401Y-84731860D01*
G37*
G36*
X179307142Y-83266842D02*
G01*
X179455101Y-83328129D01*
X179588255Y-83417099D01*
X179701501Y-83530345D01*
X179790471Y-83663499D01*
X179851758Y-83811458D01*
X179883000Y-83968525D01*
X179883000Y-84128675D01*
X179851758Y-84285742D01*
X179790471Y-84433701D01*
X179701501Y-84566855D01*
X179588255Y-84680101D01*
X179455101Y-84769071D01*
X179307142Y-84830358D01*
X179150075Y-84861600D01*
X178989925Y-84861600D01*
X178832858Y-84830358D01*
X178684899Y-84769071D01*
X178551745Y-84680101D01*
X178438499Y-84566855D01*
X178349529Y-84433701D01*
X178288242Y-84285742D01*
X178257000Y-84128675D01*
X178257000Y-83968525D01*
X178288242Y-83811458D01*
X178349529Y-83663499D01*
X178438499Y-83530345D01*
X178551745Y-83417099D01*
X178684899Y-83328129D01*
X178832858Y-83266842D01*
X178989925Y-83235600D01*
X179150075Y-83235600D01*
X179307142Y-83266842D01*
X179307142Y-83266842D01*
G37*
G36*
X154445040Y-84739680D02*
G01*
X146544960Y-84739680D01*
X146544960Y-83337200D01*
X154445040Y-83337200D01*
X154445040Y-84739680D01*
X154445040Y-84739680D01*
G37*
G36*
X128408901Y-83539360D02*
G01*
X128430925Y-83546041D01*
X128451222Y-83556890D01*
X128469011Y-83571489D01*
X128483610Y-83589278D01*
X128494459Y-83609575D01*
X128501140Y-83631599D01*
X128504000Y-83660640D01*
X128504000Y-84249360D01*
X128501140Y-84278401D01*
X128494459Y-84300425D01*
X128483610Y-84320722D01*
X128469011Y-84338511D01*
X128451222Y-84353110D01*
X128430925Y-84363959D01*
X128408901Y-84370640D01*
X128379860Y-84373500D01*
X127906140Y-84373500D01*
X127877099Y-84370640D01*
X127855075Y-84363959D01*
X127834778Y-84353110D01*
X127816989Y-84338511D01*
X127802390Y-84320722D01*
X127791541Y-84300425D01*
X127784860Y-84278401D01*
X127782000Y-84249360D01*
X127782000Y-83660640D01*
X127784860Y-83631599D01*
X127791541Y-83609575D01*
X127802390Y-83589278D01*
X127816989Y-83571489D01*
X127834778Y-83556890D01*
X127855075Y-83546041D01*
X127877099Y-83539360D01*
X127906140Y-83536500D01*
X128379860Y-83536500D01*
X128408901Y-83539360D01*
X128408901Y-83539360D01*
G37*
G36*
X129678901Y-83539360D02*
G01*
X129700925Y-83546041D01*
X129721222Y-83556890D01*
X129739011Y-83571489D01*
X129753610Y-83589278D01*
X129764459Y-83609575D01*
X129771140Y-83631599D01*
X129774000Y-83660640D01*
X129774000Y-84249360D01*
X129771140Y-84278401D01*
X129764459Y-84300425D01*
X129753610Y-84320722D01*
X129739011Y-84338511D01*
X129721222Y-84353110D01*
X129700925Y-84363959D01*
X129678901Y-84370640D01*
X129649860Y-84373500D01*
X129176140Y-84373500D01*
X129147099Y-84370640D01*
X129125075Y-84363959D01*
X129104778Y-84353110D01*
X129086989Y-84338511D01*
X129072390Y-84320722D01*
X129061541Y-84300425D01*
X129054860Y-84278401D01*
X129052000Y-84249360D01*
X129052000Y-83660640D01*
X129054860Y-83631599D01*
X129061541Y-83609575D01*
X129072390Y-83589278D01*
X129086989Y-83571489D01*
X129104778Y-83556890D01*
X129125075Y-83546041D01*
X129147099Y-83539360D01*
X129176140Y-83536500D01*
X129649860Y-83536500D01*
X129678901Y-83539360D01*
X129678901Y-83539360D01*
G37*
G36*
X93924000Y-83532000D02*
G01*
X89222000Y-83532000D01*
X89222000Y-82330000D01*
X93924000Y-82330000D01*
X93924000Y-83532000D01*
X93924000Y-83532000D01*
G37*
G36*
X121661999Y-82409445D02*
G01*
X121699495Y-82420820D01*
X121734054Y-82439292D01*
X121764347Y-82464153D01*
X121789208Y-82494446D01*
X121807680Y-82529005D01*
X121819055Y-82566501D01*
X121823500Y-82611638D01*
X121823500Y-83250362D01*
X121819055Y-83295499D01*
X121807680Y-83332995D01*
X121789208Y-83367554D01*
X121764347Y-83397847D01*
X121734054Y-83422708D01*
X121699495Y-83441180D01*
X121661999Y-83452555D01*
X121616862Y-83457000D01*
X120953138Y-83457000D01*
X120908001Y-83452555D01*
X120870505Y-83441180D01*
X120835946Y-83422708D01*
X120805653Y-83397847D01*
X120780792Y-83367554D01*
X120762320Y-83332995D01*
X120750945Y-83295499D01*
X120746500Y-83250362D01*
X120746500Y-82611638D01*
X120750945Y-82566501D01*
X120762320Y-82529005D01*
X120780792Y-82494446D01*
X120805653Y-82464153D01*
X120835946Y-82439292D01*
X120870505Y-82420820D01*
X120908001Y-82409445D01*
X120953138Y-82405000D01*
X121616862Y-82405000D01*
X121661999Y-82409445D01*
X121661999Y-82409445D01*
G37*
G36*
X119836999Y-82409445D02*
G01*
X119874495Y-82420820D01*
X119909054Y-82439292D01*
X119939347Y-82464153D01*
X119964208Y-82494446D01*
X119982680Y-82529005D01*
X119994055Y-82566501D01*
X119998500Y-82611638D01*
X119998500Y-83250362D01*
X119994055Y-83295499D01*
X119982680Y-83332995D01*
X119964208Y-83367554D01*
X119939347Y-83397847D01*
X119909054Y-83422708D01*
X119874495Y-83441180D01*
X119836999Y-83452555D01*
X119791862Y-83457000D01*
X119128138Y-83457000D01*
X119083001Y-83452555D01*
X119045505Y-83441180D01*
X119010946Y-83422708D01*
X118980653Y-83397847D01*
X118955792Y-83367554D01*
X118937320Y-83332995D01*
X118925945Y-83295499D01*
X118921500Y-83250362D01*
X118921500Y-82611638D01*
X118925945Y-82566501D01*
X118937320Y-82529005D01*
X118955792Y-82494446D01*
X118980653Y-82464153D01*
X119010946Y-82439292D01*
X119045505Y-82420820D01*
X119083001Y-82409445D01*
X119128138Y-82405000D01*
X119791862Y-82405000D01*
X119836999Y-82409445D01*
X119836999Y-82409445D01*
G37*
G36*
X160892499Y-82269945D02*
G01*
X160929995Y-82281320D01*
X160964554Y-82299792D01*
X160994847Y-82324653D01*
X161019708Y-82354946D01*
X161038180Y-82389505D01*
X161049555Y-82427001D01*
X161054000Y-82472138D01*
X161054000Y-83135862D01*
X161049555Y-83180999D01*
X161038180Y-83218495D01*
X161019708Y-83253054D01*
X160994847Y-83283347D01*
X160964554Y-83308208D01*
X160929995Y-83326680D01*
X160892499Y-83338055D01*
X160847362Y-83342500D01*
X160208638Y-83342500D01*
X160163501Y-83338055D01*
X160126005Y-83326680D01*
X160091446Y-83308208D01*
X160061153Y-83283347D01*
X160036292Y-83253054D01*
X160017820Y-83218495D01*
X160006445Y-83180999D01*
X160002000Y-83135862D01*
X160002000Y-82472138D01*
X160006445Y-82427001D01*
X160017820Y-82389505D01*
X160036292Y-82354946D01*
X160061153Y-82324653D01*
X160091446Y-82299792D01*
X160126005Y-82281320D01*
X160163501Y-82269945D01*
X160208638Y-82265500D01*
X160847362Y-82265500D01*
X160892499Y-82269945D01*
X160892499Y-82269945D01*
G37*
G36*
X163178499Y-82269945D02*
G01*
X163215995Y-82281320D01*
X163250554Y-82299792D01*
X163280847Y-82324653D01*
X163305708Y-82354946D01*
X163324180Y-82389505D01*
X163335555Y-82427001D01*
X163340000Y-82472138D01*
X163340000Y-83135862D01*
X163335555Y-83180999D01*
X163324180Y-83218495D01*
X163305708Y-83253054D01*
X163280847Y-83283347D01*
X163250554Y-83308208D01*
X163215995Y-83326680D01*
X163178499Y-83338055D01*
X163133362Y-83342500D01*
X162494638Y-83342500D01*
X162449501Y-83338055D01*
X162412005Y-83326680D01*
X162377446Y-83308208D01*
X162347153Y-83283347D01*
X162322292Y-83253054D01*
X162303820Y-83218495D01*
X162292445Y-83180999D01*
X162288000Y-83135862D01*
X162288000Y-82472138D01*
X162292445Y-82427001D01*
X162303820Y-82389505D01*
X162322292Y-82354946D01*
X162347153Y-82324653D01*
X162377446Y-82299792D01*
X162412005Y-82281320D01*
X162449501Y-82269945D01*
X162494638Y-82265500D01*
X163133362Y-82265500D01*
X163178499Y-82269945D01*
X163178499Y-82269945D01*
G37*
G36*
X165464499Y-82269945D02*
G01*
X165501995Y-82281320D01*
X165536554Y-82299792D01*
X165566847Y-82324653D01*
X165591708Y-82354946D01*
X165610180Y-82389505D01*
X165621555Y-82427001D01*
X165626000Y-82472138D01*
X165626000Y-83135862D01*
X165621555Y-83180999D01*
X165610180Y-83218495D01*
X165591708Y-83253054D01*
X165566847Y-83283347D01*
X165536554Y-83308208D01*
X165501995Y-83326680D01*
X165464499Y-83338055D01*
X165419362Y-83342500D01*
X164780638Y-83342500D01*
X164735501Y-83338055D01*
X164698005Y-83326680D01*
X164663446Y-83308208D01*
X164633153Y-83283347D01*
X164608292Y-83253054D01*
X164589820Y-83218495D01*
X164578445Y-83180999D01*
X164574000Y-83135862D01*
X164574000Y-82472138D01*
X164578445Y-82427001D01*
X164589820Y-82389505D01*
X164608292Y-82354946D01*
X164633153Y-82324653D01*
X164663446Y-82299792D01*
X164698005Y-82281320D01*
X164735501Y-82269945D01*
X164780638Y-82265500D01*
X165419362Y-82265500D01*
X165464499Y-82269945D01*
X165464499Y-82269945D01*
G37*
G36*
X158538999Y-81774445D02*
G01*
X158576495Y-81785820D01*
X158611054Y-81804292D01*
X158641347Y-81829153D01*
X158666208Y-81859446D01*
X158684680Y-81894005D01*
X158696055Y-81931501D01*
X158700500Y-81976638D01*
X158700500Y-82615362D01*
X158696055Y-82660499D01*
X158684680Y-82697995D01*
X158666208Y-82732554D01*
X158641347Y-82762847D01*
X158611054Y-82787708D01*
X158576495Y-82806180D01*
X158538999Y-82817555D01*
X158493862Y-82822000D01*
X157830138Y-82822000D01*
X157785001Y-82817555D01*
X157747505Y-82806180D01*
X157712946Y-82787708D01*
X157682653Y-82762847D01*
X157657792Y-82732554D01*
X157639320Y-82697995D01*
X157627945Y-82660499D01*
X157623500Y-82615362D01*
X157623500Y-81976638D01*
X157627945Y-81931501D01*
X157639320Y-81894005D01*
X157657792Y-81859446D01*
X157682653Y-81829153D01*
X157712946Y-81804292D01*
X157747505Y-81785820D01*
X157785001Y-81774445D01*
X157830138Y-81770000D01*
X158493862Y-81770000D01*
X158538999Y-81774445D01*
X158538999Y-81774445D01*
G37*
G36*
X156713999Y-81774445D02*
G01*
X156751495Y-81785820D01*
X156786054Y-81804292D01*
X156816347Y-81829153D01*
X156841208Y-81859446D01*
X156859680Y-81894005D01*
X156871055Y-81931501D01*
X156875500Y-81976638D01*
X156875500Y-82615362D01*
X156871055Y-82660499D01*
X156859680Y-82697995D01*
X156841208Y-82732554D01*
X156816347Y-82762847D01*
X156786054Y-82787708D01*
X156751495Y-82806180D01*
X156713999Y-82817555D01*
X156668862Y-82822000D01*
X156005138Y-82822000D01*
X155960001Y-82817555D01*
X155922505Y-82806180D01*
X155887946Y-82787708D01*
X155857653Y-82762847D01*
X155832792Y-82732554D01*
X155814320Y-82697995D01*
X155802945Y-82660499D01*
X155798500Y-82615362D01*
X155798500Y-81976638D01*
X155802945Y-81931501D01*
X155814320Y-81894005D01*
X155832792Y-81859446D01*
X155857653Y-81829153D01*
X155887946Y-81804292D01*
X155922505Y-81785820D01*
X155960001Y-81774445D01*
X156005138Y-81770000D01*
X156668862Y-81770000D01*
X156713999Y-81774445D01*
X156713999Y-81774445D01*
G37*
G36*
X145238401Y-81556860D02*
G01*
X145260425Y-81563541D01*
X145280722Y-81574390D01*
X145298511Y-81588989D01*
X145313110Y-81606778D01*
X145323959Y-81627075D01*
X145330640Y-81649099D01*
X145333500Y-81678140D01*
X145333500Y-82151860D01*
X145330640Y-82180901D01*
X145323959Y-82202925D01*
X145313110Y-82223222D01*
X145298511Y-82241011D01*
X145280722Y-82255610D01*
X145260425Y-82266459D01*
X145238401Y-82273140D01*
X145209360Y-82276000D01*
X144620640Y-82276000D01*
X144591599Y-82273140D01*
X144569575Y-82266459D01*
X144549278Y-82255610D01*
X144531489Y-82241011D01*
X144516890Y-82223222D01*
X144506041Y-82202925D01*
X144499360Y-82180901D01*
X144496500Y-82151860D01*
X144496500Y-81678140D01*
X144499360Y-81649099D01*
X144506041Y-81627075D01*
X144516890Y-81606778D01*
X144531489Y-81588989D01*
X144549278Y-81574390D01*
X144569575Y-81563541D01*
X144591599Y-81556860D01*
X144620640Y-81554000D01*
X145209360Y-81554000D01*
X145238401Y-81556860D01*
X145238401Y-81556860D01*
G37*
G36*
X146373401Y-81556860D02*
G01*
X146395425Y-81563541D01*
X146415722Y-81574390D01*
X146433511Y-81588989D01*
X146448110Y-81606778D01*
X146458959Y-81627075D01*
X146465640Y-81649099D01*
X146468500Y-81678140D01*
X146468500Y-82151860D01*
X146465640Y-82180901D01*
X146458959Y-82202925D01*
X146448110Y-82223222D01*
X146433511Y-82241011D01*
X146415722Y-82255610D01*
X146395425Y-82266459D01*
X146373401Y-82273140D01*
X146344360Y-82276000D01*
X145755640Y-82276000D01*
X145726599Y-82273140D01*
X145704575Y-82266459D01*
X145684278Y-82255610D01*
X145666489Y-82241011D01*
X145651890Y-82223222D01*
X145641041Y-82202925D01*
X145634360Y-82180901D01*
X145631500Y-82151860D01*
X145631500Y-81678140D01*
X145634360Y-81649099D01*
X145641041Y-81627075D01*
X145651890Y-81606778D01*
X145666489Y-81588989D01*
X145684278Y-81574390D01*
X145704575Y-81563541D01*
X145726599Y-81556860D01*
X145755640Y-81554000D01*
X146344360Y-81554000D01*
X146373401Y-81556860D01*
X146373401Y-81556860D01*
G37*
G36*
X105139499Y-81046945D02*
G01*
X105176995Y-81058320D01*
X105211554Y-81076792D01*
X105241847Y-81101653D01*
X105266708Y-81131946D01*
X105285180Y-81166505D01*
X105296555Y-81204001D01*
X105301000Y-81249138D01*
X105301000Y-81912862D01*
X105296555Y-81957999D01*
X105285180Y-81995495D01*
X105266708Y-82030054D01*
X105241847Y-82060347D01*
X105211554Y-82085208D01*
X105176995Y-82103680D01*
X105139499Y-82115055D01*
X105094362Y-82119500D01*
X104455638Y-82119500D01*
X104410501Y-82115055D01*
X104373005Y-82103680D01*
X104338446Y-82085208D01*
X104308153Y-82060347D01*
X104283292Y-82030054D01*
X104264820Y-81995495D01*
X104253445Y-81957999D01*
X104249000Y-81912862D01*
X104249000Y-81249138D01*
X104253445Y-81204001D01*
X104264820Y-81166505D01*
X104283292Y-81131946D01*
X104308153Y-81101653D01*
X104338446Y-81076792D01*
X104373005Y-81058320D01*
X104410501Y-81046945D01*
X104455638Y-81042500D01*
X105094362Y-81042500D01*
X105139499Y-81046945D01*
X105139499Y-81046945D01*
G37*
G36*
X179307142Y-80269642D02*
G01*
X179455101Y-80330929D01*
X179588255Y-80419899D01*
X179701501Y-80533145D01*
X179790471Y-80666299D01*
X179851758Y-80814258D01*
X179883000Y-80971325D01*
X179883000Y-81131475D01*
X179851758Y-81288542D01*
X179790471Y-81436501D01*
X179701501Y-81569655D01*
X179588255Y-81682901D01*
X179455101Y-81771871D01*
X179307142Y-81833158D01*
X179150075Y-81864400D01*
X178989925Y-81864400D01*
X178832858Y-81833158D01*
X178684899Y-81771871D01*
X178551745Y-81682901D01*
X178438499Y-81569655D01*
X178349529Y-81436501D01*
X178288242Y-81288542D01*
X178257000Y-81131475D01*
X178257000Y-80971325D01*
X178288242Y-80814258D01*
X178349529Y-80666299D01*
X178438499Y-80533145D01*
X178551745Y-80419899D01*
X178684899Y-80330929D01*
X178832858Y-80269642D01*
X178989925Y-80238400D01*
X179150075Y-80238400D01*
X179307142Y-80269642D01*
X179307142Y-80269642D01*
G37*
G36*
X183851114Y-78686514D02*
G01*
X184063943Y-78774671D01*
X184140058Y-78806199D01*
X184400100Y-78979953D01*
X184621247Y-79201100D01*
X184773652Y-79429191D01*
X184795002Y-79461144D01*
X184914686Y-79750086D01*
X184975700Y-80056824D01*
X184975700Y-80369576D01*
X184914686Y-80676314D01*
X184836653Y-80864701D01*
X184795001Y-80965258D01*
X184621247Y-81225300D01*
X184400100Y-81446447D01*
X184140058Y-81620201D01*
X184140057Y-81620202D01*
X184140056Y-81620202D01*
X183851114Y-81739886D01*
X183544376Y-81800900D01*
X183231624Y-81800900D01*
X182924886Y-81739886D01*
X182635944Y-81620202D01*
X182635943Y-81620202D01*
X182635942Y-81620201D01*
X182375900Y-81446447D01*
X182154753Y-81225300D01*
X181980999Y-80965258D01*
X181939347Y-80864701D01*
X181861314Y-80676314D01*
X181800300Y-80369576D01*
X181800300Y-80056824D01*
X181861314Y-79750086D01*
X181980998Y-79461144D01*
X182002348Y-79429191D01*
X182154753Y-79201100D01*
X182375900Y-78979953D01*
X182635942Y-78806199D01*
X182712057Y-78774671D01*
X182924886Y-78686514D01*
X183231624Y-78625500D01*
X183544376Y-78625500D01*
X183851114Y-78686514D01*
X183851114Y-78686514D01*
G37*
G36*
X127177599Y-80707645D02*
G01*
X127215095Y-80719020D01*
X127249654Y-80737492D01*
X127279947Y-80762353D01*
X127304808Y-80792646D01*
X127323280Y-80827205D01*
X127334655Y-80864701D01*
X127339100Y-80909838D01*
X127339100Y-81548562D01*
X127334655Y-81593699D01*
X127323280Y-81631195D01*
X127304808Y-81665754D01*
X127279947Y-81696047D01*
X127249654Y-81720908D01*
X127215095Y-81739380D01*
X127177599Y-81750755D01*
X127132462Y-81755200D01*
X126468738Y-81755200D01*
X126423601Y-81750755D01*
X126386105Y-81739380D01*
X126351546Y-81720908D01*
X126321253Y-81696047D01*
X126296392Y-81665754D01*
X126277920Y-81631195D01*
X126266545Y-81593699D01*
X126262100Y-81548562D01*
X126262100Y-80909838D01*
X126266545Y-80864701D01*
X126277920Y-80827205D01*
X126296392Y-80792646D01*
X126321253Y-80762353D01*
X126351546Y-80737492D01*
X126386105Y-80719020D01*
X126423601Y-80707645D01*
X126468738Y-80703200D01*
X127132462Y-80703200D01*
X127177599Y-80707645D01*
X127177599Y-80707645D01*
G37*
G36*
X129002599Y-80707645D02*
G01*
X129040095Y-80719020D01*
X129074654Y-80737492D01*
X129104947Y-80762353D01*
X129129808Y-80792646D01*
X129148280Y-80827205D01*
X129159655Y-80864701D01*
X129164100Y-80909838D01*
X129164100Y-81548562D01*
X129159655Y-81593699D01*
X129148280Y-81631195D01*
X129129808Y-81665754D01*
X129104947Y-81696047D01*
X129074654Y-81720908D01*
X129040095Y-81739380D01*
X129002599Y-81750755D01*
X128957462Y-81755200D01*
X128293738Y-81755200D01*
X128248601Y-81750755D01*
X128211105Y-81739380D01*
X128176546Y-81720908D01*
X128146253Y-81696047D01*
X128121392Y-81665754D01*
X128102920Y-81631195D01*
X128091545Y-81593699D01*
X128087100Y-81548562D01*
X128087100Y-80909838D01*
X128091545Y-80864701D01*
X128102920Y-80827205D01*
X128121392Y-80792646D01*
X128146253Y-80762353D01*
X128176546Y-80737492D01*
X128211105Y-80719020D01*
X128248601Y-80707645D01*
X128293738Y-80703200D01*
X128957462Y-80703200D01*
X129002599Y-80707645D01*
X129002599Y-80707645D01*
G37*
G36*
X165464499Y-80444945D02*
G01*
X165501995Y-80456320D01*
X165536554Y-80474792D01*
X165566847Y-80499653D01*
X165591708Y-80529946D01*
X165610180Y-80564505D01*
X165621555Y-80602001D01*
X165626000Y-80647138D01*
X165626000Y-81310862D01*
X165621555Y-81355999D01*
X165610180Y-81393495D01*
X165591708Y-81428054D01*
X165566847Y-81458347D01*
X165536554Y-81483208D01*
X165501995Y-81501680D01*
X165464499Y-81513055D01*
X165419362Y-81517500D01*
X164780638Y-81517500D01*
X164735501Y-81513055D01*
X164698005Y-81501680D01*
X164663446Y-81483208D01*
X164633153Y-81458347D01*
X164608292Y-81428054D01*
X164589820Y-81393495D01*
X164578445Y-81355999D01*
X164574000Y-81310862D01*
X164574000Y-80647138D01*
X164578445Y-80602001D01*
X164589820Y-80564505D01*
X164608292Y-80529946D01*
X164633153Y-80499653D01*
X164663446Y-80474792D01*
X164698005Y-80456320D01*
X164735501Y-80444945D01*
X164780638Y-80440500D01*
X165419362Y-80440500D01*
X165464499Y-80444945D01*
X165464499Y-80444945D01*
G37*
G36*
X163178499Y-80444945D02*
G01*
X163215995Y-80456320D01*
X163250554Y-80474792D01*
X163280847Y-80499653D01*
X163305708Y-80529946D01*
X163324180Y-80564505D01*
X163335555Y-80602001D01*
X163340000Y-80647138D01*
X163340000Y-81310862D01*
X163335555Y-81355999D01*
X163324180Y-81393495D01*
X163305708Y-81428054D01*
X163280847Y-81458347D01*
X163250554Y-81483208D01*
X163215995Y-81501680D01*
X163178499Y-81513055D01*
X163133362Y-81517500D01*
X162494638Y-81517500D01*
X162449501Y-81513055D01*
X162412005Y-81501680D01*
X162377446Y-81483208D01*
X162347153Y-81458347D01*
X162322292Y-81428054D01*
X162303820Y-81393495D01*
X162292445Y-81355999D01*
X162288000Y-81310862D01*
X162288000Y-80647138D01*
X162292445Y-80602001D01*
X162303820Y-80564505D01*
X162322292Y-80529946D01*
X162347153Y-80499653D01*
X162377446Y-80474792D01*
X162412005Y-80456320D01*
X162449501Y-80444945D01*
X162494638Y-80440500D01*
X163133362Y-80440500D01*
X163178499Y-80444945D01*
X163178499Y-80444945D01*
G37*
G36*
X160892499Y-80444945D02*
G01*
X160929995Y-80456320D01*
X160964554Y-80474792D01*
X160994847Y-80499653D01*
X161019708Y-80529946D01*
X161038180Y-80564505D01*
X161049555Y-80602001D01*
X161054000Y-80647138D01*
X161054000Y-81310862D01*
X161049555Y-81355999D01*
X161038180Y-81393495D01*
X161019708Y-81428054D01*
X160994847Y-81458347D01*
X160964554Y-81483208D01*
X160929995Y-81501680D01*
X160892499Y-81513055D01*
X160847362Y-81517500D01*
X160208638Y-81517500D01*
X160163501Y-81513055D01*
X160126005Y-81501680D01*
X160091446Y-81483208D01*
X160061153Y-81458347D01*
X160036292Y-81428054D01*
X160017820Y-81393495D01*
X160006445Y-81355999D01*
X160002000Y-81310862D01*
X160002000Y-80647138D01*
X160006445Y-80602001D01*
X160017820Y-80564505D01*
X160036292Y-80529946D01*
X160061153Y-80499653D01*
X160091446Y-80474792D01*
X160126005Y-80456320D01*
X160163501Y-80444945D01*
X160208638Y-80440500D01*
X160847362Y-80440500D01*
X160892499Y-80444945D01*
X160892499Y-80444945D01*
G37*
G36*
X93924000Y-80992000D02*
G01*
X89222000Y-80992000D01*
X89222000Y-79790000D01*
X93924000Y-79790000D01*
X93924000Y-80992000D01*
X93924000Y-80992000D01*
G37*
G36*
X105139499Y-79221945D02*
G01*
X105176995Y-79233320D01*
X105211554Y-79251792D01*
X105241847Y-79276653D01*
X105266708Y-79306946D01*
X105285180Y-79341505D01*
X105296555Y-79379001D01*
X105301000Y-79424138D01*
X105301000Y-80087862D01*
X105296555Y-80132999D01*
X105285180Y-80170495D01*
X105266708Y-80205054D01*
X105241847Y-80235347D01*
X105211554Y-80260208D01*
X105176995Y-80278680D01*
X105139499Y-80290055D01*
X105094362Y-80294500D01*
X104455638Y-80294500D01*
X104410501Y-80290055D01*
X104373005Y-80278680D01*
X104338446Y-80260208D01*
X104308153Y-80235347D01*
X104283292Y-80205054D01*
X104264820Y-80170495D01*
X104253445Y-80132999D01*
X104249000Y-80087862D01*
X104249000Y-79424138D01*
X104253445Y-79379001D01*
X104264820Y-79341505D01*
X104283292Y-79306946D01*
X104308153Y-79276653D01*
X104338446Y-79251792D01*
X104373005Y-79233320D01*
X104410501Y-79221945D01*
X104455638Y-79217500D01*
X105094362Y-79217500D01*
X105139499Y-79221945D01*
X105139499Y-79221945D01*
G37*
G36*
X158538999Y-79107445D02*
G01*
X158576495Y-79118820D01*
X158611054Y-79137292D01*
X158641347Y-79162153D01*
X158666208Y-79192446D01*
X158684680Y-79227005D01*
X158696055Y-79264501D01*
X158700500Y-79309638D01*
X158700500Y-79948362D01*
X158696055Y-79993499D01*
X158684680Y-80030995D01*
X158666208Y-80065554D01*
X158641347Y-80095847D01*
X158611054Y-80120708D01*
X158576495Y-80139180D01*
X158538999Y-80150555D01*
X158493862Y-80155000D01*
X157830138Y-80155000D01*
X157785001Y-80150555D01*
X157747505Y-80139180D01*
X157712946Y-80120708D01*
X157682653Y-80095847D01*
X157657792Y-80065554D01*
X157639320Y-80030995D01*
X157627945Y-79993499D01*
X157623500Y-79948362D01*
X157623500Y-79309638D01*
X157627945Y-79264501D01*
X157639320Y-79227005D01*
X157657792Y-79192446D01*
X157682653Y-79162153D01*
X157712946Y-79137292D01*
X157747505Y-79118820D01*
X157785001Y-79107445D01*
X157830138Y-79103000D01*
X158493862Y-79103000D01*
X158538999Y-79107445D01*
X158538999Y-79107445D01*
G37*
G36*
X156713999Y-79107445D02*
G01*
X156751495Y-79118820D01*
X156786054Y-79137292D01*
X156816347Y-79162153D01*
X156841208Y-79192446D01*
X156859680Y-79227005D01*
X156871055Y-79264501D01*
X156875500Y-79309638D01*
X156875500Y-79948362D01*
X156871055Y-79993499D01*
X156859680Y-80030995D01*
X156841208Y-80065554D01*
X156816347Y-80095847D01*
X156786054Y-80120708D01*
X156751495Y-80139180D01*
X156713999Y-80150555D01*
X156668862Y-80155000D01*
X156005138Y-80155000D01*
X155960001Y-80150555D01*
X155922505Y-80139180D01*
X155887946Y-80120708D01*
X155857653Y-80095847D01*
X155832792Y-80065554D01*
X155814320Y-80030995D01*
X155802945Y-79993499D01*
X155798500Y-79948362D01*
X155798500Y-79309638D01*
X155802945Y-79264501D01*
X155814320Y-79227005D01*
X155832792Y-79192446D01*
X155857653Y-79162153D01*
X155887946Y-79137292D01*
X155922505Y-79118820D01*
X155960001Y-79107445D01*
X156005138Y-79103000D01*
X156668862Y-79103000D01*
X156713999Y-79107445D01*
X156713999Y-79107445D01*
G37*
G36*
X102794000Y-79121200D02*
G01*
X101803000Y-79121200D01*
X101803000Y-76580800D01*
X102794000Y-76580800D01*
X102794000Y-79121200D01*
X102794000Y-79121200D01*
G37*
G36*
X101016000Y-79121200D02*
G01*
X95326000Y-79121200D01*
X95326000Y-76580800D01*
X101016000Y-76580800D01*
X101016000Y-79121200D01*
X101016000Y-79121200D01*
G37*
G36*
X179307142Y-77272442D02*
G01*
X179455101Y-77333729D01*
X179588255Y-77422699D01*
X179701501Y-77535945D01*
X179790471Y-77669099D01*
X179851758Y-77817058D01*
X179883000Y-77974125D01*
X179883000Y-78134275D01*
X179851758Y-78291342D01*
X179790471Y-78439301D01*
X179701501Y-78572455D01*
X179588255Y-78685701D01*
X179455101Y-78774671D01*
X179307142Y-78835958D01*
X179150075Y-78867200D01*
X178989925Y-78867200D01*
X178832858Y-78835958D01*
X178684899Y-78774671D01*
X178551745Y-78685701D01*
X178438499Y-78572455D01*
X178349529Y-78439301D01*
X178288242Y-78291342D01*
X178257000Y-78134275D01*
X178257000Y-77974125D01*
X178288242Y-77817058D01*
X178349529Y-77669099D01*
X178438499Y-77535945D01*
X178551745Y-77422699D01*
X178684899Y-77333729D01*
X178832858Y-77272442D01*
X178989925Y-77241200D01*
X179150075Y-77241200D01*
X179307142Y-77272442D01*
X179307142Y-77272442D01*
G37*
G36*
X93924000Y-78452000D02*
G01*
X89222000Y-78452000D01*
X89222000Y-77250000D01*
X93924000Y-77250000D01*
X93924000Y-78452000D01*
X93924000Y-78452000D01*
G37*
G36*
X158507901Y-77308360D02*
G01*
X158529925Y-77315041D01*
X158550222Y-77325890D01*
X158568011Y-77340489D01*
X158582610Y-77358278D01*
X158593459Y-77378575D01*
X158600140Y-77400599D01*
X158603000Y-77429640D01*
X158603000Y-78018360D01*
X158600140Y-78047401D01*
X158593459Y-78069425D01*
X158582610Y-78089722D01*
X158568011Y-78107511D01*
X158550222Y-78122110D01*
X158529925Y-78132959D01*
X158507901Y-78139640D01*
X158478860Y-78142500D01*
X158005140Y-78142500D01*
X157976099Y-78139640D01*
X157954075Y-78132959D01*
X157933778Y-78122110D01*
X157915989Y-78107511D01*
X157901390Y-78089722D01*
X157890541Y-78069425D01*
X157883860Y-78047401D01*
X157881000Y-78018360D01*
X157881000Y-77429640D01*
X157883860Y-77400599D01*
X157890541Y-77378575D01*
X157901390Y-77358278D01*
X157915989Y-77340489D01*
X157933778Y-77325890D01*
X157954075Y-77315041D01*
X157976099Y-77308360D01*
X158005140Y-77305500D01*
X158478860Y-77305500D01*
X158507901Y-77308360D01*
X158507901Y-77308360D01*
G37*
G36*
X153907142Y-76307242D02*
G01*
X154055101Y-76368529D01*
X154188255Y-76457499D01*
X154301501Y-76570745D01*
X154390471Y-76703899D01*
X154451758Y-76851858D01*
X154483000Y-77008925D01*
X154483000Y-77169075D01*
X154451758Y-77326142D01*
X154390471Y-77474101D01*
X154301501Y-77607255D01*
X154188255Y-77720501D01*
X154055101Y-77809471D01*
X153907142Y-77870758D01*
X153750075Y-77902000D01*
X153589925Y-77902000D01*
X153432858Y-77870758D01*
X153284899Y-77809471D01*
X153151745Y-77720501D01*
X153038499Y-77607255D01*
X152949529Y-77474101D01*
X152888242Y-77326142D01*
X152857000Y-77169075D01*
X152857000Y-77008925D01*
X152888242Y-76851858D01*
X152949529Y-76703899D01*
X153038499Y-76570745D01*
X153151745Y-76457499D01*
X153284899Y-76368529D01*
X153432858Y-76307242D01*
X153589925Y-76276000D01*
X153750075Y-76276000D01*
X153907142Y-76307242D01*
X153907142Y-76307242D01*
G37*
G36*
X150859142Y-76307242D02*
G01*
X151007101Y-76368529D01*
X151140255Y-76457499D01*
X151253501Y-76570745D01*
X151342471Y-76703899D01*
X151403758Y-76851858D01*
X151435000Y-77008925D01*
X151435000Y-77169075D01*
X151403758Y-77326142D01*
X151342471Y-77474101D01*
X151253501Y-77607255D01*
X151140255Y-77720501D01*
X151007101Y-77809471D01*
X150859142Y-77870758D01*
X150702075Y-77902000D01*
X150541925Y-77902000D01*
X150384858Y-77870758D01*
X150236899Y-77809471D01*
X150103745Y-77720501D01*
X149990499Y-77607255D01*
X149901529Y-77474101D01*
X149840242Y-77326142D01*
X149809000Y-77169075D01*
X149809000Y-77008925D01*
X149840242Y-76851858D01*
X149901529Y-76703899D01*
X149990499Y-76570745D01*
X150103745Y-76457499D01*
X150236899Y-76368529D01*
X150384858Y-76307242D01*
X150541925Y-76276000D01*
X150702075Y-76276000D01*
X150859142Y-76307242D01*
X150859142Y-76307242D01*
G37*
G36*
X147811142Y-76307242D02*
G01*
X147959101Y-76368529D01*
X148092255Y-76457499D01*
X148205501Y-76570745D01*
X148294471Y-76703899D01*
X148355758Y-76851858D01*
X148387000Y-77008925D01*
X148387000Y-77169075D01*
X148355758Y-77326142D01*
X148294471Y-77474101D01*
X148205501Y-77607255D01*
X148092255Y-77720501D01*
X147959101Y-77809471D01*
X147811142Y-77870758D01*
X147654075Y-77902000D01*
X147493925Y-77902000D01*
X147336858Y-77870758D01*
X147188899Y-77809471D01*
X147055745Y-77720501D01*
X146942499Y-77607255D01*
X146853529Y-77474101D01*
X146792242Y-77326142D01*
X146761000Y-77169075D01*
X146761000Y-77008925D01*
X146792242Y-76851858D01*
X146853529Y-76703899D01*
X146942499Y-76570745D01*
X147055745Y-76457499D01*
X147188899Y-76368529D01*
X147336858Y-76307242D01*
X147493925Y-76276000D01*
X147654075Y-76276000D01*
X147811142Y-76307242D01*
X147811142Y-76307242D01*
G37*
G36*
X115172142Y-76180242D02*
G01*
X115320101Y-76241529D01*
X115453255Y-76330499D01*
X115566501Y-76443745D01*
X115655471Y-76576899D01*
X115716758Y-76724858D01*
X115748000Y-76881925D01*
X115748000Y-77042075D01*
X115716758Y-77199142D01*
X115655471Y-77347101D01*
X115566501Y-77480255D01*
X115453255Y-77593501D01*
X115320101Y-77682471D01*
X115172142Y-77743758D01*
X115015075Y-77775000D01*
X114854925Y-77775000D01*
X114697858Y-77743758D01*
X114549899Y-77682471D01*
X114416745Y-77593501D01*
X114303499Y-77480255D01*
X114214529Y-77347101D01*
X114153242Y-77199142D01*
X114122000Y-77042075D01*
X114122000Y-76881925D01*
X114153242Y-76724858D01*
X114214529Y-76576899D01*
X114303499Y-76443745D01*
X114416745Y-76330499D01*
X114549899Y-76241529D01*
X114697858Y-76180242D01*
X114854925Y-76149000D01*
X115015075Y-76149000D01*
X115172142Y-76180242D01*
X115172142Y-76180242D01*
G37*
G36*
X158507901Y-76173360D02*
G01*
X158529925Y-76180041D01*
X158550222Y-76190890D01*
X158568011Y-76205489D01*
X158582610Y-76223278D01*
X158593459Y-76243575D01*
X158600140Y-76265599D01*
X158603000Y-76294640D01*
X158603000Y-76883360D01*
X158600140Y-76912401D01*
X158593459Y-76934425D01*
X158582610Y-76954722D01*
X158568011Y-76972511D01*
X158550222Y-76987110D01*
X158529925Y-76997959D01*
X158507901Y-77004640D01*
X158478860Y-77007500D01*
X158005140Y-77007500D01*
X157976099Y-77004640D01*
X157954075Y-76997959D01*
X157933778Y-76987110D01*
X157915989Y-76972511D01*
X157901390Y-76954722D01*
X157890541Y-76934425D01*
X157883860Y-76912401D01*
X157881000Y-76883360D01*
X157881000Y-76294640D01*
X157883860Y-76265599D01*
X157890541Y-76243575D01*
X157901390Y-76223278D01*
X157915989Y-76205489D01*
X157933778Y-76190890D01*
X157954075Y-76180041D01*
X157976099Y-76173360D01*
X158005140Y-76170500D01*
X158478860Y-76170500D01*
X158507901Y-76173360D01*
X158507901Y-76173360D01*
G37*
G36*
X169042499Y-75932445D02*
G01*
X169079995Y-75943820D01*
X169114554Y-75962292D01*
X169144847Y-75987153D01*
X169169708Y-76017446D01*
X169188180Y-76052005D01*
X169199555Y-76089501D01*
X169204000Y-76134638D01*
X169204000Y-76773362D01*
X169199555Y-76818499D01*
X169188180Y-76855995D01*
X169169708Y-76890554D01*
X169144847Y-76920847D01*
X169114554Y-76945708D01*
X169079995Y-76964180D01*
X169042499Y-76975555D01*
X168997362Y-76980000D01*
X168258638Y-76980000D01*
X168213501Y-76975555D01*
X168176005Y-76964180D01*
X168141446Y-76945708D01*
X168111153Y-76920847D01*
X168086292Y-76890554D01*
X168067820Y-76855995D01*
X168056445Y-76818499D01*
X168052000Y-76773362D01*
X168052000Y-76134638D01*
X168056445Y-76089501D01*
X168067820Y-76052005D01*
X168086292Y-76017446D01*
X168111153Y-75987153D01*
X168141446Y-75962292D01*
X168176005Y-75943820D01*
X168213501Y-75932445D01*
X168258638Y-75928000D01*
X168997362Y-75928000D01*
X169042499Y-75932445D01*
X169042499Y-75932445D01*
G37*
G36*
X165142999Y-75932445D02*
G01*
X165180495Y-75943820D01*
X165215054Y-75962292D01*
X165245347Y-75987153D01*
X165270208Y-76017446D01*
X165288680Y-76052005D01*
X165300055Y-76089501D01*
X165304500Y-76134638D01*
X165304500Y-76773362D01*
X165300055Y-76818499D01*
X165288680Y-76855995D01*
X165270208Y-76890554D01*
X165245347Y-76920847D01*
X165215054Y-76945708D01*
X165180495Y-76964180D01*
X165142999Y-76975555D01*
X165097862Y-76980000D01*
X164434138Y-76980000D01*
X164389001Y-76975555D01*
X164351505Y-76964180D01*
X164316946Y-76945708D01*
X164286653Y-76920847D01*
X164261792Y-76890554D01*
X164243320Y-76855995D01*
X164231945Y-76818499D01*
X164227500Y-76773362D01*
X164227500Y-76134638D01*
X164231945Y-76089501D01*
X164243320Y-76052005D01*
X164261792Y-76017446D01*
X164286653Y-75987153D01*
X164316946Y-75962292D01*
X164351505Y-75943820D01*
X164389001Y-75932445D01*
X164434138Y-75928000D01*
X165097862Y-75928000D01*
X165142999Y-75932445D01*
X165142999Y-75932445D01*
G37*
G36*
X167292499Y-75932445D02*
G01*
X167329995Y-75943820D01*
X167364554Y-75962292D01*
X167394847Y-75987153D01*
X167419708Y-76017446D01*
X167438180Y-76052005D01*
X167449555Y-76089501D01*
X167454000Y-76134638D01*
X167454000Y-76773362D01*
X167449555Y-76818499D01*
X167438180Y-76855995D01*
X167419708Y-76890554D01*
X167394847Y-76920847D01*
X167364554Y-76945708D01*
X167329995Y-76964180D01*
X167292499Y-76975555D01*
X167247362Y-76980000D01*
X166508638Y-76980000D01*
X166463501Y-76975555D01*
X166426005Y-76964180D01*
X166391446Y-76945708D01*
X166361153Y-76920847D01*
X166336292Y-76890554D01*
X166317820Y-76855995D01*
X166306445Y-76818499D01*
X166302000Y-76773362D01*
X166302000Y-76134638D01*
X166306445Y-76089501D01*
X166317820Y-76052005D01*
X166336292Y-76017446D01*
X166361153Y-75987153D01*
X166391446Y-75962292D01*
X166426005Y-75943820D01*
X166463501Y-75932445D01*
X166508638Y-75928000D01*
X167247362Y-75928000D01*
X167292499Y-75932445D01*
X167292499Y-75932445D01*
G37*
G36*
X163317999Y-75932445D02*
G01*
X163355495Y-75943820D01*
X163390054Y-75962292D01*
X163420347Y-75987153D01*
X163445208Y-76017446D01*
X163463680Y-76052005D01*
X163475055Y-76089501D01*
X163479500Y-76134638D01*
X163479500Y-76773362D01*
X163475055Y-76818499D01*
X163463680Y-76855995D01*
X163445208Y-76890554D01*
X163420347Y-76920847D01*
X163390054Y-76945708D01*
X163355495Y-76964180D01*
X163317999Y-76975555D01*
X163272862Y-76980000D01*
X162609138Y-76980000D01*
X162564001Y-76975555D01*
X162526505Y-76964180D01*
X162491946Y-76945708D01*
X162461653Y-76920847D01*
X162436792Y-76890554D01*
X162418320Y-76855995D01*
X162406945Y-76818499D01*
X162402500Y-76773362D01*
X162402500Y-76134638D01*
X162406945Y-76089501D01*
X162418320Y-76052005D01*
X162436792Y-76017446D01*
X162461653Y-75987153D01*
X162491946Y-75962292D01*
X162526505Y-75943820D01*
X162564001Y-75932445D01*
X162609138Y-75928000D01*
X163272862Y-75928000D01*
X163317999Y-75932445D01*
X163317999Y-75932445D01*
G37*
G36*
X115172142Y-73640242D02*
G01*
X115320101Y-73701529D01*
X115453255Y-73790499D01*
X115566501Y-73903745D01*
X115655471Y-74036899D01*
X115716758Y-74184858D01*
X115748000Y-74341925D01*
X115748000Y-74502075D01*
X115716758Y-74659142D01*
X115655471Y-74807101D01*
X115566501Y-74940255D01*
X115453255Y-75053501D01*
X115320101Y-75142471D01*
X115172142Y-75203758D01*
X115015075Y-75235000D01*
X114854925Y-75235000D01*
X114697858Y-75203758D01*
X114549899Y-75142471D01*
X114416745Y-75053501D01*
X114303499Y-74940255D01*
X114214529Y-74807101D01*
X114153242Y-74659142D01*
X114122000Y-74502075D01*
X114122000Y-74341925D01*
X114153242Y-74184858D01*
X114214529Y-74036899D01*
X114303499Y-73903745D01*
X114416745Y-73790499D01*
X114549899Y-73701529D01*
X114697858Y-73640242D01*
X114854925Y-73609000D01*
X115015075Y-73609000D01*
X115172142Y-73640242D01*
X115172142Y-73640242D01*
G37*
G36*
X167292499Y-73900445D02*
G01*
X167329995Y-73911820D01*
X167364554Y-73930292D01*
X167394847Y-73955153D01*
X167419708Y-73985446D01*
X167438180Y-74020005D01*
X167449555Y-74057501D01*
X167454000Y-74102638D01*
X167454000Y-74741362D01*
X167449555Y-74786499D01*
X167438180Y-74823995D01*
X167419708Y-74858554D01*
X167394847Y-74888847D01*
X167364554Y-74913708D01*
X167329995Y-74932180D01*
X167292499Y-74943555D01*
X167247362Y-74948000D01*
X166508638Y-74948000D01*
X166463501Y-74943555D01*
X166426005Y-74932180D01*
X166391446Y-74913708D01*
X166361153Y-74888847D01*
X166336292Y-74858554D01*
X166317820Y-74823995D01*
X166306445Y-74786499D01*
X166302000Y-74741362D01*
X166302000Y-74102638D01*
X166306445Y-74057501D01*
X166317820Y-74020005D01*
X166336292Y-73985446D01*
X166361153Y-73955153D01*
X166391446Y-73930292D01*
X166426005Y-73911820D01*
X166463501Y-73900445D01*
X166508638Y-73896000D01*
X167247362Y-73896000D01*
X167292499Y-73900445D01*
X167292499Y-73900445D01*
G37*
G36*
X169042499Y-73900445D02*
G01*
X169079995Y-73911820D01*
X169114554Y-73930292D01*
X169144847Y-73955153D01*
X169169708Y-73985446D01*
X169188180Y-74020005D01*
X169199555Y-74057501D01*
X169204000Y-74102638D01*
X169204000Y-74741362D01*
X169199555Y-74786499D01*
X169188180Y-74823995D01*
X169169708Y-74858554D01*
X169144847Y-74888847D01*
X169114554Y-74913708D01*
X169079995Y-74932180D01*
X169042499Y-74943555D01*
X168997362Y-74948000D01*
X168258638Y-74948000D01*
X168213501Y-74943555D01*
X168176005Y-74932180D01*
X168141446Y-74913708D01*
X168111153Y-74888847D01*
X168086292Y-74858554D01*
X168067820Y-74823995D01*
X168056445Y-74786499D01*
X168052000Y-74741362D01*
X168052000Y-74102638D01*
X168056445Y-74057501D01*
X168067820Y-74020005D01*
X168086292Y-73985446D01*
X168111153Y-73955153D01*
X168141446Y-73930292D01*
X168176005Y-73911820D01*
X168213501Y-73900445D01*
X168258638Y-73896000D01*
X168997362Y-73896000D01*
X169042499Y-73900445D01*
X169042499Y-73900445D01*
G37*
G36*
X165142999Y-73900445D02*
G01*
X165180495Y-73911820D01*
X165215054Y-73930292D01*
X165245347Y-73955153D01*
X165270208Y-73985446D01*
X165288680Y-74020005D01*
X165300055Y-74057501D01*
X165304500Y-74102638D01*
X165304500Y-74741362D01*
X165300055Y-74786499D01*
X165288680Y-74823995D01*
X165270208Y-74858554D01*
X165245347Y-74888847D01*
X165215054Y-74913708D01*
X165180495Y-74932180D01*
X165142999Y-74943555D01*
X165097862Y-74948000D01*
X164434138Y-74948000D01*
X164389001Y-74943555D01*
X164351505Y-74932180D01*
X164316946Y-74913708D01*
X164286653Y-74888847D01*
X164261792Y-74858554D01*
X164243320Y-74823995D01*
X164231945Y-74786499D01*
X164227500Y-74741362D01*
X164227500Y-74102638D01*
X164231945Y-74057501D01*
X164243320Y-74020005D01*
X164261792Y-73985446D01*
X164286653Y-73955153D01*
X164316946Y-73930292D01*
X164351505Y-73911820D01*
X164389001Y-73900445D01*
X164434138Y-73896000D01*
X165097862Y-73896000D01*
X165142999Y-73900445D01*
X165142999Y-73900445D01*
G37*
G36*
X163317999Y-73900445D02*
G01*
X163355495Y-73911820D01*
X163390054Y-73930292D01*
X163420347Y-73955153D01*
X163445208Y-73985446D01*
X163463680Y-74020005D01*
X163475055Y-74057501D01*
X163479500Y-74102638D01*
X163479500Y-74741362D01*
X163475055Y-74786499D01*
X163463680Y-74823995D01*
X163445208Y-74858554D01*
X163420347Y-74888847D01*
X163390054Y-74913708D01*
X163355495Y-74932180D01*
X163317999Y-74943555D01*
X163272862Y-74948000D01*
X162609138Y-74948000D01*
X162564001Y-74943555D01*
X162526505Y-74932180D01*
X162491946Y-74913708D01*
X162461653Y-74888847D01*
X162436792Y-74858554D01*
X162418320Y-74823995D01*
X162406945Y-74786499D01*
X162402500Y-74741362D01*
X162402500Y-74102638D01*
X162406945Y-74057501D01*
X162418320Y-74020005D01*
X162436792Y-73985446D01*
X162461653Y-73955153D01*
X162491946Y-73930292D01*
X162526505Y-73911820D01*
X162564001Y-73900445D01*
X162609138Y-73896000D01*
X163272862Y-73896000D01*
X163317999Y-73900445D01*
X163317999Y-73900445D01*
G37*
G36*
X151085114Y-71244314D02*
G01*
X151372827Y-71363489D01*
X151374058Y-71363999D01*
X151634100Y-71537753D01*
X151855247Y-71758900D01*
X152025031Y-72013001D01*
X152029002Y-72018944D01*
X152148686Y-72307886D01*
X152209700Y-72614624D01*
X152209700Y-72927376D01*
X152148686Y-73234114D01*
X152029002Y-73523056D01*
X152029001Y-73523058D01*
X151855247Y-73783100D01*
X151634100Y-74004247D01*
X151374058Y-74178001D01*
X151374057Y-74178002D01*
X151374056Y-74178002D01*
X151085114Y-74297686D01*
X150778376Y-74358700D01*
X150465624Y-74358700D01*
X150158886Y-74297686D01*
X149869944Y-74178002D01*
X149869943Y-74178002D01*
X149869942Y-74178001D01*
X149609900Y-74004247D01*
X149388753Y-73783100D01*
X149214999Y-73523058D01*
X149214998Y-73523056D01*
X149095314Y-73234114D01*
X149034300Y-72927376D01*
X149034300Y-72614624D01*
X149095314Y-72307886D01*
X149214998Y-72018944D01*
X149218969Y-72013001D01*
X149388753Y-71758900D01*
X149609900Y-71537753D01*
X149869942Y-71363999D01*
X149871173Y-71363489D01*
X150158886Y-71244314D01*
X150465624Y-71183300D01*
X150778376Y-71183300D01*
X151085114Y-71244314D01*
X151085114Y-71244314D01*
G37*
G36*
X136198000Y-72533001D02*
G01*
X136200402Y-72557387D01*
X136207515Y-72580836D01*
X136219066Y-72602447D01*
X136234611Y-72621389D01*
X136253553Y-72636934D01*
X136275164Y-72648485D01*
X136298613Y-72655598D01*
X136322999Y-72658000D01*
X139521001Y-72658000D01*
X139545387Y-72655598D01*
X139568836Y-72648485D01*
X139590447Y-72636934D01*
X139609389Y-72621389D01*
X139624934Y-72602447D01*
X139636485Y-72580836D01*
X139643598Y-72557387D01*
X139646000Y-72533001D01*
X139646000Y-72488000D01*
X141173000Y-72488000D01*
X141173000Y-74140000D01*
X134671000Y-74140000D01*
X134671000Y-72488000D01*
X136198000Y-72488000D01*
X136198000Y-72533001D01*
X136198000Y-72533001D01*
G37*
G36*
X112120983Y-72052934D02*
G01*
X112158372Y-72064276D01*
X112192826Y-72082691D01*
X112223025Y-72107475D01*
X112247809Y-72137674D01*
X112266224Y-72172128D01*
X112277566Y-72209517D01*
X112282000Y-72254535D01*
X112282000Y-73119465D01*
X112277566Y-73164483D01*
X112266224Y-73201872D01*
X112247809Y-73236326D01*
X112223025Y-73266525D01*
X112192826Y-73291309D01*
X112158372Y-73309724D01*
X112120983Y-73321066D01*
X112075965Y-73325500D01*
X110936035Y-73325500D01*
X110891017Y-73321066D01*
X110853628Y-73309724D01*
X110819174Y-73291309D01*
X110788975Y-73266525D01*
X110764191Y-73236326D01*
X110745776Y-73201872D01*
X110734434Y-73164483D01*
X110730000Y-73119465D01*
X110730000Y-72254535D01*
X110734434Y-72209517D01*
X110745776Y-72172128D01*
X110764191Y-72137674D01*
X110788975Y-72107475D01*
X110819174Y-72082691D01*
X110853628Y-72064276D01*
X110891017Y-72052934D01*
X110936035Y-72048500D01*
X112075965Y-72048500D01*
X112120983Y-72052934D01*
X112120983Y-72052934D01*
G37*
G36*
X107679499Y-71855945D02*
G01*
X107716995Y-71867320D01*
X107751554Y-71885792D01*
X107781847Y-71910653D01*
X107806708Y-71940946D01*
X107825180Y-71975505D01*
X107836555Y-72013001D01*
X107841000Y-72058138D01*
X107841000Y-72721862D01*
X107836555Y-72766999D01*
X107825180Y-72804495D01*
X107806708Y-72839054D01*
X107781847Y-72869347D01*
X107751554Y-72894208D01*
X107716995Y-72912680D01*
X107679499Y-72924055D01*
X107634362Y-72928500D01*
X106995638Y-72928500D01*
X106950501Y-72924055D01*
X106913005Y-72912680D01*
X106878446Y-72894208D01*
X106848153Y-72869347D01*
X106823292Y-72839054D01*
X106804820Y-72804495D01*
X106793445Y-72766999D01*
X106789000Y-72721862D01*
X106789000Y-72058138D01*
X106793445Y-72013001D01*
X106804820Y-71975505D01*
X106823292Y-71940946D01*
X106848153Y-71910653D01*
X106878446Y-71885792D01*
X106913005Y-71867320D01*
X106950501Y-71855945D01*
X106995638Y-71851500D01*
X107634362Y-71851500D01*
X107679499Y-71855945D01*
X107679499Y-71855945D01*
G37*
G36*
X103947499Y-71868445D02*
G01*
X103984995Y-71879820D01*
X104019554Y-71898292D01*
X104049847Y-71923153D01*
X104074708Y-71953446D01*
X104093180Y-71988005D01*
X104104555Y-72025501D01*
X104109000Y-72070638D01*
X104109000Y-72709362D01*
X104104555Y-72754499D01*
X104093180Y-72791995D01*
X104074708Y-72826554D01*
X104049847Y-72856847D01*
X104019554Y-72881708D01*
X103984995Y-72900180D01*
X103947499Y-72911555D01*
X103902362Y-72916000D01*
X103163638Y-72916000D01*
X103118501Y-72911555D01*
X103081005Y-72900180D01*
X103046446Y-72881708D01*
X103016153Y-72856847D01*
X102991292Y-72826554D01*
X102972820Y-72791995D01*
X102961445Y-72754499D01*
X102957000Y-72709362D01*
X102957000Y-72070638D01*
X102961445Y-72025501D01*
X102972820Y-71988005D01*
X102991292Y-71953446D01*
X103016153Y-71923153D01*
X103046446Y-71898292D01*
X103081005Y-71879820D01*
X103118501Y-71868445D01*
X103163638Y-71864000D01*
X103902362Y-71864000D01*
X103947499Y-71868445D01*
X103947499Y-71868445D01*
G37*
G36*
X105697499Y-71868445D02*
G01*
X105734995Y-71879820D01*
X105769554Y-71898292D01*
X105799847Y-71923153D01*
X105824708Y-71953446D01*
X105843180Y-71988005D01*
X105854555Y-72025501D01*
X105859000Y-72070638D01*
X105859000Y-72709362D01*
X105854555Y-72754499D01*
X105843180Y-72791995D01*
X105824708Y-72826554D01*
X105799847Y-72856847D01*
X105769554Y-72881708D01*
X105734995Y-72900180D01*
X105697499Y-72911555D01*
X105652362Y-72916000D01*
X104913638Y-72916000D01*
X104868501Y-72911555D01*
X104831005Y-72900180D01*
X104796446Y-72881708D01*
X104766153Y-72856847D01*
X104741292Y-72826554D01*
X104722820Y-72791995D01*
X104711445Y-72754499D01*
X104707000Y-72709362D01*
X104707000Y-72070638D01*
X104711445Y-72025501D01*
X104722820Y-71988005D01*
X104741292Y-71953446D01*
X104766153Y-71923153D01*
X104796446Y-71898292D01*
X104831005Y-71879820D01*
X104868501Y-71868445D01*
X104913638Y-71864000D01*
X105652362Y-71864000D01*
X105697499Y-71868445D01*
X105697499Y-71868445D01*
G37*
G36*
X115172142Y-71100242D02*
G01*
X115320101Y-71161529D01*
X115453255Y-71250499D01*
X115566501Y-71363745D01*
X115655471Y-71496899D01*
X115716758Y-71644858D01*
X115748000Y-71801925D01*
X115748000Y-71962075D01*
X115716758Y-72119142D01*
X115655471Y-72267101D01*
X115566501Y-72400255D01*
X115453255Y-72513501D01*
X115320101Y-72602471D01*
X115172142Y-72663758D01*
X115015075Y-72695000D01*
X114854925Y-72695000D01*
X114697858Y-72663758D01*
X114549899Y-72602471D01*
X114416745Y-72513501D01*
X114303499Y-72400255D01*
X114214529Y-72267101D01*
X114153242Y-72119142D01*
X114122000Y-71962075D01*
X114122000Y-71801925D01*
X114153242Y-71644858D01*
X114214529Y-71496899D01*
X114303499Y-71363745D01*
X114416745Y-71250499D01*
X114549899Y-71161529D01*
X114697858Y-71100242D01*
X114854925Y-71069000D01*
X115015075Y-71069000D01*
X115172142Y-71100242D01*
X115172142Y-71100242D01*
G37*
G36*
X109358901Y-71331360D02*
G01*
X109380925Y-71338041D01*
X109401222Y-71348890D01*
X109419011Y-71363489D01*
X109433610Y-71381278D01*
X109444459Y-71401575D01*
X109451140Y-71423599D01*
X109454000Y-71452640D01*
X109454000Y-72041360D01*
X109451140Y-72070401D01*
X109444459Y-72092425D01*
X109433610Y-72112722D01*
X109419011Y-72130511D01*
X109401222Y-72145110D01*
X109380925Y-72155959D01*
X109358901Y-72162640D01*
X109329860Y-72165500D01*
X108856140Y-72165500D01*
X108827099Y-72162640D01*
X108805075Y-72155959D01*
X108784778Y-72145110D01*
X108766989Y-72130511D01*
X108752390Y-72112722D01*
X108741541Y-72092425D01*
X108734860Y-72070401D01*
X108732000Y-72041360D01*
X108732000Y-71452640D01*
X108734860Y-71423599D01*
X108741541Y-71401575D01*
X108752390Y-71381278D01*
X108766989Y-71363489D01*
X108784778Y-71348890D01*
X108805075Y-71338041D01*
X108827099Y-71331360D01*
X108856140Y-71328500D01*
X109329860Y-71328500D01*
X109358901Y-71331360D01*
X109358901Y-71331360D01*
G37*
G36*
X140023000Y-71740000D02*
G01*
X138121000Y-71740000D01*
X138121000Y-69738000D01*
X140023000Y-69738000D01*
X140023000Y-71740000D01*
X140023000Y-71740000D01*
G37*
G36*
X136923000Y-71740000D02*
G01*
X135821000Y-71740000D01*
X135821000Y-69738000D01*
X136923000Y-69738000D01*
X136923000Y-71740000D01*
X136923000Y-71740000D01*
G37*
G36*
X84554499Y-70471445D02*
G01*
X84591995Y-70482820D01*
X84626554Y-70501292D01*
X84656847Y-70526153D01*
X84681708Y-70556446D01*
X84700180Y-70591005D01*
X84711555Y-70628501D01*
X84716000Y-70673638D01*
X84716000Y-71312362D01*
X84711555Y-71357499D01*
X84700180Y-71394995D01*
X84681708Y-71429554D01*
X84656847Y-71459847D01*
X84626554Y-71484708D01*
X84591995Y-71503180D01*
X84554499Y-71514555D01*
X84509362Y-71519000D01*
X83845638Y-71519000D01*
X83800501Y-71514555D01*
X83763005Y-71503180D01*
X83728446Y-71484708D01*
X83698153Y-71459847D01*
X83673292Y-71429554D01*
X83654820Y-71394995D01*
X83643445Y-71357499D01*
X83639000Y-71312362D01*
X83639000Y-70673638D01*
X83643445Y-70628501D01*
X83654820Y-70591005D01*
X83673292Y-70556446D01*
X83698153Y-70526153D01*
X83728446Y-70501292D01*
X83763005Y-70482820D01*
X83800501Y-70471445D01*
X83845638Y-70467000D01*
X84509362Y-70467000D01*
X84554499Y-70471445D01*
X84554499Y-70471445D01*
G37*
G36*
X86379499Y-70471445D02*
G01*
X86416995Y-70482820D01*
X86451554Y-70501292D01*
X86481847Y-70526153D01*
X86506708Y-70556446D01*
X86525180Y-70591005D01*
X86536555Y-70628501D01*
X86541000Y-70673638D01*
X86541000Y-71312362D01*
X86536555Y-71357499D01*
X86525180Y-71394995D01*
X86506708Y-71429554D01*
X86481847Y-71459847D01*
X86451554Y-71484708D01*
X86416995Y-71503180D01*
X86379499Y-71514555D01*
X86334362Y-71519000D01*
X85670638Y-71519000D01*
X85625501Y-71514555D01*
X85588005Y-71503180D01*
X85553446Y-71484708D01*
X85523153Y-71459847D01*
X85498292Y-71429554D01*
X85479820Y-71394995D01*
X85468445Y-71357499D01*
X85464000Y-71312362D01*
X85464000Y-70673638D01*
X85468445Y-70628501D01*
X85479820Y-70591005D01*
X85498292Y-70556446D01*
X85523153Y-70526153D01*
X85553446Y-70501292D01*
X85588005Y-70482820D01*
X85625501Y-70471445D01*
X85670638Y-70467000D01*
X86334362Y-70467000D01*
X86379499Y-70471445D01*
X86379499Y-70471445D01*
G37*
G36*
X142173000Y-71440000D02*
G01*
X140421000Y-71440000D01*
X140421000Y-70038000D01*
X142173000Y-70038000D01*
X142173000Y-71440000D01*
X142173000Y-71440000D01*
G37*
G36*
X135423000Y-71440000D02*
G01*
X133671000Y-71440000D01*
X133671000Y-70038000D01*
X135423000Y-70038000D01*
X135423000Y-71440000D01*
X135423000Y-71440000D01*
G37*
G36*
X112120983Y-69977934D02*
G01*
X112158372Y-69989276D01*
X112192826Y-70007691D01*
X112223025Y-70032475D01*
X112247809Y-70062674D01*
X112266224Y-70097128D01*
X112277566Y-70134517D01*
X112282000Y-70179535D01*
X112282000Y-71044465D01*
X112277566Y-71089483D01*
X112266224Y-71126872D01*
X112247809Y-71161326D01*
X112223025Y-71191525D01*
X112192826Y-71216309D01*
X112158372Y-71234724D01*
X112120983Y-71246066D01*
X112075965Y-71250500D01*
X110936035Y-71250500D01*
X110891017Y-71246066D01*
X110853628Y-71234724D01*
X110819174Y-71216309D01*
X110788975Y-71191525D01*
X110764191Y-71161326D01*
X110745776Y-71126872D01*
X110734434Y-71089483D01*
X110730000Y-71044465D01*
X110730000Y-70179535D01*
X110734434Y-70134517D01*
X110745776Y-70097128D01*
X110764191Y-70062674D01*
X110788975Y-70032475D01*
X110819174Y-70007691D01*
X110853628Y-69989276D01*
X110891017Y-69977934D01*
X110936035Y-69973500D01*
X112075965Y-69973500D01*
X112120983Y-69977934D01*
X112120983Y-69977934D01*
G37*
G36*
X107679499Y-70030945D02*
G01*
X107716995Y-70042320D01*
X107751554Y-70060792D01*
X107781847Y-70085653D01*
X107806708Y-70115946D01*
X107825180Y-70150505D01*
X107836555Y-70188001D01*
X107841000Y-70233138D01*
X107841000Y-70896862D01*
X107836555Y-70941999D01*
X107825180Y-70979495D01*
X107806708Y-71014054D01*
X107781847Y-71044347D01*
X107751554Y-71069208D01*
X107716995Y-71087680D01*
X107679499Y-71099055D01*
X107634362Y-71103500D01*
X106995638Y-71103500D01*
X106950501Y-71099055D01*
X106913005Y-71087680D01*
X106878446Y-71069208D01*
X106848153Y-71044347D01*
X106823292Y-71014054D01*
X106804820Y-70979495D01*
X106793445Y-70941999D01*
X106789000Y-70896862D01*
X106789000Y-70233138D01*
X106793445Y-70188001D01*
X106804820Y-70150505D01*
X106823292Y-70115946D01*
X106848153Y-70085653D01*
X106878446Y-70060792D01*
X106913005Y-70042320D01*
X106950501Y-70030945D01*
X106995638Y-70026500D01*
X107634362Y-70026500D01*
X107679499Y-70030945D01*
X107679499Y-70030945D01*
G37*
G36*
X109358901Y-70196360D02*
G01*
X109380925Y-70203041D01*
X109401222Y-70213890D01*
X109419011Y-70228489D01*
X109433610Y-70246278D01*
X109444459Y-70266575D01*
X109451140Y-70288599D01*
X109454000Y-70317640D01*
X109454000Y-70906360D01*
X109451140Y-70935401D01*
X109444459Y-70957425D01*
X109433610Y-70977722D01*
X109419011Y-70995511D01*
X109401222Y-71010110D01*
X109380925Y-71020959D01*
X109358901Y-71027640D01*
X109329860Y-71030500D01*
X108856140Y-71030500D01*
X108827099Y-71027640D01*
X108805075Y-71020959D01*
X108784778Y-71010110D01*
X108766989Y-70995511D01*
X108752390Y-70977722D01*
X108741541Y-70957425D01*
X108734860Y-70935401D01*
X108732000Y-70906360D01*
X108732000Y-70317640D01*
X108734860Y-70288599D01*
X108741541Y-70266575D01*
X108752390Y-70246278D01*
X108766989Y-70228489D01*
X108784778Y-70213890D01*
X108805075Y-70203041D01*
X108827099Y-70196360D01*
X108856140Y-70193500D01*
X109329860Y-70193500D01*
X109358901Y-70196360D01*
X109358901Y-70196360D01*
G37*
M02*
