G04 #@! TF.GenerationSoftware,KiCad,Pcbnew,(5.1.4)-1*
G04 #@! TF.CreationDate,2021-08-28T14:03:40-05:00*
G04 #@! TF.ProjectId,Mocos_2021,4d6f636f-735f-4323-9032-312e6b696361,1*
G04 #@! TF.SameCoordinates,Original*
G04 #@! TF.FileFunction,Soldermask,Bot*
G04 #@! TF.FilePolarity,Negative*
%FSLAX46Y46*%
G04 Gerber Fmt 4.6, Leading zero omitted, Abs format (unit mm)*
G04 Created by KiCad (PCBNEW (5.1.4)-1) date 2021-08-28 14:03:40*
%MOMM*%
%LPD*%
G04 APERTURE LIST*
%ADD10C,0.100000*%
G04 APERTURE END LIST*
D10*
G36*
X182274508Y-122189380D02*
G01*
X182441367Y-122222570D01*
X182912899Y-122417885D01*
X183155629Y-122580073D01*
X183337266Y-122701438D01*
X183698162Y-123062334D01*
X183748102Y-123137075D01*
X183981715Y-123486701D01*
X184177030Y-123958233D01*
X184210220Y-124125092D01*
X184276600Y-124458807D01*
X184276600Y-124969193D01*
X184268390Y-125010466D01*
X184177030Y-125469767D01*
X183981715Y-125941299D01*
X183819527Y-126184029D01*
X183698162Y-126365666D01*
X183337266Y-126726562D01*
X183155629Y-126847927D01*
X182912899Y-127010115D01*
X182441367Y-127205430D01*
X182274508Y-127238620D01*
X181940793Y-127305000D01*
X181430407Y-127305000D01*
X181096692Y-127238620D01*
X180929833Y-127205430D01*
X180458301Y-127010115D01*
X180215571Y-126847927D01*
X180033934Y-126726562D01*
X179673038Y-126365666D01*
X179551673Y-126184029D01*
X179389485Y-125941299D01*
X179194170Y-125469767D01*
X179102810Y-125010466D01*
X179094600Y-124969193D01*
X179094600Y-124458807D01*
X179160980Y-124125092D01*
X179194170Y-123958233D01*
X179389485Y-123486701D01*
X179623098Y-123137075D01*
X179673038Y-123062334D01*
X180033934Y-122701438D01*
X180215571Y-122580073D01*
X180458301Y-122417885D01*
X180929833Y-122222570D01*
X181096692Y-122189380D01*
X181430407Y-122123000D01*
X181940793Y-122123000D01*
X182274508Y-122189380D01*
X182274508Y-122189380D01*
G37*
G36*
X134058519Y-123104377D02*
G01*
X134222903Y-123137075D01*
X134450571Y-123231378D01*
X134655466Y-123368285D01*
X134829715Y-123542534D01*
X134877087Y-123613431D01*
X134966623Y-123747431D01*
X135008320Y-123848097D01*
X135060925Y-123975097D01*
X135109000Y-124216787D01*
X135109000Y-124463213D01*
X135060925Y-124704903D01*
X134966622Y-124932571D01*
X134829715Y-125137466D01*
X134655466Y-125311715D01*
X134450571Y-125448622D01*
X134450570Y-125448623D01*
X134450569Y-125448623D01*
X134222903Y-125542925D01*
X133981214Y-125591000D01*
X133734786Y-125591000D01*
X133493097Y-125542925D01*
X133265431Y-125448623D01*
X133265430Y-125448623D01*
X133265429Y-125448622D01*
X133060534Y-125311715D01*
X132886285Y-125137466D01*
X132749378Y-124932571D01*
X132655075Y-124704903D01*
X132607000Y-124463213D01*
X132607000Y-124216787D01*
X132655075Y-123975097D01*
X132707680Y-123848097D01*
X132749377Y-123747431D01*
X132838913Y-123613431D01*
X132886285Y-123542534D01*
X133060534Y-123368285D01*
X133265429Y-123231378D01*
X133493097Y-123137075D01*
X133657481Y-123104377D01*
X133734786Y-123089000D01*
X133981214Y-123089000D01*
X134058519Y-123104377D01*
X134058519Y-123104377D01*
G37*
G36*
X151875903Y-123010075D02*
G01*
X152086672Y-123097378D01*
X152103571Y-123104378D01*
X152308466Y-123241285D01*
X152482715Y-123415534D01*
X152614946Y-123613431D01*
X152619623Y-123620431D01*
X152713925Y-123848097D01*
X152762000Y-124089786D01*
X152762000Y-124336214D01*
X152713925Y-124577903D01*
X152622522Y-124798571D01*
X152619622Y-124805571D01*
X152482715Y-125010466D01*
X152308466Y-125184715D01*
X152103571Y-125321622D01*
X152103570Y-125321623D01*
X152103569Y-125321623D01*
X151875903Y-125415925D01*
X151634214Y-125464000D01*
X151387786Y-125464000D01*
X151146097Y-125415925D01*
X150918431Y-125321623D01*
X150918430Y-125321623D01*
X150918429Y-125321622D01*
X150713534Y-125184715D01*
X150539285Y-125010466D01*
X150402378Y-124805571D01*
X150399479Y-124798571D01*
X150308075Y-124577903D01*
X150260000Y-124336214D01*
X150260000Y-124089786D01*
X150308075Y-123848097D01*
X150402377Y-123620431D01*
X150407054Y-123613431D01*
X150539285Y-123415534D01*
X150713534Y-123241285D01*
X150918429Y-123104378D01*
X150935329Y-123097378D01*
X151146097Y-123010075D01*
X151387786Y-122962000D01*
X151634214Y-122962000D01*
X151875903Y-123010075D01*
X151875903Y-123010075D01*
G37*
G36*
X169020903Y-123003075D02*
G01*
X169248571Y-123097378D01*
X169453466Y-123234285D01*
X169627715Y-123408534D01*
X169764622Y-123613429D01*
X169764623Y-123613431D01*
X169858925Y-123841097D01*
X169907000Y-124082786D01*
X169907000Y-124329214D01*
X169858925Y-124570903D01*
X169803421Y-124704903D01*
X169764622Y-124798571D01*
X169627715Y-125003466D01*
X169453466Y-125177715D01*
X169248571Y-125314622D01*
X169248570Y-125314623D01*
X169248569Y-125314623D01*
X169020903Y-125408925D01*
X168779214Y-125457000D01*
X168532786Y-125457000D01*
X168291097Y-125408925D01*
X168063431Y-125314623D01*
X168063430Y-125314623D01*
X168063429Y-125314622D01*
X167858534Y-125177715D01*
X167684285Y-125003466D01*
X167547378Y-124798571D01*
X167508580Y-124704903D01*
X167453075Y-124570903D01*
X167405000Y-124329214D01*
X167405000Y-124082786D01*
X167453075Y-123841097D01*
X167547377Y-123613431D01*
X167547378Y-123613429D01*
X167684285Y-123408534D01*
X167858534Y-123234285D01*
X168063429Y-123097378D01*
X168291097Y-123003075D01*
X168532786Y-122955000D01*
X168779214Y-122955000D01*
X169020903Y-123003075D01*
X169020903Y-123003075D01*
G37*
G36*
X84687999Y-121910000D02*
G01*
X75186001Y-121910000D01*
X75186001Y-111008000D01*
X84687999Y-111008000D01*
X84687999Y-121910000D01*
X84687999Y-121910000D01*
G37*
G36*
X100508000Y-120269200D02*
G01*
X99517000Y-120269200D01*
X99517000Y-117728800D01*
X100508000Y-117728800D01*
X100508000Y-120269200D01*
X100508000Y-120269200D01*
G37*
G36*
X98730000Y-120269200D02*
G01*
X93040000Y-120269200D01*
X93040000Y-117728800D01*
X98730000Y-117728800D01*
X98730000Y-120269200D01*
X98730000Y-120269200D01*
G37*
G36*
X91438000Y-119600000D02*
G01*
X86736000Y-119600000D01*
X86736000Y-118398000D01*
X91438000Y-118398000D01*
X91438000Y-119600000D01*
X91438000Y-119600000D01*
G37*
G36*
X182274508Y-114315380D02*
G01*
X182441367Y-114348570D01*
X182912899Y-114543885D01*
X183155629Y-114706073D01*
X183337266Y-114827438D01*
X183698162Y-115188334D01*
X183819527Y-115369971D01*
X183981715Y-115612701D01*
X184177030Y-116084233D01*
X184276600Y-116584809D01*
X184276600Y-117095191D01*
X184177030Y-117595767D01*
X183981715Y-118067299D01*
X183819527Y-118310029D01*
X183698162Y-118491666D01*
X183337266Y-118852562D01*
X183155629Y-118973927D01*
X182912899Y-119136115D01*
X182441367Y-119331430D01*
X182274508Y-119364620D01*
X181940793Y-119431000D01*
X181430407Y-119431000D01*
X181096692Y-119364620D01*
X180929833Y-119331430D01*
X180458301Y-119136115D01*
X180215571Y-118973927D01*
X180033934Y-118852562D01*
X179673038Y-118491666D01*
X179551673Y-118310029D01*
X179389485Y-118067299D01*
X179194170Y-117595767D01*
X179094600Y-117095191D01*
X179094600Y-116584809D01*
X179194170Y-116084233D01*
X179389485Y-115612701D01*
X179551673Y-115369971D01*
X179673038Y-115188334D01*
X180033934Y-114827438D01*
X180215571Y-114706073D01*
X180458301Y-114543885D01*
X180929833Y-114348570D01*
X181096692Y-114315380D01*
X181430407Y-114249000D01*
X181940793Y-114249000D01*
X182274508Y-114315380D01*
X182274508Y-114315380D01*
G37*
G36*
X135109000Y-118091000D02*
G01*
X132607000Y-118091000D01*
X132607000Y-115589000D01*
X135109000Y-115589000D01*
X135109000Y-118091000D01*
X135109000Y-118091000D01*
G37*
G36*
X152762000Y-117964000D02*
G01*
X150260000Y-117964000D01*
X150260000Y-115462000D01*
X152762000Y-115462000D01*
X152762000Y-117964000D01*
X152762000Y-117964000D01*
G37*
G36*
X169907000Y-117957000D02*
G01*
X167405000Y-117957000D01*
X167405000Y-115455000D01*
X169907000Y-115455000D01*
X169907000Y-117957000D01*
X169907000Y-117957000D01*
G37*
G36*
X91438000Y-117060000D02*
G01*
X86736000Y-117060000D01*
X86736000Y-115858000D01*
X91438000Y-115858000D01*
X91438000Y-117060000D01*
X91438000Y-117060000D01*
G37*
G36*
X91438000Y-114520000D02*
G01*
X86736000Y-114520000D01*
X86736000Y-113318000D01*
X91438000Y-113318000D01*
X91438000Y-114520000D01*
X91438000Y-114520000D01*
G37*
G36*
X98730000Y-113792200D02*
G01*
X93040000Y-113792200D01*
X93040000Y-111251800D01*
X98730000Y-111251800D01*
X98730000Y-113792200D01*
X98730000Y-113792200D01*
G37*
G36*
X100508000Y-113792200D02*
G01*
X99517000Y-113792200D01*
X99517000Y-111251800D01*
X100508000Y-111251800D01*
X100508000Y-113792200D01*
X100508000Y-113792200D01*
G37*
G36*
X83265908Y-104282380D02*
G01*
X83432767Y-104315570D01*
X83904299Y-104510885D01*
X84147029Y-104673073D01*
X84328666Y-104794438D01*
X84689562Y-105155334D01*
X84810927Y-105336971D01*
X84973115Y-105579701D01*
X85168430Y-106051233D01*
X85268000Y-106551809D01*
X85268000Y-107062191D01*
X85168430Y-107562767D01*
X84973115Y-108034299D01*
X84810927Y-108277029D01*
X84689562Y-108458666D01*
X84328666Y-108819562D01*
X84147029Y-108940927D01*
X83904299Y-109103115D01*
X83432767Y-109298430D01*
X83265908Y-109331620D01*
X82932193Y-109398000D01*
X82421807Y-109398000D01*
X82088092Y-109331620D01*
X81921233Y-109298430D01*
X81449701Y-109103115D01*
X81206971Y-108940927D01*
X81025334Y-108819562D01*
X80664438Y-108458666D01*
X80543073Y-108277029D01*
X80380885Y-108034299D01*
X80185570Y-107562767D01*
X80086000Y-107062191D01*
X80086000Y-106551809D01*
X80185570Y-106051233D01*
X80380885Y-105579701D01*
X80543073Y-105336971D01*
X80664438Y-105155334D01*
X81025334Y-104794438D01*
X81206971Y-104673073D01*
X81449701Y-104510885D01*
X81921233Y-104315570D01*
X82088092Y-104282380D01*
X82421807Y-104216000D01*
X82932193Y-104216000D01*
X83265908Y-104282380D01*
X83265908Y-104282380D01*
G37*
G36*
X97653000Y-104899999D02*
G01*
X86751000Y-104899999D01*
X86751000Y-95398001D01*
X97653000Y-95398001D01*
X97653000Y-104899999D01*
X97653000Y-104899999D01*
G37*
G36*
X83175964Y-96390489D02*
G01*
X83432767Y-96441570D01*
X83904299Y-96636885D01*
X84147029Y-96799073D01*
X84328666Y-96920438D01*
X84689562Y-97281334D01*
X84810927Y-97462971D01*
X84973115Y-97705701D01*
X85168430Y-98177233D01*
X85268000Y-98677809D01*
X85268000Y-99188191D01*
X85168430Y-99688767D01*
X84973115Y-100160299D01*
X84810927Y-100403029D01*
X84689562Y-100584666D01*
X84328666Y-100945562D01*
X84147029Y-101066927D01*
X83904299Y-101229115D01*
X83432767Y-101424430D01*
X83265908Y-101457620D01*
X82932193Y-101524000D01*
X82421807Y-101524000D01*
X82088092Y-101457620D01*
X81921233Y-101424430D01*
X81449701Y-101229115D01*
X81206971Y-101066927D01*
X81025334Y-100945562D01*
X80664438Y-100584666D01*
X80543073Y-100403029D01*
X80380885Y-100160299D01*
X80185570Y-99688767D01*
X80086000Y-99188191D01*
X80086000Y-98677809D01*
X80185570Y-98177233D01*
X80380885Y-97705701D01*
X80543073Y-97462971D01*
X80664438Y-97281334D01*
X81025334Y-96920438D01*
X81206971Y-96799073D01*
X81449701Y-96636885D01*
X81921233Y-96441570D01*
X82178036Y-96390489D01*
X82421807Y-96342000D01*
X82932193Y-96342000D01*
X83175964Y-96390489D01*
X83175964Y-96390489D01*
G37*
G36*
X132599901Y-97493360D02*
G01*
X132621925Y-97500041D01*
X132642222Y-97510890D01*
X132660011Y-97525489D01*
X132674610Y-97543278D01*
X132685459Y-97563575D01*
X132692140Y-97585599D01*
X132695000Y-97614640D01*
X132695000Y-98203360D01*
X132692140Y-98232401D01*
X132685459Y-98254425D01*
X132674610Y-98274722D01*
X132660011Y-98292511D01*
X132642222Y-98307110D01*
X132621925Y-98317959D01*
X132599901Y-98324640D01*
X132570860Y-98327500D01*
X132097140Y-98327500D01*
X132068099Y-98324640D01*
X132046075Y-98317959D01*
X132025778Y-98307110D01*
X132007989Y-98292511D01*
X131993390Y-98274722D01*
X131982541Y-98254425D01*
X131975860Y-98232401D01*
X131973000Y-98203360D01*
X131973000Y-97614640D01*
X131975860Y-97585599D01*
X131982541Y-97563575D01*
X131993390Y-97543278D01*
X132007989Y-97525489D01*
X132025778Y-97510890D01*
X132046075Y-97500041D01*
X132068099Y-97493360D01*
X132097140Y-97490500D01*
X132570860Y-97490500D01*
X132599901Y-97493360D01*
X132599901Y-97493360D01*
G37*
G36*
X133996901Y-97493360D02*
G01*
X134018925Y-97500041D01*
X134039222Y-97510890D01*
X134057011Y-97525489D01*
X134071610Y-97543278D01*
X134082459Y-97563575D01*
X134089140Y-97585599D01*
X134092000Y-97614640D01*
X134092000Y-98203360D01*
X134089140Y-98232401D01*
X134082459Y-98254425D01*
X134071610Y-98274722D01*
X134057011Y-98292511D01*
X134039222Y-98307110D01*
X134018925Y-98317959D01*
X133996901Y-98324640D01*
X133967860Y-98327500D01*
X133494140Y-98327500D01*
X133465099Y-98324640D01*
X133443075Y-98317959D01*
X133422778Y-98307110D01*
X133404989Y-98292511D01*
X133390390Y-98274722D01*
X133379541Y-98254425D01*
X133372860Y-98232401D01*
X133370000Y-98203360D01*
X133370000Y-97614640D01*
X133372860Y-97585599D01*
X133379541Y-97563575D01*
X133390390Y-97543278D01*
X133404989Y-97525489D01*
X133422778Y-97510890D01*
X133443075Y-97500041D01*
X133465099Y-97493360D01*
X133494140Y-97490500D01*
X133967860Y-97490500D01*
X133996901Y-97493360D01*
X133996901Y-97493360D01*
G37*
G36*
X132599901Y-96358360D02*
G01*
X132621925Y-96365041D01*
X132642222Y-96375890D01*
X132660011Y-96390489D01*
X132674610Y-96408278D01*
X132685459Y-96428575D01*
X132692140Y-96450599D01*
X132695000Y-96479640D01*
X132695000Y-97068360D01*
X132692140Y-97097401D01*
X132685459Y-97119425D01*
X132674610Y-97139722D01*
X132660011Y-97157511D01*
X132642222Y-97172110D01*
X132621925Y-97182959D01*
X132599901Y-97189640D01*
X132570860Y-97192500D01*
X132097140Y-97192500D01*
X132068099Y-97189640D01*
X132046075Y-97182959D01*
X132025778Y-97172110D01*
X132007989Y-97157511D01*
X131993390Y-97139722D01*
X131982541Y-97119425D01*
X131975860Y-97097401D01*
X131973000Y-97068360D01*
X131973000Y-96479640D01*
X131975860Y-96450599D01*
X131982541Y-96428575D01*
X131993390Y-96408278D01*
X132007989Y-96390489D01*
X132025778Y-96375890D01*
X132046075Y-96365041D01*
X132068099Y-96358360D01*
X132097140Y-96355500D01*
X132570860Y-96355500D01*
X132599901Y-96358360D01*
X132599901Y-96358360D01*
G37*
G36*
X133996901Y-96358360D02*
G01*
X134018925Y-96365041D01*
X134039222Y-96375890D01*
X134057011Y-96390489D01*
X134071610Y-96408278D01*
X134082459Y-96428575D01*
X134089140Y-96450599D01*
X134092000Y-96479640D01*
X134092000Y-97068360D01*
X134089140Y-97097401D01*
X134082459Y-97119425D01*
X134071610Y-97139722D01*
X134057011Y-97157511D01*
X134039222Y-97172110D01*
X134018925Y-97182959D01*
X133996901Y-97189640D01*
X133967860Y-97192500D01*
X133494140Y-97192500D01*
X133465099Y-97189640D01*
X133443075Y-97182959D01*
X133422778Y-97172110D01*
X133404989Y-97157511D01*
X133390390Y-97139722D01*
X133379541Y-97119425D01*
X133372860Y-97097401D01*
X133370000Y-97068360D01*
X133370000Y-96479640D01*
X133372860Y-96450599D01*
X133379541Y-96428575D01*
X133390390Y-96408278D01*
X133404989Y-96390489D01*
X133422778Y-96375890D01*
X133443075Y-96365041D01*
X133465099Y-96358360D01*
X133494140Y-96355500D01*
X133967860Y-96355500D01*
X133996901Y-96358360D01*
X133996901Y-96358360D01*
G37*
G36*
X83265908Y-88534380D02*
G01*
X83432767Y-88567570D01*
X83904299Y-88762885D01*
X84147029Y-88925073D01*
X84328666Y-89046438D01*
X84689562Y-89407334D01*
X84768013Y-89524745D01*
X84973115Y-89831701D01*
X85168430Y-90303233D01*
X85168430Y-90303234D01*
X85259977Y-90763471D01*
X85268000Y-90803809D01*
X85268000Y-91314191D01*
X85168430Y-91814767D01*
X84973115Y-92286299D01*
X84810927Y-92529029D01*
X84689562Y-92710666D01*
X84328666Y-93071562D01*
X84147029Y-93192927D01*
X83904299Y-93355115D01*
X83432767Y-93550430D01*
X83265908Y-93583620D01*
X82932193Y-93650000D01*
X82421807Y-93650000D01*
X82088092Y-93583620D01*
X81921233Y-93550430D01*
X81449701Y-93355115D01*
X81206971Y-93192927D01*
X81025334Y-93071562D01*
X80664438Y-92710666D01*
X80543073Y-92529029D01*
X80380885Y-92286299D01*
X80185570Y-91814767D01*
X80086000Y-91314191D01*
X80086000Y-90803809D01*
X80094024Y-90763471D01*
X80185570Y-90303234D01*
X80185570Y-90303233D01*
X80380885Y-89831701D01*
X80585987Y-89524745D01*
X80664438Y-89407334D01*
X81025334Y-89046438D01*
X81206971Y-88925073D01*
X81449701Y-88762885D01*
X81921233Y-88567570D01*
X82088092Y-88534380D01*
X82421807Y-88468000D01*
X82932193Y-88468000D01*
X83265908Y-88534380D01*
X83265908Y-88534380D01*
G37*
G36*
X90263000Y-93350000D02*
G01*
X89061000Y-93350000D01*
X89061000Y-88648000D01*
X90263000Y-88648000D01*
X90263000Y-93350000D01*
X90263000Y-93350000D01*
G37*
G36*
X92803000Y-93350000D02*
G01*
X91601000Y-93350000D01*
X91601000Y-88648000D01*
X92803000Y-88648000D01*
X92803000Y-93350000D01*
X92803000Y-93350000D01*
G37*
G36*
X95343000Y-93350000D02*
G01*
X94141000Y-93350000D01*
X94141000Y-88648000D01*
X95343000Y-88648000D01*
X95343000Y-93350000D01*
X95343000Y-93350000D01*
G37*
G36*
X179307142Y-89261242D02*
G01*
X179455101Y-89322529D01*
X179588255Y-89411499D01*
X179701501Y-89524745D01*
X179790471Y-89657899D01*
X179851758Y-89805858D01*
X179883000Y-89962925D01*
X179883000Y-90123075D01*
X179851758Y-90280142D01*
X179790471Y-90428101D01*
X179701501Y-90561255D01*
X179588255Y-90674501D01*
X179455101Y-90763471D01*
X179307142Y-90824758D01*
X179150075Y-90856000D01*
X178989925Y-90856000D01*
X178832858Y-90824758D01*
X178684899Y-90763471D01*
X178551745Y-90674501D01*
X178438499Y-90561255D01*
X178349529Y-90428101D01*
X178288242Y-90280142D01*
X178257000Y-90123075D01*
X178257000Y-89962925D01*
X178288242Y-89805858D01*
X178349529Y-89657899D01*
X178438499Y-89524745D01*
X178551745Y-89411499D01*
X178684899Y-89322529D01*
X178832858Y-89261242D01*
X178989925Y-89230000D01*
X179150075Y-89230000D01*
X179307142Y-89261242D01*
X179307142Y-89261242D01*
G37*
G36*
X183851114Y-86357314D02*
G01*
X184140056Y-86476998D01*
X184140058Y-86476999D01*
X184400100Y-86650753D01*
X184621247Y-86871900D01*
X184790947Y-87125875D01*
X184795002Y-87131944D01*
X184914686Y-87420886D01*
X184975700Y-87727624D01*
X184975700Y-88040376D01*
X184914686Y-88347114D01*
X184864613Y-88468000D01*
X184795001Y-88636058D01*
X184621247Y-88896100D01*
X184400100Y-89117247D01*
X184140058Y-89291001D01*
X184140057Y-89291002D01*
X184140056Y-89291002D01*
X183851114Y-89410686D01*
X183544376Y-89471700D01*
X183231624Y-89471700D01*
X182924886Y-89410686D01*
X182635944Y-89291002D01*
X182635943Y-89291002D01*
X182635942Y-89291001D01*
X182375900Y-89117247D01*
X182154753Y-88896100D01*
X181980999Y-88636058D01*
X181911387Y-88468000D01*
X181861314Y-88347114D01*
X181800300Y-88040376D01*
X181800300Y-87727624D01*
X181861314Y-87420886D01*
X181980998Y-87131944D01*
X181985053Y-87125875D01*
X182154753Y-86871900D01*
X182375900Y-86650753D01*
X182635942Y-86476999D01*
X182635944Y-86476998D01*
X182924886Y-86357314D01*
X183231624Y-86296300D01*
X183544376Y-86296300D01*
X183851114Y-86357314D01*
X183851114Y-86357314D01*
G37*
G36*
X179307142Y-86264042D02*
G01*
X179455101Y-86325329D01*
X179588255Y-86414299D01*
X179701501Y-86527545D01*
X179790471Y-86660699D01*
X179851758Y-86808658D01*
X179883000Y-86965725D01*
X179883000Y-87125875D01*
X179851758Y-87282942D01*
X179790471Y-87430901D01*
X179701501Y-87564055D01*
X179588255Y-87677301D01*
X179455101Y-87766271D01*
X179307142Y-87827558D01*
X179150075Y-87858800D01*
X178989925Y-87858800D01*
X178832858Y-87827558D01*
X178684899Y-87766271D01*
X178551745Y-87677301D01*
X178438499Y-87564055D01*
X178349529Y-87430901D01*
X178288242Y-87282942D01*
X178257000Y-87125875D01*
X178257000Y-86965725D01*
X178288242Y-86808658D01*
X178349529Y-86660699D01*
X178438499Y-86527545D01*
X178551745Y-86414299D01*
X178684899Y-86325329D01*
X178832858Y-86264042D01*
X178989925Y-86232800D01*
X179150075Y-86232800D01*
X179307142Y-86264042D01*
X179307142Y-86264042D01*
G37*
G36*
X179307142Y-83266842D02*
G01*
X179455101Y-83328129D01*
X179588255Y-83417099D01*
X179701501Y-83530345D01*
X179790471Y-83663499D01*
X179851758Y-83811458D01*
X179883000Y-83968525D01*
X179883000Y-84128675D01*
X179851758Y-84285742D01*
X179790471Y-84433701D01*
X179701501Y-84566855D01*
X179588255Y-84680101D01*
X179455101Y-84769071D01*
X179307142Y-84830358D01*
X179150075Y-84861600D01*
X178989925Y-84861600D01*
X178832858Y-84830358D01*
X178684899Y-84769071D01*
X178551745Y-84680101D01*
X178438499Y-84566855D01*
X178349529Y-84433701D01*
X178288242Y-84285742D01*
X178257000Y-84128675D01*
X178257000Y-83968525D01*
X178288242Y-83811458D01*
X178349529Y-83663499D01*
X178438499Y-83530345D01*
X178551745Y-83417099D01*
X178684899Y-83328129D01*
X178832858Y-83266842D01*
X178989925Y-83235600D01*
X179150075Y-83235600D01*
X179307142Y-83266842D01*
X179307142Y-83266842D01*
G37*
G36*
X179307142Y-80269642D02*
G01*
X179455101Y-80330929D01*
X179588255Y-80419899D01*
X179701501Y-80533145D01*
X179790471Y-80666299D01*
X179851758Y-80814258D01*
X179883000Y-80971325D01*
X179883000Y-81131475D01*
X179851758Y-81288542D01*
X179790471Y-81436501D01*
X179701501Y-81569655D01*
X179588255Y-81682901D01*
X179455101Y-81771871D01*
X179307142Y-81833158D01*
X179150075Y-81864400D01*
X178989925Y-81864400D01*
X178832858Y-81833158D01*
X178684899Y-81771871D01*
X178551745Y-81682901D01*
X178438499Y-81569655D01*
X178349529Y-81436501D01*
X178288242Y-81288542D01*
X178257000Y-81131475D01*
X178257000Y-80971325D01*
X178288242Y-80814258D01*
X178349529Y-80666299D01*
X178438499Y-80533145D01*
X178551745Y-80419899D01*
X178684899Y-80330929D01*
X178832858Y-80269642D01*
X178989925Y-80238400D01*
X179150075Y-80238400D01*
X179307142Y-80269642D01*
X179307142Y-80269642D01*
G37*
G36*
X183851114Y-78686514D02*
G01*
X184063943Y-78774671D01*
X184140058Y-78806199D01*
X184400100Y-78979953D01*
X184621247Y-79201100D01*
X184795001Y-79461142D01*
X184795002Y-79461144D01*
X184914686Y-79750086D01*
X184975700Y-80056824D01*
X184975700Y-80369576D01*
X184914686Y-80676314D01*
X184795002Y-80965256D01*
X184795001Y-80965258D01*
X184621247Y-81225300D01*
X184400100Y-81446447D01*
X184140058Y-81620201D01*
X184140057Y-81620202D01*
X184140056Y-81620202D01*
X183851114Y-81739886D01*
X183544376Y-81800900D01*
X183231624Y-81800900D01*
X182924886Y-81739886D01*
X182635944Y-81620202D01*
X182635943Y-81620202D01*
X182635942Y-81620201D01*
X182375900Y-81446447D01*
X182154753Y-81225300D01*
X181980999Y-80965258D01*
X181980998Y-80965256D01*
X181861314Y-80676314D01*
X181800300Y-80369576D01*
X181800300Y-80056824D01*
X181861314Y-79750086D01*
X181980998Y-79461144D01*
X181980999Y-79461142D01*
X182154753Y-79201100D01*
X182375900Y-78979953D01*
X182635942Y-78806199D01*
X182712057Y-78774671D01*
X182924886Y-78686514D01*
X183231624Y-78625500D01*
X183544376Y-78625500D01*
X183851114Y-78686514D01*
X183851114Y-78686514D01*
G37*
G36*
X75616999Y-81270000D02*
G01*
X66115001Y-81270000D01*
X66115001Y-70368000D01*
X75616999Y-70368000D01*
X75616999Y-81270000D01*
X75616999Y-81270000D01*
G37*
G36*
X82367000Y-78960000D02*
G01*
X77665000Y-78960000D01*
X77665000Y-77758000D01*
X82367000Y-77758000D01*
X82367000Y-78960000D01*
X82367000Y-78960000D01*
G37*
G36*
X179307142Y-77272442D02*
G01*
X179455101Y-77333729D01*
X179588255Y-77422699D01*
X179701501Y-77535945D01*
X179790471Y-77669099D01*
X179851758Y-77817058D01*
X179883000Y-77974125D01*
X179883000Y-78134275D01*
X179851758Y-78291342D01*
X179790471Y-78439301D01*
X179701501Y-78572455D01*
X179588255Y-78685701D01*
X179455101Y-78774671D01*
X179307142Y-78835958D01*
X179150075Y-78867200D01*
X178989925Y-78867200D01*
X178832858Y-78835958D01*
X178684899Y-78774671D01*
X178551745Y-78685701D01*
X178438499Y-78572455D01*
X178349529Y-78439301D01*
X178288242Y-78291342D01*
X178257000Y-78134275D01*
X178257000Y-77974125D01*
X178288242Y-77817058D01*
X178349529Y-77669099D01*
X178438499Y-77535945D01*
X178551745Y-77422699D01*
X178684899Y-77333729D01*
X178832858Y-77272442D01*
X178989925Y-77241200D01*
X179150075Y-77241200D01*
X179307142Y-77272442D01*
X179307142Y-77272442D01*
G37*
G36*
X147811142Y-76307242D02*
G01*
X147959101Y-76368529D01*
X148092255Y-76457499D01*
X148205501Y-76570745D01*
X148294471Y-76703899D01*
X148355758Y-76851858D01*
X148387000Y-77008925D01*
X148387000Y-77169075D01*
X148355758Y-77326142D01*
X148294471Y-77474101D01*
X148205501Y-77607255D01*
X148092255Y-77720501D01*
X147959101Y-77809471D01*
X147811142Y-77870758D01*
X147654075Y-77902000D01*
X147493925Y-77902000D01*
X147336858Y-77870758D01*
X147188899Y-77809471D01*
X147055745Y-77720501D01*
X146942499Y-77607255D01*
X146853529Y-77474101D01*
X146792242Y-77326142D01*
X146761000Y-77169075D01*
X146761000Y-77008925D01*
X146792242Y-76851858D01*
X146853529Y-76703899D01*
X146942499Y-76570745D01*
X147055745Y-76457499D01*
X147188899Y-76368529D01*
X147336858Y-76307242D01*
X147493925Y-76276000D01*
X147654075Y-76276000D01*
X147811142Y-76307242D01*
X147811142Y-76307242D01*
G37*
G36*
X153907142Y-76307242D02*
G01*
X154055101Y-76368529D01*
X154188255Y-76457499D01*
X154301501Y-76570745D01*
X154390471Y-76703899D01*
X154451758Y-76851858D01*
X154483000Y-77008925D01*
X154483000Y-77169075D01*
X154451758Y-77326142D01*
X154390471Y-77474101D01*
X154301501Y-77607255D01*
X154188255Y-77720501D01*
X154055101Y-77809471D01*
X153907142Y-77870758D01*
X153750075Y-77902000D01*
X153589925Y-77902000D01*
X153432858Y-77870758D01*
X153284899Y-77809471D01*
X153151745Y-77720501D01*
X153038499Y-77607255D01*
X152949529Y-77474101D01*
X152888242Y-77326142D01*
X152857000Y-77169075D01*
X152857000Y-77008925D01*
X152888242Y-76851858D01*
X152949529Y-76703899D01*
X153038499Y-76570745D01*
X153151745Y-76457499D01*
X153284899Y-76368529D01*
X153432858Y-76307242D01*
X153589925Y-76276000D01*
X153750075Y-76276000D01*
X153907142Y-76307242D01*
X153907142Y-76307242D01*
G37*
G36*
X150859142Y-76307242D02*
G01*
X151007101Y-76368529D01*
X151140255Y-76457499D01*
X151253501Y-76570745D01*
X151342471Y-76703899D01*
X151403758Y-76851858D01*
X151435000Y-77008925D01*
X151435000Y-77169075D01*
X151403758Y-77326142D01*
X151342471Y-77474101D01*
X151253501Y-77607255D01*
X151140255Y-77720501D01*
X151007101Y-77809471D01*
X150859142Y-77870758D01*
X150702075Y-77902000D01*
X150541925Y-77902000D01*
X150384858Y-77870758D01*
X150236899Y-77809471D01*
X150103745Y-77720501D01*
X149990499Y-77607255D01*
X149901529Y-77474101D01*
X149840242Y-77326142D01*
X149809000Y-77169075D01*
X149809000Y-77008925D01*
X149840242Y-76851858D01*
X149901529Y-76703899D01*
X149990499Y-76570745D01*
X150103745Y-76457499D01*
X150236899Y-76368529D01*
X150384858Y-76307242D01*
X150541925Y-76276000D01*
X150702075Y-76276000D01*
X150859142Y-76307242D01*
X150859142Y-76307242D01*
G37*
G36*
X115172142Y-76180242D02*
G01*
X115320101Y-76241529D01*
X115453255Y-76330499D01*
X115566501Y-76443745D01*
X115655471Y-76576899D01*
X115716758Y-76724858D01*
X115748000Y-76881925D01*
X115748000Y-77042075D01*
X115716758Y-77199142D01*
X115655471Y-77347101D01*
X115566501Y-77480255D01*
X115453255Y-77593501D01*
X115320101Y-77682471D01*
X115172142Y-77743758D01*
X115015075Y-77775000D01*
X114854925Y-77775000D01*
X114697858Y-77743758D01*
X114549899Y-77682471D01*
X114416745Y-77593501D01*
X114303499Y-77480255D01*
X114214529Y-77347101D01*
X114153242Y-77199142D01*
X114122000Y-77042075D01*
X114122000Y-76881925D01*
X114153242Y-76724858D01*
X114214529Y-76576899D01*
X114303499Y-76443745D01*
X114416745Y-76330499D01*
X114549899Y-76241529D01*
X114697858Y-76180242D01*
X114854925Y-76149000D01*
X115015075Y-76149000D01*
X115172142Y-76180242D01*
X115172142Y-76180242D01*
G37*
G36*
X82367000Y-76420000D02*
G01*
X77665000Y-76420000D01*
X77665000Y-75218000D01*
X82367000Y-75218000D01*
X82367000Y-76420000D01*
X82367000Y-76420000D01*
G37*
G36*
X115172142Y-73640242D02*
G01*
X115320101Y-73701529D01*
X115453255Y-73790499D01*
X115566501Y-73903745D01*
X115655471Y-74036899D01*
X115716758Y-74184858D01*
X115748000Y-74341925D01*
X115748000Y-74502075D01*
X115716758Y-74659142D01*
X115655471Y-74807101D01*
X115566501Y-74940255D01*
X115453255Y-75053501D01*
X115320101Y-75142471D01*
X115172142Y-75203758D01*
X115015075Y-75235000D01*
X114854925Y-75235000D01*
X114697858Y-75203758D01*
X114549899Y-75142471D01*
X114416745Y-75053501D01*
X114303499Y-74940255D01*
X114214529Y-74807101D01*
X114153242Y-74659142D01*
X114122000Y-74502075D01*
X114122000Y-74341925D01*
X114153242Y-74184858D01*
X114214529Y-74036899D01*
X114303499Y-73903745D01*
X114416745Y-73790499D01*
X114549899Y-73701529D01*
X114697858Y-73640242D01*
X114854925Y-73609000D01*
X115015075Y-73609000D01*
X115172142Y-73640242D01*
X115172142Y-73640242D01*
G37*
G36*
X151085114Y-71244314D02*
G01*
X151373440Y-71363743D01*
X151374058Y-71363999D01*
X151634100Y-71537753D01*
X151855247Y-71758900D01*
X152029001Y-72018942D01*
X152029002Y-72018944D01*
X152148686Y-72307886D01*
X152209700Y-72614624D01*
X152209700Y-72927376D01*
X152148686Y-73234114D01*
X152029002Y-73523056D01*
X152029001Y-73523058D01*
X151855247Y-73783100D01*
X151634100Y-74004247D01*
X151374058Y-74178001D01*
X151374057Y-74178002D01*
X151374056Y-74178002D01*
X151085114Y-74297686D01*
X150778376Y-74358700D01*
X150465624Y-74358700D01*
X150158886Y-74297686D01*
X149869944Y-74178002D01*
X149869943Y-74178002D01*
X149869942Y-74178001D01*
X149609900Y-74004247D01*
X149388753Y-73783100D01*
X149214999Y-73523058D01*
X149214998Y-73523056D01*
X149095314Y-73234114D01*
X149034300Y-72927376D01*
X149034300Y-72614624D01*
X149095314Y-72307886D01*
X149214998Y-72018944D01*
X149214999Y-72018942D01*
X149388753Y-71758900D01*
X149609900Y-71537753D01*
X149869942Y-71363999D01*
X149870560Y-71363743D01*
X150158886Y-71244314D01*
X150465624Y-71183300D01*
X150778376Y-71183300D01*
X151085114Y-71244314D01*
X151085114Y-71244314D01*
G37*
G36*
X82367000Y-73880000D02*
G01*
X77665000Y-73880000D01*
X77665000Y-72678000D01*
X82367000Y-72678000D01*
X82367000Y-73880000D01*
X82367000Y-73880000D01*
G37*
G36*
X115172142Y-71100242D02*
G01*
X115320101Y-71161529D01*
X115453255Y-71250499D01*
X115566501Y-71363745D01*
X115655471Y-71496899D01*
X115716758Y-71644858D01*
X115748000Y-71801925D01*
X115748000Y-71962075D01*
X115716758Y-72119142D01*
X115655471Y-72267101D01*
X115566501Y-72400255D01*
X115453255Y-72513501D01*
X115320101Y-72602471D01*
X115172142Y-72663758D01*
X115015075Y-72695000D01*
X114854925Y-72695000D01*
X114697858Y-72663758D01*
X114549899Y-72602471D01*
X114416745Y-72513501D01*
X114303499Y-72400255D01*
X114214529Y-72267101D01*
X114153242Y-72119142D01*
X114122000Y-71962075D01*
X114122000Y-71801925D01*
X114153242Y-71644858D01*
X114214529Y-71496899D01*
X114303499Y-71363745D01*
X114416745Y-71250499D01*
X114549899Y-71161529D01*
X114697858Y-71100242D01*
X114854925Y-71069000D01*
X115015075Y-71069000D01*
X115172142Y-71100242D01*
X115172142Y-71100242D01*
G37*
M02*
