M48
; DRILL file {KiCad (5.1.4)-1} date 8/24/2021 8:52:11 PM
; FORMAT={-:-/ absolute / inch / decimal}
; #@! TF.CreationDate,2021-08-24T20:52:11-05:00
; #@! TF.GenerationSoftware,Kicad,Pcbnew,(5.1.4)-1
; #@! TF.FileFunction,Plated,1,2,PTH
FMAT,2
INCH
T1C0.0157
T2C0.0300
T3C0.0350
T4C0.0400
T5C0.0472
T6C0.0600
T7C0.1210
T8C0.1598
%
G90
G05
T1
X3.315Y-2.885
X3.4Y-2.875
X3.5Y-2.875
X3.515Y-4.23
X3.53Y-3.45
X3.6Y-2.875
X3.675Y-3.37
X3.7Y-2.875
X3.75Y-3.425
X3.775Y-3.325
X3.8Y-2.875
X3.85Y-3.425
X3.85Y-3.5
X3.875Y-3.325
X3.895Y-3.565
X3.9Y-2.875
X3.93Y-3.825
X3.95Y-3.325
X3.95Y-3.425
X3.95Y-3.5
X3.965Y-3.76
X3.965Y-4.16
X4.0Y-2.875
X4.015Y-4.13
X4.015Y-4.195
X4.05Y-3.425
X4.05Y-3.5
X4.075Y-2.795
X4.075Y-2.98
X4.08Y-4.43
X4.1Y-3.325
X4.125Y-2.925
X4.15Y-3.425
X4.15Y-3.5
X4.19Y-3.215
X4.19Y-3.38
X4.215Y-3.63
X4.215Y-3.86
X4.216Y-4.012
X4.225Y-2.925
X4.23Y-4.13
X4.245Y-4.46
X4.245Y-4.53
X4.25Y-3.325
X4.265Y-3.515
X4.265Y-3.925
X4.295Y-3.665
X4.295Y-3.88
X4.295Y-4.265
X4.295Y-4.35
X4.295Y-4.49
X4.298Y-4.014
X4.3Y-4.13
X4.325Y-2.925
X4.335Y-3.465
X4.335Y-3.765
X4.395Y-2.98
X4.395Y-3.305
X4.425Y-2.925
X4.445Y-3.065
X4.445Y-3.225
X4.445Y-3.605
X4.445Y-3.825
X4.455Y-4.13
X4.458Y-4.014
X4.49Y-3.545
X4.49Y-3.92
X4.515Y-3.39
X4.525Y-3.83
X4.555Y-3.145
X4.56Y-3.545
X4.56Y-3.92
X4.59Y-3.305
X4.595Y-3.775
X4.6Y-4.13
X4.63Y-3.915
X4.635Y-3.7
X4.64Y-3.23
X4.645Y-3.3
X4.65Y-2.775
X4.65Y-2.925
X4.65Y-3.025
X4.664Y-4.014
X4.68Y-3.67
X4.716Y-4.068
X4.72Y-3.83
X4.75Y-2.775
X4.75Y-2.925
X4.75Y-3.025
X4.75Y-3.1
X4.762Y-3.664
X4.762Y-4.032
X4.82Y-4.01
X4.85Y-2.775
X4.85Y-2.925
X4.85Y-3.025
X4.85Y-3.1
X4.85Y-3.2
X4.875Y-3.275
X4.885Y-3.39
X4.888Y-4.194
X4.89Y-4.128
X4.93Y-3.198
X4.93Y-3.386
X4.945Y-3.915
X4.95Y-2.775
X4.95Y-2.925
X4.95Y-3.025
X4.95Y-3.1
X4.975Y-3.425
X4.975Y-3.5
X4.975Y-3.55
X4.985Y-3.605
X4.985Y-3.66
X4.985Y-3.72
X4.985Y-3.78
X4.985Y-3.845
X5.0Y-3.3
X5.01Y-4.015
X5.025Y-2.775
X5.025Y-2.925
X5.025Y-3.025
X5.025Y-3.1
X5.025Y-3.425
X5.025Y-3.5
X5.025Y-3.55
X5.025Y-3.9
X5.025Y-3.95
X5.035Y-3.605
X5.035Y-3.66
X5.035Y-3.72
X5.035Y-3.78
X5.035Y-3.845
X5.075Y-3.5
X5.075Y-3.55
X5.075Y-3.9
X5.075Y-3.95
X5.075Y-4.0
X5.08Y-3.605
X5.08Y-3.66
X5.08Y-3.72
X5.08Y-3.78
X5.08Y-3.845
X5.125Y-2.775
X5.125Y-3.9
X5.125Y-3.95
X5.125Y-4.0
X5.15Y-3.25
X5.15Y-3.3
X5.15Y-4.05
X5.15Y-4.125
X5.2Y-3.25
X5.2Y-3.3
X5.21Y-3.075
X5.22Y-3.395
X5.25Y-4.125
X5.27Y-3.245
X5.285Y-3.765
X5.31Y-3.335
X5.315Y-3.535
X5.32Y-3.91
X5.3212Y-3.8312
X5.325Y-2.775
X5.325Y-2.825
X5.325Y-2.875
X5.35Y-4.125
X5.36Y-3.405
X5.36Y-3.535
X5.365Y-3.115
X5.365Y-3.58
X5.4Y-2.775
X5.4Y-2.825
X5.4Y-2.875
X5.4083Y-3.4267
X5.41Y-3.155
X5.41Y-3.198
X5.425Y-3.565
X5.45Y-3.975
X5.45Y-4.05
X5.45Y-4.125
X5.46Y-3.485
X5.47Y-3.66
X5.475Y-2.775
X5.475Y-2.825
X5.475Y-2.875
X5.48Y-3.71
X5.535Y-3.115
X5.55Y-3.05
X5.55Y-3.975
X5.55Y-4.05
X5.55Y-4.125
X5.578Y-3.154
X5.58Y-3.48
X5.59Y-3.765
X5.605Y-3.395
X5.61Y-3.44
X5.61Y-3.52
X5.61Y-3.565
X5.64Y-3.365
X5.64Y-3.705
X5.65Y-2.775
X5.65Y-2.875
X5.65Y-3.025
X5.65Y-3.1
X5.65Y-3.975
X5.65Y-4.05
X5.65Y-4.125
X5.656Y-3.198
X5.656Y-3.276
X5.75Y-2.775
X5.75Y-2.875
X5.75Y-2.975
X5.75Y-3.1
X5.75Y-3.975
X5.75Y-4.05
X5.75Y-4.125
X5.775Y-3.43
X5.78Y-3.885
X5.785Y-3.585
X5.805Y-3.195
X5.815Y-3.83
X5.825Y-2.875
X5.84Y-3.16
X5.85Y-2.775
X5.85Y-4.05
X5.85Y-4.125
X5.855Y-3.93
X5.875Y-2.975
X5.875Y-3.24
X5.875Y-3.375
X5.885Y-3.11
X5.885Y-3.475
X5.91Y-3.885
X5.925Y-3.975
X5.925Y-4.05
X5.925Y-4.125
X5.975Y-3.16
X5.975Y-3.43
X5.975Y-3.92
X5.975Y-4.17
X5.995Y-2.955
X6.0136Y-3.1936
X6.02Y-3.92
X6.02Y-4.21
X6.035Y-3.38
X6.05Y-2.8
X6.05Y-2.9
X6.0526Y-3.6826
X6.055Y-3.475
X6.055Y-3.575
X6.07Y-3.845
X6.085Y-3.21
X6.085Y-3.395
X6.085Y-3.635
X6.15Y-2.8
X6.15Y-2.9
X6.15Y-3.025
X6.15Y-4.075
X6.15Y-4.15
X6.15Y-4.225
X6.16Y-3.885
X6.22Y-3.505
X6.22Y-3.75
X6.25Y-2.8
X6.25Y-2.9
X6.255Y-3.615
X6.26Y-3.885
X6.272Y-3.3
X6.2839Y-3.4661
X6.29Y-3.65
X6.29Y-3.755
X6.305Y-3.06
X6.325Y-2.955
X6.325Y-4.15
X6.35Y-2.8
X6.37Y-2.875
X6.37Y-3.815
X6.4Y-3.95
X6.4Y-4.05
X6.45Y-2.8
X6.45Y-3.1
X6.45Y-3.475
X6.5Y-4.05
X6.5Y-4.15
X6.5Y-4.225
X6.505Y-3.53
X6.505Y-3.6
X6.505Y-3.645
X6.525Y-3.75
X6.525Y-3.815
X6.525Y-3.925
X6.55Y-2.8
X6.55Y-3.1
X6.55Y-3.3
X6.55Y-3.4
X6.55Y-3.475
X6.6Y-4.05
X6.6Y-4.15
X6.625Y-3.85
X6.65Y-2.8
X6.65Y-3.1
X6.65Y-3.2
X6.65Y-3.3
X6.65Y-3.4
X6.65Y-3.475
X6.7Y-4.05
X6.7Y-4.15
X6.7Y-4.225
X6.725Y-3.85
X6.725Y-3.9
X6.735Y-3.53
X6.735Y-3.775
X6.75Y-2.8
X6.75Y-2.9
X6.75Y-3.0
X6.75Y-3.1
X6.75Y-3.2
X6.75Y-3.3
X6.75Y-3.4
X6.75Y-3.475
X6.8Y-3.625
X6.8Y-4.05
X6.8Y-4.15
X6.8Y-4.225
X6.825Y-3.85
X6.825Y-3.9
X6.85Y-2.8
X6.85Y-2.9
X6.85Y-3.0
X6.85Y-3.1
X6.85Y-3.2
X6.85Y-3.3
X6.85Y-3.4
X6.85Y-3.475
X6.85Y-3.625
X6.9Y-3.625
X6.9Y-4.05
X6.9Y-4.15
X6.925Y-3.885
X6.95Y-2.8
X6.95Y-2.9
X6.95Y-3.0
X6.95Y-3.1
X6.95Y-3.2
X6.95Y-3.3
X6.95Y-3.4
X6.97Y-3.5
X6.97Y-3.74
X7.0Y-4.05
X7.0Y-4.15
X7.1Y-3.95
X7.1Y-4.05
X7.1Y-4.25
X7.115Y-3.675
X7.115Y-3.885
X7.2Y-3.65
X7.2Y-3.75
X7.2Y-3.85
X7.2Y-3.95
X7.2Y-4.05
X7.2Y-4.15
X7.2Y-4.25
X7.3Y-3.65
X7.3Y-3.75
X7.3Y-3.85
X7.3Y-3.95
X7.3Y-4.05
X7.3Y-4.25
T2
X4.686Y-3.19
T3
X4.525Y-2.83
X4.525Y-2.93
X4.525Y-3.03
T4
X7.05Y-3.073
X7.05Y-3.191
X7.05Y-3.309
X7.05Y-3.427
X7.05Y-3.545
X5.81Y-3.035
X5.93Y-3.035
X6.05Y-3.035
T5
X5.27Y-4.6
X5.27Y-4.8953
X5.965Y-4.595
X5.965Y-4.8903
X6.64Y-4.5947
X6.64Y-4.89
T6
X2.65Y-2.825
X2.65Y-2.925
X2.65Y-3.025
X2.65Y-3.125
X2.75Y-2.825
X2.75Y-2.925
X2.75Y-3.025
X2.75Y-3.125
X2.85Y-2.825
X2.85Y-2.925
X2.85Y-3.025
X2.85Y-3.125
X2.925Y-2.875
X2.925Y-3.075
X2.95Y-4.125
X2.95Y-4.225
X2.95Y-4.325
X2.95Y-4.425
X2.95Y-4.525
X3.05Y-4.125
X3.05Y-4.225
X3.05Y-4.325
X3.05Y-4.425
X3.05Y-4.525
X3.15Y-4.425
X3.15Y-4.525
X3.175Y-3.2
X3.175Y-3.3
X3.175Y-3.4
X3.275Y-3.1
X3.275Y-3.2
X3.275Y-3.3
X3.275Y-3.4
X3.375Y-3.0
X3.375Y-3.1
X3.375Y-3.2
X3.375Y-3.3
X3.375Y-3.4
X3.4Y-3.8
X3.5Y-3.8
X3.5Y-3.9
X3.58Y-2.99
X3.6Y-3.8
X3.6Y-3.9
X3.6Y-4.0
X3.7Y-2.99
X3.7Y-3.8
X3.7Y-3.9
X3.7Y-4.0
X3.8Y-3.8
X3.8Y-3.9
X3.8Y-4.0
X3.81Y-2.99
X3.91Y-2.99
T7
X7.22Y-3.158
X7.22Y-3.46
X5.93Y-2.865
T8
X7.153Y-4.6
X7.153Y-4.91
X3.255Y-3.585
X3.255Y-3.895
X3.255Y-4.205
T0
M30
